<svg width="25" height="16" viewBox="0 0 25 16" fill="none" xmlns="http://www.w3.org/2000/svg">
    <path d="M9.723 4.363V10h.535V7.875h1.46c1.075 0 1.813-.71 1.813-1.746 0-1.05-.726-1.766-1.804-1.766H9.723zm.535.477h1.34c.879 0 1.39.476 1.39 1.289 0 .793-.523 1.27-1.39 1.27h-1.34v-2.56zm5.433 4.777c-.566 0-.976-.305-.976-.789 0-.48.344-.746 1.058-.797l1.247-.09v.493c0 .668-.575 1.183-1.329 1.183zm-.086.453c.618 0 1.133-.293 1.391-.793h.047V10h.492V7.125c0-.887-.574-1.402-1.558-1.402-.872 0-1.524.43-1.622 1.109h.52c.102-.418.516-.652 1.086-.652.68 0 1.059.332 1.059.949v.394l-1.317.086c-.973.067-1.515.493-1.515 1.227 0 .754.593 1.234 1.417 1.234zm3.391 1.418c.688 0 .985-.273 1.36-1.285l1.636-4.41h-.547l-1.27 3.648h-.046l-1.274-3.648h-.554l1.578 4.234-.086.262c-.207.559-.418.754-.805.754a1.48 1.48 0 0 1-.23-.016v.446c.066.007.176.015.238.015z" fill="#0F0F0F"/>
    <g clip-path="url(#12bhq7bjza)">
        <path d="M6.638 7.188c-.008-.76.62-1.124.647-1.142-.352-.516-.901-.587-1.097-.595-.467-.047-.911.275-1.149.275-.236 0-.602-.268-.99-.26-.509.007-.978.295-1.24.751-.53.919-.136 2.279.38 3.023.252.365.552.774.947.76.38-.016.523-.246.983-.246.459 0 .588.246.99.238.409-.008.668-.371.918-.737.29-.423.409-.832.416-.853-.01-.004-.797-.306-.805-1.214zm-.756-2.23c.21-.254.35-.606.312-.958-.301.012-.667.2-.883.454-.195.225-.365.584-.319.929.337.026.68-.171.89-.425z" fill="#0F0F0F"/>
    </g>
    <rect x=".25" y=".25" width="24.5" height="15.5" rx=".75" stroke="#0F0F0F" stroke-width=".5"/>
    <defs>
        <clipPath id="12bhq7bjza">
            <path fill="#fff" transform="translate(2 4)" d="M0 0h6v6H0z"/>
        </clipPath>
    </defs>
</svg>
