<svg width="19" height="16" viewBox="0 0 19 16" fill="none" xmlns="http://www.w3.org/2000/svg">
    <path d="M17.52 3.14H1v11.55h16.52V3.14z" stroke="#0F0F0F" stroke-width="1.2" stroke-miterlimit="10"/>
    <path d="m1 6.703 8.26 1.881 8.26-1.838M6.314 3.097V1.445c0-.244.202-.445.446-.445h4.999c.244 0 .445.201.445.445V3.14" stroke="#0F0F0F" stroke-width="1.2" stroke-miterlimit="10"/>
    <path d="M10.108 10.179H8.413a.454.454 0 0 1-.46-.46V8.024c0-.258.201-.46.46-.46h1.695c.258 0 .46.202.46.46V9.72c0 .259-.202.46-.46.46z" fill="#F2F2F2" stroke="#0F0F0F" stroke-width="1.2" stroke-miterlimit="10"/>
</svg>
