<svg width="18" height="18" viewBox="0 0 18 18" fill="none" xmlns="http://www.w3.org/2000/svg">
    <path d="M16.313 14.625H1.688a.563.563 0 0 1-.563-.563V4.5a.563.563 0 0 1 .563-.563H5.32l.962-1.434a.563.563 0 0 1 .467-.253h4.5a.563.563 0 0 1 .467.253l.962 1.434h3.633a.562.562 0 0 1 .563.563v9.563a.562.562 0 0 1-.563.562zM2.25 13.5h13.5V5.062h-3.375a.563.563 0 0 1-.467-.253l-.962-1.434H7.054l-.962 1.434a.563.563 0 0 1-.467.253H2.25V13.5z" fill="#0F0F0F"/>
    <path d="M9 12.375a3.375 3.375 0 1 1 0-6.75 3.375 3.375 0 0 1 0 6.75zM9 6.75a2.25 2.25 0 1 0 0 4.5 2.25 2.25 0 0 0 0-4.5z" fill="#0F0F0F"/>
</svg>
