<svg width="382" height="186" viewBox="0 0 382 186" fill="none" xmlns="http://www.w3.org/2000/svg">
    <path fill="#0F0F0F" d="M0 100h125v86H0zM128 100h125v86H128zM257 100h125v86H257zM257 0h125v86H257z"/>
    <path d="M268.133 18v-3.662h3.744V13.4h-3.744v-2.906h4.078v-.95h-5.133V18h1.055zm5.742 0h1.008V9.176h-1.008V18zm2.988 0h1.008v-6.316h-1.008V18zm.504-7.535a.705.705 0 0 0 .703-.703.705.705 0 0 0-.703-.703.705.705 0 0 0-.703.703c0 .386.316.703.703.703zm4.981 6.55c-1.172 0-1.828-.89-1.828-2.267 0-1.377.656-2.268 1.828-2.268 1.166 0 1.875.891 1.875 2.268 0 1.377-.703 2.268-1.875 2.268zm.047 3.41c1.722 0 2.812-.902 2.812-2.314v-6.427h-.961v1.002h-.094c-.363-.68-1.142-1.114-2.027-1.114-1.623 0-2.648 1.284-2.648 3.176 0 1.893 1.013 3.158 2.648 3.158.867 0 1.582-.392 1.98-1.09h.094v1.243c0 .931-.674 1.488-1.804 1.488-.909 0-1.471-.334-1.583-.85h-1.066c.152 1.043 1.125 1.729 2.649 1.729zM287.164 18h1.008v-3.738c0-1.067.621-1.782 1.752-1.782.955 0 1.459.557 1.459 1.676V18h1.008v-4.09c0-1.482-.844-2.338-2.18-2.338-.967 0-1.629.41-1.945 1.108h-.094V9.176h-1.008V18zm7.488-7.951v1.635h-1.019v.843h1.019v3.832c0 1.207.522 1.688 1.823 1.688.199 0 .392-.024.591-.059v-.85a4.263 4.263 0 0 1-.468.024c-.657 0-.938-.316-.938-1.06v-3.575h1.406v-.843h-1.406v-1.635h-1.008zM307.602 18h1.107l-3.117-8.455h-1.043L301.432 18h1.107l.85-2.42h3.363l.85 2.42zm-2.579-7.09h.094l1.324 3.774h-2.742l1.324-3.774zm5.11-.861v1.635h-1.02v.843h1.02v3.832c0 1.207.521 1.688 1.822 1.688.199 0 .393-.024.592-.059v-.85a4.281 4.281 0 0 1-.469.024c-.656 0-.937-.316-.937-1.06v-3.575h1.406v-.843h-1.406v-1.635h-1.008zm4.359 0v1.635h-1.019v.843h1.019v3.832c0 1.207.522 1.688 1.822 1.688.2 0 .393-.024.592-.059v-.85a4.263 4.263 0 0 1-.468.024c-.657 0-.938-.316-.938-1.06v-3.575h1.406v-.843H315.5v-1.635h-1.008zm6.363 2.414c1.002 0 1.67.738 1.694 1.857h-3.481c.077-1.119.78-1.857 1.787-1.857zm1.665 3.902c-.264.557-.815.856-1.629.856-1.073 0-1.77-.791-1.823-2.04v-.046h4.541v-.387c0-1.963-1.037-3.176-2.742-3.176-1.734 0-2.847 1.29-2.847 3.276 0 1.998 1.095 3.263 2.847 3.263 1.383 0 2.367-.668 2.66-1.746h-1.007zM325.191 18h1.008v-3.738c0-1.108.651-1.782 1.658-1.782 1.008 0 1.489.54 1.489 1.676V18h1.008v-4.09c0-1.5-.792-2.338-2.209-2.338-.967 0-1.583.41-1.899 1.108h-.094v-.996h-.961V18zm9.346.111c.873 0 1.623-.416 2.022-1.119h.093V18h.961V9.176h-1.008v3.504h-.087c-.358-.692-1.102-1.108-1.981-1.108-1.605 0-2.654 1.29-2.654 3.27 0 1.986 1.037 3.27 2.654 3.27zm.234-5.63c1.143 0 1.858.914 1.858 2.36 0 1.46-.709 2.362-1.858 2.362-1.154 0-1.845-.885-1.845-2.361 0-1.47.697-2.362 1.845-2.362zm6.745 4.746c-.733 0-1.278-.375-1.278-1.02 0-.633.422-.967 1.383-1.031l1.699-.111v.58c0 .902-.767 1.582-1.804 1.582zm-.188.884c.844 0 1.535-.369 1.945-1.043h.094V18h.961v-4.324c0-1.313-.861-2.104-2.402-2.104-1.348 0-2.344.668-2.479 1.682h1.02c.14-.498.668-.785 1.424-.785.943 0 1.429.428 1.429 1.207v.574l-1.822.111c-1.471.088-2.303.739-2.303 1.87 0 1.154.909 1.88 2.133 1.88zm4.863-.111h1.008v-3.738c0-1.108.651-1.782 1.658-1.782 1.008 0 1.489.54 1.489 1.676V18h1.008v-4.09c0-1.5-.792-2.338-2.209-2.338-.967 0-1.583.41-1.899 1.108h-.094v-.996h-.961V18zm7.43-7.951v1.635h-1.019v.843h1.019v3.832c0 1.207.522 1.688 1.822 1.688.2 0 .393-.024.592-.059v-.85a4.27 4.27 0 0 1-.469.024c-.656 0-.937-.316-.937-1.06v-3.575h1.406v-.843h-1.406v-1.635h-1.008z" fill="#fff"/>
    <path fill="#0F0F0F" d="M128 0h125v86H128z"/>
    <path d="M139.133 18v-3.662h3.744V13.4h-3.744v-2.906h4.078v-.95h-5.133V18h1.055zm5.707 0h1.008v-6.316h-1.008V18zm.504-7.535a.706.706 0 0 0 .703-.703.706.706 0 0 0-.703-.703.705.705 0 0 0-.703.703c0 .386.316.703.703.703zM147.77 18h1.007v-3.914c0-.89.698-1.535 1.659-1.535.199 0 .562.035.644.058v-1.007a4.327 4.327 0 0 0-.504-.03c-.838 0-1.564.434-1.752 1.05h-.094v-.938h-.96V18zm4.306-4.588c0 .914.539 1.424 1.723 1.711l1.084.264c.674.164 1.002.457 1.002.89 0 .58-.61.985-1.459.985-.809 0-1.313-.34-1.483-.873h-1.037c.112 1.049 1.078 1.722 2.485 1.722 1.435 0 2.531-.779 2.531-1.91 0-.908-.574-1.424-1.764-1.71l-.972-.235c-.745-.182-1.096-.451-1.096-.885 0-.562.586-.943 1.336-.943.762 0 1.254.334 1.388.838h.997c-.135-1.037-1.055-1.694-2.379-1.694-1.342 0-2.356.791-2.356 1.84zm6.791-3.363v1.635h-1.019v.843h1.019v3.832c0 1.207.522 1.688 1.822 1.688.2 0 .393-.024.592-.059v-.85a4.27 4.27 0 0 1-.469.024c-.656 0-.937-.316-.937-1.06v-3.575h1.406v-.843h-1.406v-1.635h-1.008zm11.004-.703c-2.391 0-3.879 1.705-3.879 4.424 0 2.707 1.453 4.43 3.879 4.43 2.414 0 3.879-1.73 3.879-4.43 0-2.713-1.477-4.424-3.879-4.424zm0 .972c1.729 0 2.795 1.336 2.795 3.452 0 2.097-1.061 3.457-2.795 3.457-1.758 0-2.795-1.36-2.795-3.457 0-2.116 1.072-3.452 2.795-3.452zm6 7.682h1.008v-5.473h1.447v-.843h-1.447v-.674c0-.692.305-1.043 1.031-1.043.182 0 .352.006.475.03v-.821a3.544 3.544 0 0 0-.68-.059c-1.201 0-1.834.604-1.834 1.863v.704h-1.049v.843h1.049V18zm4.348 0h1.008v-5.473h1.447v-.843h-1.447v-.674c0-.692.304-1.043 1.031-1.043.181 0 .351.006.474.03v-.821a3.533 3.533 0 0 0-.679-.059c-1.201 0-1.834.604-1.834 1.863v.704h-1.049v.843h1.049V18zm3.949 0h1.008v-6.316h-1.008V18zm.504-7.535a.705.705 0 0 0 .703-.703.705.705 0 0 0-.703-.703.705.705 0 0 0-.703.703c0 .386.316.703.703.703zm7.652 3.152c-.176-1.125-1.113-2.045-2.648-2.045-1.77 0-2.895 1.278-2.895 3.246 0 2.01 1.131 3.293 2.901 3.293 1.517 0 2.461-.855 2.642-2.015h-1.019c-.188.715-.78 1.107-1.629 1.107-1.125 0-1.852-.926-1.852-2.385 0-1.43.715-2.338 1.852-2.338.908 0 1.465.51 1.629 1.137h1.019zm4.008-1.154c1.002 0 1.67.738 1.693 1.857h-3.48c.076-1.119.779-1.857 1.787-1.857zm1.664 3.902c-.264.557-.814.856-1.629.856-1.072 0-1.769-.791-1.822-2.04v-.046h4.541v-.387c0-1.963-1.037-3.176-2.742-3.176-1.735 0-2.848 1.29-2.848 3.276 0 1.998 1.096 3.263 2.848 3.263 1.383 0 2.367-.668 2.66-1.746h-1.008zM200.668 18h1.008v-3.914c0-.89.697-1.535 1.658-1.535.199 0 .562.035.645.058v-1.007a4.327 4.327 0 0 0-.504-.03c-.838 0-1.565.434-1.752 1.05h-.094v-.938h-.961V18z" fill="#fff"/>
    <path fill="#0F0F0F" d="M0 0h125v86H0z"/>
    <path d="M111.1 46.3H58v25.5h53.1V46.3z" stroke="#fff"/>
    <path d="M69.7 46.3h-4.9v25.5h4.9V46.3zM79.6 46.3h-4.9v25.5h4.9V46.3zM89.7 46.3h-4.9v25.5h4.9V46.3zM100.701 46.3h-4.9v25.5h4.9V46.3z" stroke="#fff"/>
    <path d="M74.2 46.8h-4.3v24.8h4.3V46.8z" fill="#fff" fill-opacity=".24"/>
    <path d="M69.2 46.8h-3.9V72h3.9V46.8zM79.3 46h-4.1v26h4.1V46zM89.2 46h-4v26h4V46zM100.199 46h-4v26h4V46z" fill="#fff"/>
    <path d="M85.3 46.8h-5.2v24.8h5.2V46.8zM95.3 46.8h-5.1v24.8h5.1V46.8z" fill="#fff" fill-opacity=".24"/>
    <path d="M10.078 9.545V18h1.055v-3.018h2.127c1.588 0 2.719-1.119 2.719-2.7 0-1.612-1.108-2.737-2.707-2.737h-3.194zm1.055.937h1.863c1.225 0 1.899.64 1.899 1.8 0 1.118-.698 1.763-1.899 1.763h-1.863v-3.563zM17.602 18h1.007v-6.316h-1.007V18zm.503-7.535a.705.705 0 0 0 .704-.703.705.705 0 0 0-.704-.703.705.705 0 0 0-.703.703c0 .386.317.703.703.703zM20.59 18h1.008V9.176H20.59V18zm5.56.111c1.8 0 2.913-1.242 2.913-3.27 0-2.032-1.114-3.269-2.913-3.269-1.798 0-2.912 1.237-2.912 3.27 0 2.027 1.114 3.27 2.912 3.27zm0-.908c-1.195 0-1.869-.867-1.869-2.361 0-1.5.674-2.362 1.87-2.362 1.195 0 1.869.862 1.869 2.362 0 1.494-.674 2.361-1.87 2.361zm4.916-7.154v1.635h-1.02v.843h1.02v3.832c0 1.207.522 1.688 1.823 1.688.199 0 .392-.024.591-.059v-.85a4.275 4.275 0 0 1-.468.024c-.657 0-.938-.316-.938-1.06v-3.575h1.407v-.843h-1.407v-1.635h-1.008zM38.414 18h1.008v-6.316h-1.008V18zm.504-7.535a.705.705 0 0 0 .703-.703.705.705 0 0 0-.703-.703.705.705 0 0 0-.703.703c0 .386.316.703.703.703zM41.344 18h1.008v-3.738c0-1.108.65-1.782 1.658-1.782s1.488.54 1.488 1.676V18h1.008v-4.09c0-1.5-.791-2.338-2.21-2.338-.966 0-1.581.41-1.898 1.108h-.093v-.996h-.961V18zm13.928.2c1.798 0 3.134-1.003 3.416-2.555h-1.073c-.27.978-1.166 1.582-2.343 1.582-1.63 0-2.649-1.33-2.649-3.452 0-2.12 1.02-3.457 2.643-3.457 1.166 0 2.068.686 2.35 1.776h1.072c-.253-1.63-1.641-2.748-3.422-2.748-2.297 0-3.727 1.699-3.727 4.43 0 2.724 1.436 4.423 3.733 4.423zm7.652-.089c1.799 0 2.912-1.242 2.912-3.27 0-2.032-1.113-3.269-2.912-3.269s-2.912 1.237-2.912 3.27c0 2.027 1.113 3.27 2.912 3.27zm0-.908c-1.196 0-1.87-.867-1.87-2.361 0-1.5.674-2.362 1.87-2.362 1.195 0 1.869.862 1.869 2.362 0 1.494-.674 2.361-1.87 2.361zm4.494.797h1.008v-3.914c0-.89.638-1.606 1.465-1.606.796 0 1.318.48 1.318 1.23V18h1.008v-4.06c0-.803.586-1.46 1.465-1.46.89 0 1.33.457 1.33 1.39V18h1.007v-4.365c0-1.325-.72-2.063-2.01-2.063-.872 0-1.593.44-1.933 1.108h-.094c-.293-.657-.89-1.108-1.746-1.108-.843 0-1.476.405-1.763 1.108h-.094v-.996h-.961V18zm10.441 0h1.008v-3.914c0-.89.639-1.606 1.465-1.606.797 0 1.318.48 1.318 1.23V18h1.008v-4.06c0-.803.586-1.46 1.465-1.46.89 0 1.33.457 1.33 1.39V18h1.008v-4.365c0-1.325-.72-2.063-2.01-2.063-.873 0-1.594.44-1.933 1.108h-.094c-.293-.657-.89-1.108-1.746-1.108-.844 0-1.477.405-1.764 1.108h-.094v-.996h-.96V18zm12.387-.773c-.732 0-1.277-.375-1.277-1.02 0-.633.422-.967 1.383-1.031l1.699-.111v.58c0 .902-.768 1.582-1.805 1.582zm-.187.884c.843 0 1.535-.369 1.945-1.043h.094V18h.96v-4.324c0-1.313-.86-2.104-2.402-2.104-1.347 0-2.344.668-2.478 1.682h1.02c.14-.498.667-.785 1.423-.785.944 0 1.43.428 1.43 1.207v.574l-1.823.111c-1.47.088-2.302.739-2.302 1.87 0 1.154.908 1.88 2.133 1.88zM94.922 18h1.008v-3.738c0-1.108.65-1.782 1.658-1.782s1.488.54 1.488 1.676V18h1.008v-4.09c0-1.5-.791-2.338-2.209-2.338-.967 0-1.582.41-1.898 1.108h-.094v-.996h-.961V18zm9.346.111c.873 0 1.623-.416 2.021-1.119h.094V18h.961V9.176h-1.008v3.504h-.088c-.357-.692-1.102-1.108-1.98-1.108-1.606 0-2.655 1.29-2.655 3.27 0 1.986 1.037 3.27 2.655 3.27zm.234-5.63c1.143 0 1.857.914 1.857 2.36 0 1.46-.709 2.362-1.857 2.362-1.154 0-1.846-.885-1.846-2.361 0-1.47.698-2.362 1.846-2.362zM12.482 118.199c1.8 0 3.135-1.002 3.416-2.554h-1.072c-.27.978-1.166 1.582-2.344 1.582-1.628 0-2.648-1.331-2.648-3.452s1.02-3.457 2.643-3.457c1.166 0 2.068.686 2.35 1.776h1.071c-.252-1.629-1.64-2.748-3.421-2.748-2.297 0-3.727 1.699-3.727 4.429 0 2.725 1.435 4.424 3.732 4.424zm6.24-.199v-3.662h3.745v-.938h-3.744v-2.906H22.8v-.949h-5.133V118h1.055zm6.868 0v-8.455h-1.055V118h1.055zM144.174 114.73v-1.031h-3.428v.926h2.379v.205c0 1.43-1.025 2.397-2.537 2.397-1.699 0-2.754-1.325-2.754-3.457 0-2.104 1.072-3.452 2.748-3.452 1.254 0 2.104.604 2.467 1.746h1.072c-.305-1.675-1.664-2.718-3.539-2.718-2.314 0-3.832 1.752-3.832 4.424 0 2.707 1.494 4.429 3.832 4.429 2.162 0 3.592-1.383 3.592-3.469zm4.26-2.267c1.002 0 1.67.738 1.693 1.857h-3.481c.077-1.119.78-1.857 1.788-1.857zm1.664 3.902c-.264.557-.815.856-1.629.856-1.073 0-1.77-.791-1.823-2.039v-.047h4.542v-.387c0-1.963-1.038-3.176-2.743-3.176-1.734 0-2.847 1.289-2.847 3.276 0 1.998 1.095 3.263 2.847 3.263 1.383 0 2.367-.668 2.66-1.746h-1.007zM152.77 118h1.007v-3.738c0-1.108.651-1.782 1.659-1.782 1.007 0 1.488.54 1.488 1.676V118h1.008v-4.09c0-1.5-.791-2.338-2.209-2.338-.967 0-1.582.41-1.899 1.108h-.094v-.996h-.96V118zm9.527-5.537c1.002 0 1.67.738 1.693 1.857h-3.48c.076-1.119.779-1.857 1.787-1.857zm1.664 3.902c-.264.557-.815.856-1.629.856-1.072 0-1.77-.791-1.822-2.039v-.047h4.541v-.387c0-1.963-1.037-3.176-2.742-3.176-1.735 0-2.848 1.289-2.848 3.276 0 1.998 1.096 3.263 2.848 3.263 1.382 0 2.367-.668 2.66-1.746h-1.008zm2.672 1.635h1.008v-3.914c0-.891.697-1.535 1.658-1.535.199 0 .562.035.644.058v-1.007a4.218 4.218 0 0 0-.504-.03c-.837 0-1.564.434-1.751 1.049h-.094v-.937h-.961V118zm6.515-.773c-.732 0-1.277-.375-1.277-1.02 0-.633.422-.967 1.383-1.031l1.699-.112v.581c0 .902-.767 1.582-1.805 1.582zm-.187.884c.844 0 1.535-.369 1.945-1.043H175V118h.961v-4.324c0-1.313-.861-2.104-2.402-2.104-1.348 0-2.344.668-2.479 1.682h1.02c.14-.498.668-.785 1.423-.785.944 0 1.43.427 1.43 1.207v.574l-1.822.111c-1.471.088-2.303.739-2.303 1.869 0 1.155.908 1.881 2.133 1.881zm4.922-.111h1.008v-8.824h-1.008V118zm11.976 0h1.108l-3.117-8.455h-1.043L183.689 118h1.108l.849-2.42h3.364l.849 2.42zm-2.578-7.09h.094l1.324 3.774h-2.742l1.324-3.774zm9.375.774h-1.078l-1.728 5.203h-.094l-1.729-5.203h-1.078l2.338 6.316h1.031l2.338-6.316zm1.371 6.316h1.008v-6.316h-1.008V118zm.504-7.535a.705.705 0 0 0 .703-.703.705.705 0 0 0-.703-.703.705.705 0 0 0-.703.703c0 .386.317.703.703.703zm4.371 6.762c-.732 0-1.277-.375-1.277-1.02 0-.633.422-.967 1.383-1.031l1.699-.112v.581c0 .902-.768 1.582-1.805 1.582zm-.187.884c.844 0 1.535-.369 1.945-1.043h.094V118h.961v-4.324c0-1.313-.861-2.104-2.403-2.104-1.347 0-2.343.668-2.478 1.682h1.02c.14-.498.667-.785 1.423-.785.944 0 1.43.427 1.43 1.207v.574l-1.822.111c-1.471.088-2.303.739-2.303 1.869 0 1.155.908 1.881 2.133 1.881zm5.285-8.062v1.635h-1.02v.843H208v3.832c0 1.207.521 1.688 1.822 1.688.199 0 .393-.024.592-.059v-.849a4.395 4.395 0 0 1-.469.023c-.656 0-.937-.316-.937-1.06v-3.575h1.406v-.843h-1.406v-1.635H208zm3.961 7.951h1.008v-6.316h-1.008V118zm.504-7.535a.705.705 0 0 0 .703-.703.705.705 0 0 0-.703-.703.705.705 0 0 0-.703.703c0 .386.316.703.703.703zm5.021 7.646c1.799 0 2.912-1.242 2.912-3.269 0-2.033-1.113-3.27-2.912-3.27-1.798 0-2.912 1.237-2.912 3.27 0 2.027 1.114 3.269 2.912 3.269zm0-.908c-1.195 0-1.869-.867-1.869-2.361 0-1.5.674-2.362 1.869-2.362 1.196 0 1.869.862 1.869 2.362 0 1.494-.673 2.361-1.869 2.361zm4.494.797h1.008v-3.738c0-1.108.651-1.782 1.658-1.782 1.008 0 1.489.54 1.489 1.676V118h1.008v-4.09c0-1.5-.791-2.338-2.209-2.338-.967 0-1.582.41-1.899 1.108h-.094v-.996h-.961V118zM271.574 118h1.108l-3.118-8.455h-1.043L265.404 118h1.108l.849-2.42h3.364l.849 2.42zm-2.578-7.09h.094l1.324 3.774h-2.742l1.324-3.774zm11.139 7.09h1.324l-1.471-1.576c.463-.715.698-1.67.698-2.983v-.152h-.985v.147c0 1.054-.135 1.746-.398 2.273l-2.115-2.273c1.306-.686 1.828-1.319 1.828-2.186 0-1.107-.909-1.904-2.157-1.904-1.236 0-2.156.808-2.156 1.892 0 .616.281 1.16 1.061 1.981-.094.047-.252.129-.328.164-1.131.597-1.676 1.359-1.676 2.361 0 1.418 1.178 2.414 2.859 2.414 1.026 0 2.016-.369 2.736-1.002l.78.844zm-4.09-3.996c.082-.041.234-.117.299-.141l2.39 2.614c-.463.486-1.254.791-2.021.791-1.131 0-1.899-.645-1.899-1.594 0-.662.416-1.248 1.231-1.67zm.574-1.166c-.668-.662-.908-1.072-.908-1.541 0-.656.48-1.113 1.154-1.113.686 0 1.16.445 1.16 1.101 0 .604-.375 1.026-1.406 1.553zm6.088-3.293V118h1.055v-3.018h2.127c1.588 0 2.718-1.119 2.718-2.701 0-1.611-1.107-2.736-2.707-2.736h-3.193zm1.055.937h1.863c1.225 0 1.898.639 1.898 1.799 0 1.119-.697 1.764-1.898 1.764h-1.863v-3.563zM105.82 166.893c.369-.369 2.516-3.103 2.702-3.509.223-.443 2.147-2.734 2.147-2.734-.069-1.252-1.906-2.644-2.163-2.68-.221-.073-3.769 2.961-4.507 3.553-.739.592-1.367.926-1.367.926L95.45 152.9l11.442-15.992-1.537-2.646c-.147-.221-.33-.478-.55-.624-.735-.513-1.103-.659-2.321.193-1.404.963-10.682 9.727-12.564 10.803-1.182.667-1.55.669-1.844.522-.257-.183-.404-.256-.845-.696-.477-.477-3.672-2.785-4.187-3.004-.515-.219-.996.409-.996.409s-1.543-1.173-1.95-.766c-.443.443.767 1.949.767 1.949s-.628.481-.41.996c.22.515 2.565 3.747 3.005 4.187.404.404.55.551.697.845.183.257.145.662-.523 1.843-1.038 1.846-9.84 11.161-10.803 12.564-.852 1.219-.706 1.587-.193 2.322.146.22.404.403.624.55l2.646 1.537L91.9 156.449l9.549 7.183s-.371.664-.926 1.366c-.592.739-3.626 4.287-3.553 4.507.073.221 1.392 2.058 2.68 2.163 0 0 2.291-1.924 2.734-2.146.369-.149 3.066-2.259 3.436-2.629z" fill="#fff"/>
    <path d="M239.1 46.3H186v25.5h53.1V46.3z" stroke="#fff"/>
    <path d="M197.701 46.3h-4.9v25.5h4.9V46.3zM207.599 46.3h-4.9v25.5h4.9V46.3zM217.701 46.3h-4.9v25.5h4.9V46.3z" stroke="#fff"/>
    <path d="M202.2 46.8h-4.3v24.8h4.3V46.8z" fill="#fff" fill-opacity=".24"/>
    <path d="M197.201 46.8h-3.9V72h3.9V46.8zM207.299 46h-4.1v26h4.1V46zM217.199 46h-4v26h4V46z" fill="#fff"/>
    <path d="M213.3 46.8h-5.2v24.8h5.2V46.8z" fill="#fff" fill-opacity=".24"/>
    <path d="M369.1 46.3H316v25.5h53.1V46.3z" stroke="#fff"/>
    <path d="M327.701 46.3h-4.9v25.5h4.9V46.3zM337.599 46.3h-4.9v25.5h4.9V46.3z" stroke="#fff"/>
    <path d="M332.2 46.8h-4.3v24.8h4.3V46.8z" fill="#fff" fill-opacity=".24"/>
    <path d="M327.201 46.8h-3.9V72h3.9V46.8zM337.299 46h-4.1v26h4.1V46z" fill="#fff"/>
    <path d="M217.506 168.727c7.109 0 12.872-5.762 12.872-12.871 0-7.109-5.763-12.872-12.872-12.872-7.108 0-12.871 5.763-12.871 12.872s5.763 12.871 12.871 12.871z" fill="#000"/>
    <path d="M217.507 166.95c6.127 0 11.094-4.967 11.094-11.094s-4.967-11.093-11.094-11.093c-6.126 0-11.093 4.966-11.093 11.093s4.967 11.094 11.093 11.094z" fill="#000" stroke="#fff" stroke-width=".8" stroke-miterlimit="10"/>
    <path d="M217.5 164a8.5 8.5 0 1 0-.001-17.001A8.5 8.5 0 0 0 217.5 164z" fill="#000" stroke="#fff" stroke-width=".8" stroke-miterlimit="10"/>
    <path d="M214.984 154.203s1.009-.744.531-2.867c-.478-2.123-4.273-9.129.531-14.437 3.715-4.114 1.831 17.144 1.831 17.144l-2.893.16z" fill="#000" stroke="#fff" stroke-width=".8" stroke-miterlimit="10"/>
    <path d="M218.088 153.22s-8.413-9.023-.663-19.745c2.707-3.715 3.715 15.446.663 19.745z" fill="#fff" stroke="#030303" stroke-width=".8" stroke-miterlimit="10"/>
    <path d="M220.346 155.246s.213 1.22 2.336 1.751c2.123.531 10.085.266 12.685 6.953 2.017 5.149-16.162-6.05-16.162-6.05l1.141-2.654z" fill="#000" stroke="#fff" stroke-width=".8" stroke-miterlimit="10"/>
    <path d="M219.842 158.457s11.836-3.477 17.94 8.253c2.15 4.087-15.446-3.609-17.94-8.253z" fill="#fff" stroke="#000" stroke-width=".8" stroke-miterlimit="10"/>
    <path d="M216.18 157.793s-1.194-.398-2.654 1.221c-1.459 1.619-4.989 8.758-12.102 7.909-5.493-.664 12.951-11.385 12.951-11.385l1.805 2.255z" fill="#000" stroke="#fff" stroke-width=".8" stroke-miterlimit="10"/>
    <path d="M213.605 155.803s-2.521 12.075-15.738 11.942c-4.617-.053 10.457-11.916 15.738-11.942z" fill="#fff" stroke="#000" stroke-width=".8" stroke-miterlimit="10"/>
    <path d="M217.505 159.678a3.822 3.822 0 1 0 0-7.644 3.822 3.822 0 0 0 0 7.644z" fill="#000" stroke="#fff" stroke-width=".8" stroke-miterlimit="10"/>
    <path d="m358.476 137.879 2.475-2.457 2.959 2.19-1.507 3.152.861 1.496h3.497l.484 3.527-3.389 1.175-.323 1.496 2.313 2.671-2.205 2.992-3.121-1.656-1.344.695-.108 3.579-3.82.588-.806-3.312-1.668-.535-2.69 2.511-2.905-2.297 1.668-3.045-.861-1.39-3.712-.16-.43-3.686 3.496-1.069.377-1.496-2.475-2.618 2.26-2.992 3.066 1.71 1.507-.801-.054-3.687 3.819-.534 1.022 3.526 1.614.427z" stroke="#fff" stroke-width="2" stroke-miterlimit="10"/>
    <circle cx="355.505" cy="145.666" r="3.269" stroke="#fff" stroke-width="2"/>
    <path d="m334.959 137.15 1.346-1.336 1.609 1.191-.819 1.715.468.813h1.902l.263 1.918-1.843.64-.176.813 1.259 1.453-1.2 1.628-1.697-.901-.732.378-.058 1.947-2.078.319-.439-1.801-.907-.291-1.463 1.366-1.58-1.25.907-1.656-.468-.756-2.019-.087-.234-2.005 1.902-.581.205-.814-1.346-1.424 1.229-1.627 1.668.93.819-.436-.029-2.005 2.077-.291.556 1.918.878.232z" stroke="#fff" stroke-width="1.6" stroke-miterlimit="10"/>
    <circle cx="333.344" cy="141.386" r="1.522" stroke="#fff" stroke-width="1.6"/>
    <path d="m339.628 154.872 1.798-1.785 2.149 1.591-1.094 2.289.625 1.087h2.54l.352 2.561-2.462.854-.235 1.087 1.681 1.94-1.603 2.173-2.266-1.203-.977.505-.078 2.6-2.774.427-.586-2.407-1.212-.388-1.953 1.824-2.11-1.668 1.211-2.212-.625-1.009-2.696-.117-.313-2.677 2.54-.777.273-1.086-1.797-1.902 1.641-2.173 2.227 1.242 1.094-.582-.039-2.678 2.775-.388.742 2.561 1.172.311z" stroke="#fff" stroke-width="1.6" stroke-miterlimit="10"/>
    <circle cx="337.47" cy="160.528" r="2.301" stroke="#fff" stroke-width="1.6"/>
</svg>
