<svg width="37" height="50" viewBox="0 0 37 50" fill="none" xmlns="http://www.w3.org/2000/svg">
    <path stroke="#0F0F0F" stroke-width="2" d="M1 1h19.377v48H1z"/>
    <path stroke="#0F0F0F" stroke-width="1.63" d="M6.251 6.25h1.63v1.993h-1.63z"/>
    <path stroke="#0F0F0F" stroke-width="1.812" d="M13.225 6.341h1.812v1.812h-1.812z"/>
    <path fill="#fff" stroke="#0F0F0F" stroke-width="2" d="M7.521 15.13h28.435V49H7.521z"/>
    <path stroke="#0F0F0F" stroke-width="2" d="M20.203 44.116h3.072V49h-3.072z"/>
    <path stroke="#0F0F0F" stroke-width="1.684" d="M13.885 21.049h1.684v1.684h-1.684zM20.88 21.049h1.684v1.684H20.88zM27.874 21.049h1.684v1.684h-1.684zM13.885 28.174h1.684v1.684h-1.684zM20.88 28.174h1.684v1.684H20.88zM27.874 28.174h1.684v1.684h-1.684zM13.885 35.298h1.684v1.684h-1.684zM20.88 35.298h1.684v1.684H20.88zM27.874 35.298h1.684v1.684h-1.684z"/>
</svg>
