<?xml version="1.0" encoding="UTF-8" standalone="no"?>
<svg
   xmlns:dc="http://purl.org/dc/elements/1.1/"
   xmlns:cc="http://creativecommons.org/ns#"
   xmlns:rdf="http://www.w3.org/1999/02/22-rdf-syntax-ns#"
   xmlns:svg="http://www.w3.org/2000/svg"
   xmlns="http://www.w3.org/2000/svg"
   viewBox="0 0 23.308594 16.266602"
   height="16.266602"
   width="23.308594"
   xml:space="preserve"
   id="svg2"
   version="1.1"><metadata
     id="metadata8"><rdf:RDF><cc:Work
         rdf:about=""><dc:format>image/svg+xml</dc:format><dc:type
           rdf:resource="http://purl.org/dc/dcmitype/StillImage" /></cc:Work></rdf:RDF></metadata><defs
     id="defs6" /><g
     transform="matrix(1.3333333,0,0,-1.3333333,0,16.266601)"
     id="g10"><g
       transform="translate(0,0.394775)"
       id="g12"><path
         id="path14"
         style="fill:#ffffff;fill-opacity:1;fill-rule:nonzero;stroke:none"
         d="m 17.450699,8.292793 c -0.029,0.049948 -0.07595,0.08592 -0.130533,0.10001 -0.05458,0.01409 -0.112328,0.00515 -0.16055,-0.024867 L 15.479614,7.322172 c -0.04541,-0.028518 -0.07885,-0.073639 -0.09373,-0.126459 l -0.357929,-1.26826 c -0.01273,0.00587 -0.02546,0.012096 -0.03855,0.017594 L 10.009173,8.647613 C 9.971843,8.667728 9.929585,8.675891 9.88777,8.671061 9.845954,8.666231 9.806466,8.648628 9.774325,8.620488 9.762654,8.610225 8.618484,7.604781 7.6409,6.805337 7.019123,6.297301 6.434482,6.523095 6.159668,6.686942 l 1.678588,2.390266 c 0.266456,0.377636 0.622194,0.67786 1.032994,0.871793 0.410801,0.193934 0.862843,0.275051 1.312643,0.235551 l 2.581899,-0.28884 c 0.02826,-0.00317 0.05685,-4.25e-4 0.08407,0.00807 0.02722,0.0085 0.05251,0.022582 0.07438,0.041409 l 1.543834,1.334238 c 0.03934,0.03842 0.06305,0.09094 0.06629,0.146858 0.0032,0.05592 -0.01422,0.111007 -0.04883,0.154033 -0.03461,0.04303 -0.08376,0.07074 -0.137417,0.07749 -0.05366,0.0068 -0.107778,-0.008 -0.151319,-0.04116 L 12.721934,10.342526 10.224213,10.62147 C 9.618478,10.67491 9.011132,10.539885 8.47984,10.233669 L 5.061477,10.19335 3.582368,11.510726 c -0.043023,0.03451 -0.097193,0.05058 -0.15132,0.04489 C 3.376921,11.54992 3.326972,11.522899 3.291517,11.480132 3.256062,11.437366 3.23781,11.38212 3.240532,11.325807 3.243253,11.269494 3.26674,11.216414 3.30614,11.177533 L 4.84573,9.806273 C 4.884212,9.771991 4.933274,9.753135 4.98402,9.753124 H 4.9865 L 7.882471,9.78758 C 7.739003,9.650304 7.60871,9.498945 7.493414,9.335625 L 5.686792,6.762085 C 5.655571,6.717125 5.641869,6.66161 5.648426,6.606636 5.654983,6.551661 5.681315,6.501274 5.722161,6.465546 6.085749,6.145183 7.009927,5.732449 7.902273,6.460415 8.71009,7.119836 9.629669,7.918547 9.939497,8.19016 L 14.812918,5.548074 C 14.886092,5.517583 14.954785,5.47662 15.016994,5.42638 l 0.005,-0.00403 C 15.199127,5.277533 15.315558,5.06745 15.346982,4.83587 15.386595,4.542631 15.286148,4.275784 15.0704,4.102772 14.973262,4.025446 14.860416,3.972048 14.740413,3.946622 13.98565,3.78534 12.127037,4.578552 11.473782,4.899649 c -0.05093,0.024985 -0.109362,0.027976 -0.162425,0.00832 -0.05306,-0.01966 -0.09642,-0.060361 -0.120523,-0.113148 -0.02411,-0.052788 -0.027,-0.113339 -0.008,-0.168332 0.01897,-0.054993 0.05824,-0.099923 0.109177,-0.124907 0.07993,-0.039221 1.591582,-0.773785 2.737167,-0.966957 C 14.010078,3.42686 13.899729,2.894632 13.54569,2.642446 13.359652,2.509022 13.134355,2.474932 12.858481,2.538712 11.660197,2.814356 10.39931,3.279141 10.386578,3.283539 c -0.05148,0.014088 -0.10618,0.00761 -0.153261,-0.018155 -0.04708,-0.025763 -0.0831,-0.068924 -0.100906,-0.120923 -0.01781,-0.051998 -0.0161,-0.109036 0.0048,-0.159794 0.02088,-0.050759 0.0594,-0.091531 0.107924,-0.114228 C 10.257459,2.86567 11.41224,2.43974 12.577277,2.154931 12.512199,1.852895 12.27523,1.296107 11.413301,1.3203 10.140036,1.364285 9.4263,1.884418 9.419226,1.88955 9.373655,1.917727 9.319551,1.927189 9.267582,1.916067 9.215613,1.904945 9.169551,1.874048 9.138477,1.829468 9.107403,1.784888 9.093573,1.72986 9.099712,1.675234 9.105853,1.620608 9.131517,1.570348 9.171647,1.534364 9.196404,1.515304 9.657964,1.175879 10.498319,0.992971 10.101838,0.652081 9.347783,0.183631 8.529356,0.614326 8.19088,0.792835 7.987158,0.900969 7.865136,0.966948 7.863753,0.968067 7.862453,0.969292 7.861246,0.970612 8.09783,1.128556 8.319197,1.309733 8.522283,1.511639 8.541413,1.531242 8.55667,1.554525 8.567201,1.580183 8.574628,1.598877 8.75147,2.038001 8.542442,2.468697 8.402737,2.757171 8.131461,2.963172 7.738163,3.084499 7.645498,3.377739 7.359721,4.076381 6.71071,4.20614 6.685779,4.427279 6.603524,4.637292 6.47268,4.813877 6.229345,5.143771 5.83145,5.358202 5.290666,5.456804 5.237613,5.969973 4.583296,6.451251 4.194242,6.659084 3.518351,7.018669 1.963553,6.351916 1.302162,6.035951 L 0.374801,7.039196 C 0.356139,7.062255 0.333109,7.081099 0.307136,7.094562 0.281164,7.108024 0.252801,7.115819 0.223804,7.117463 0.194808,7.119107 0.165794,7.114566 0.138559,7.104121 0.111324,7.093675 0.086448,7.077547 0.06547,7.056736 0.044491,7.035925 0.027858,7.010873 0.016599,6.983131 0.00534,6.955389 -3.05e-4,6.925547 1.3e-5,6.895452 3.31e-4,6.865358 0.006606,6.835651 0.018449,6.808171 0.030292,6.780691 0.047451,6.756023 0.068864,6.735693 L 0.929025,5.802826 C 0.659164,5.56237 0.493993,5.209016 0.646077,4.832937 0.758903,4.553993 1.182971,4.04559 1.654786,3.857551 1.774003,3.812389 1.898801,3.784992 2.025448,3.776177 2.149591,3.325688 2.497617,2.653438 3.142738,2.467231 3.263344,2.033237 3.660179,1.411203 4.536256,1.341926 4.653326,0.911964 5.05405,0.332084 6.006523,0.332084 c 0.022636,0 0.045979,0 0.068968,0 C 6.584797,0.346746 7.054845,0.515358 7.444605,0.719893 7.460875,0.70743 7.479974,0.6946 7.500841,0.680672 L 7.498719,0.67554 7.534088,0.659045 c 0.14784,-0.09237 0.397541,-0.223961 0.80251,-0.437293 0.265603,-0.14217 0.560163,-0.216446 0.8591,-0.21663 0.785888,0 1.476634,0.505471 1.839161,0.902078 0.117423,-0.012463 0.238029,-0.02236 0.36571,-0.026759 0.02688,0 0.05376,0 0.07993,0 1.009063,0 1.409435,0.681414 1.515894,1.194215 0.03961,-0.0033 0.07922,-0.00586 0.117776,-0.00586 0.240753,-0.00322 0.476538,0.071061 0.674831,0.212597 0.539016,0.385977 0.656438,1.157195 0.663513,1.207413 0.02263,0 0.04562,-0.00183 0.06755,-0.00183 0.103032,-0.00115 0.205906,0.00867 0.306999,0.029323 0.182871,0.038649 0.354786,0.120147 0.502586,0.238257 0.164425,0.132503 0.291642,0.308194 0.368449,0.50884 0.07681,0.200647 0.100408,0.418939 0.06835,0.632227 -0.03995,0.291385 -0.170011,0.561482 -0.370662,0.769752 l 0.373137,1.323242 1.609265,1.001412 c 0.02401,0.014885 0.04494,0.034541 0.06159,0.057839 0.01665,0.023298 0.02869,0.049779 0.03543,0.077917 0.0067,0.028139 0.008,0.05738 0.0038,0.086043 -0.0042,0.028662 -0.01384,0.05618 -0.02834,0.08097 z M 1.035131,5.002649 C 0.933977,5.254102 1.187922,5.482829 1.342129,5.5719 2.171166,5.983534 3.145921,6.325891 3.694132,6.325891 3.798428,6.330968 3.902464,6.311285 3.998301,6.268343 4.515388,5.993432 4.866951,5.594626 4.870842,5.39449 c 0,-0.024192 0,-0.07331 -0.099386,-0.133057 L 4.654033,5.191789 C 4.088138,4.855663 2.582501,3.963117 1.804041,4.269552 1.456723,4.407374 1.109404,4.822308 1.035131,5.002649 Z M 2.463663,3.793038 c 0.882444,0.119129 1.895751,0.71917 2.400812,1.019007 L 4.979776,4.880222 C 5.04992,4.920444 5.112757,4.973039 5.165461,5.03564 6.145875,4.875824 6.28169,4.350559 6.294069,4.130263 5.688207,3.724127 4.240222,2.857606 3.495715,2.857606 2.868279,2.856505 2.575781,3.468276 2.465078,3.791938 l -0.00142,0.0011 z M 3.61137,2.423612 C 4.608761,2.503886 6.222625,3.559913 6.559332,3.785341 7.008512,3.739889 7.235931,3.235518 7.320462,2.989197 6.937421,2.695957 5.670169,1.781419 4.707086,1.775554 H 4.696121 C 4.03084,1.774454 3.737282,2.152732 3.612785,2.422512 l -0.00142,0.0011 z M 6.060991,0.774142 C 5.340181,0.74775 5.073857,1.107334 4.975532,1.356587 6.055686,1.499908 7.278727,2.406384 7.611898,2.667366 7.889187,2.58306 8.074518,2.452203 8.160817,2.276992 8.256311,2.083821 8.212101,1.873789 8.18805,1.790949 8.007671,1.615005 7.106483,0.801999 6.062405,0.772308 l -0.00141,0.001834 z" /></g><g
       transform="translate(0,0.540527)"
       id="g16"><path
         id="path18"
         style="fill:#ffffff;fill-opacity:1;fill-rule:nonzero;stroke:none"
         d="m 17.450699,8.292793 c -0.029,0.049948 -0.07595,0.08592 -0.130533,0.10001 -0.05458,0.01409 -0.112328,0.00515 -0.16055,-0.024867 L 15.479614,7.322172 c -0.04541,-0.028518 -0.07885,-0.073639 -0.09373,-0.126459 l -0.357929,-1.26826 c -0.01273,0.00587 -0.02546,0.012096 -0.03855,0.017594 L 10.009173,8.647613 C 9.971843,8.667728 9.929585,8.675891 9.88777,8.671061 9.845954,8.666231 9.806466,8.648628 9.774325,8.620488 9.762654,8.610225 8.618484,7.604781 7.6409,6.805337 7.019123,6.297301 6.434482,6.523095 6.159668,6.686942 l 1.678588,2.390266 c 0.266456,0.377636 0.622194,0.67786 1.032994,0.871793 0.410801,0.193934 0.862843,0.275051 1.312643,0.235551 l 2.581899,-0.28884 c 0.02826,-0.00317 0.05685,-4.25e-4 0.08407,0.00807 0.02722,0.0085 0.05251,0.022582 0.07438,0.041409 l 1.543834,1.334238 c 0.03934,0.03842 0.06305,0.09094 0.06629,0.146858 0.0032,0.05592 -0.01422,0.111007 -0.04883,0.154033 -0.03461,0.04303 -0.08376,0.07074 -0.137417,0.07749 -0.05366,0.0068 -0.107778,-0.008 -0.151319,-0.04116 L 12.721934,10.342526 10.224213,10.62147 C 9.618478,10.67491 9.011132,10.539885 8.47984,10.233669 L 5.061477,10.19335 3.582368,11.510726 c -0.043023,0.03451 -0.097193,0.05058 -0.15132,0.04489 C 3.376921,11.54992 3.326972,11.522899 3.291517,11.480132 3.256062,11.437366 3.23781,11.38212 3.240532,11.325807 3.243253,11.269494 3.26674,11.216414 3.30614,11.177533 L 4.84573,9.806273 C 4.884212,9.771991 4.933274,9.753135 4.98402,9.753124 H 4.9865 L 7.882471,9.78758 C 7.739003,9.650304 7.60871,9.498945 7.493414,9.335625 L 5.686792,6.762085 C 5.655571,6.717125 5.641869,6.66161 5.648426,6.606636 5.654983,6.551661 5.681315,6.501274 5.722161,6.465546 6.085749,6.145183 7.009927,5.732449 7.902273,6.460415 8.71009,7.119836 9.629669,7.918547 9.939497,8.19016 L 14.812918,5.548074 C 14.886092,5.517583 14.954785,5.47662 15.016994,5.42638 l 0.005,-0.00403 C 15.199127,5.277533 15.315558,5.06745 15.346982,4.83587 15.386595,4.542631 15.286148,4.275784 15.0704,4.102772 14.973262,4.025446 14.860416,3.972048 14.740413,3.946622 13.98565,3.78534 12.127037,4.578552 11.473782,4.899649 c -0.05093,0.024985 -0.109362,0.027976 -0.162425,0.00832 -0.05306,-0.01966 -0.09642,-0.060361 -0.120523,-0.113148 -0.02411,-0.052788 -0.027,-0.113339 -0.008,-0.168332 0.01897,-0.054993 0.05824,-0.099923 0.109177,-0.124907 0.07993,-0.039221 1.591582,-0.773785 2.737167,-0.966957 C 14.010078,3.42686 13.899729,2.894632 13.54569,2.642446 13.359652,2.509022 13.134355,2.474932 12.858481,2.538712 11.660197,2.814356 10.39931,3.279141 10.386578,3.283539 c -0.05148,0.014088 -0.10618,0.00761 -0.153261,-0.018155 -0.04708,-0.025763 -0.0831,-0.068924 -0.100906,-0.120923 -0.01781,-0.051998 -0.0161,-0.109036 0.0048,-0.159794 0.02088,-0.050759 0.0594,-0.091531 0.107924,-0.114228 C 10.257459,2.86567 11.41224,2.43974 12.577277,2.154931 12.512199,1.852895 12.27523,1.296107 11.413301,1.3203 10.140036,1.364285 9.4263,1.884418 9.419226,1.88955 9.373655,1.917727 9.319551,1.927189 9.267582,1.916067 9.215613,1.904945 9.169551,1.874048 9.138477,1.829468 9.107403,1.784888 9.093573,1.72986 9.099712,1.675234 9.105853,1.620608 9.131517,1.570348 9.171647,1.534364 9.196404,1.515304 9.657964,1.175879 10.498319,0.992971 10.101838,0.652081 9.347783,0.183631 8.529356,0.614326 8.19088,0.792835 7.987158,0.900969 7.865136,0.966948 7.863753,0.968067 7.862453,0.969292 7.861246,0.970612 8.09783,1.128556 8.319197,1.309733 8.522283,1.511639 8.541413,1.531242 8.55667,1.554525 8.567201,1.580183 8.574628,1.598877 8.75147,2.038001 8.542442,2.468697 8.402737,2.757171 8.131461,2.963172 7.738163,3.084499 7.645498,3.377739 7.359721,4.076381 6.71071,4.20614 6.685779,4.427279 6.603524,4.637292 6.47268,4.813877 6.229345,5.143771 5.83145,5.358202 5.290666,5.456804 5.237613,5.969973 4.583296,6.451251 4.194242,6.659084 3.518351,7.018669 1.963553,6.351916 1.302162,6.035951 L 0.374801,7.039196 C 0.356139,7.062255 0.333109,7.081099 0.307136,7.094562 0.281164,7.108024 0.252801,7.115819 0.223804,7.117463 0.194808,7.119107 0.165794,7.114566 0.138559,7.104121 0.111324,7.093675 0.086448,7.077547 0.06547,7.056736 0.044491,7.035925 0.027858,7.010873 0.016599,6.983131 0.00534,6.955389 -3.05e-4,6.925547 1.3e-5,6.895452 3.31e-4,6.865358 0.006606,6.835651 0.018449,6.808171 0.030292,6.780691 0.047451,6.756023 0.068864,6.735693 L 0.929025,5.802826 C 0.659164,5.56237 0.493993,5.209016 0.646077,4.832937 0.758903,4.553993 1.182971,4.04559 1.654786,3.857551 1.774003,3.812389 1.898801,3.784992 2.025448,3.776177 2.149591,3.325688 2.497617,2.653438 3.142738,2.467231 3.263344,2.033237 3.660179,1.411203 4.536256,1.341926 4.653326,0.911964 5.05405,0.332084 6.006523,0.332084 c 0.022636,0 0.045979,0 0.068968,0 C 6.584797,0.346746 7.054845,0.515358 7.444605,0.719893 7.460875,0.70743 7.479974,0.6946 7.500841,0.680672 L 7.498719,0.67554 7.534088,0.659045 c 0.14784,-0.09237 0.397541,-0.223961 0.80251,-0.437293 0.265603,-0.14217 0.560163,-0.216446 0.8591,-0.21663 0.785888,0 1.476634,0.505471 1.839161,0.902078 0.117423,-0.012463 0.238029,-0.02236 0.36571,-0.026759 0.02688,0 0.05376,0 0.07993,0 1.009063,0 1.409435,0.681414 1.515894,1.194215 0.03961,-0.0033 0.07922,-0.00586 0.117776,-0.00586 0.240753,-0.00322 0.476538,0.071061 0.674831,0.212597 0.539016,0.385977 0.656438,1.157195 0.663513,1.207413 0.02263,0 0.04562,-0.00183 0.06755,-0.00183 0.103032,-0.00115 0.205906,0.00867 0.306999,0.029323 0.182871,0.038649 0.354786,0.120147 0.502586,0.238257 0.164425,0.132503 0.291642,0.308194 0.368449,0.50884 0.07681,0.200647 0.100408,0.418939 0.06835,0.632227 -0.03995,0.291385 -0.170011,0.561482 -0.370662,0.769752 l 0.373137,1.323242 1.609265,1.001412 c 0.02401,0.014885 0.04494,0.034541 0.06159,0.057839 0.01665,0.023298 0.02869,0.049779 0.03543,0.077917 0.0067,0.028139 0.008,0.05738 0.0038,0.086043 -0.0042,0.028662 -0.01384,0.05618 -0.02834,0.08097 z M 1.035131,5.002649 C 0.933977,5.254102 1.187922,5.482829 1.342129,5.5719 2.171166,5.983534 3.145921,6.325891 3.694132,6.325891 3.798428,6.330968 3.902464,6.311285 3.998301,6.268343 4.515388,5.993432 4.866951,5.594626 4.870842,5.39449 c 0,-0.024192 0,-0.07331 -0.099386,-0.133057 L 4.654033,5.191789 C 4.088138,4.855663 2.582501,3.963117 1.804041,4.269552 1.456723,4.407374 1.109404,4.822308 1.035131,5.002649 Z M 2.463663,3.793038 c 0.882444,0.119129 1.895751,0.71917 2.400812,1.019007 L 4.979776,4.880222 C 5.04992,4.920444 5.112757,4.973039 5.165461,5.03564 6.145875,4.875824 6.28169,4.350559 6.294069,4.130263 5.688207,3.724127 4.240222,2.857606 3.495715,2.857606 2.868279,2.856505 2.575781,3.468276 2.465078,3.791938 l -0.00142,0.0011 z M 3.61137,2.423612 C 4.608761,2.503886 6.222625,3.559913 6.559332,3.785341 7.008512,3.739889 7.235931,3.235518 7.320462,2.989197 6.937421,2.695957 5.670169,1.781419 4.707086,1.775554 H 4.696121 C 4.03084,1.774454 3.737282,2.152732 3.612785,2.422512 l -0.00142,0.0011 z M 6.060991,0.774142 C 5.340181,0.74775 5.073857,1.107334 4.975532,1.356587 6.055686,1.499908 7.278727,2.406384 7.611898,2.667366 7.889187,2.58306 8.074518,2.452203 8.160817,2.276992 8.256311,2.083821 8.212101,1.873789 8.18805,1.790949 8.007671,1.615005 7.106483,0.801999 6.062405,0.772308 l -0.00141,0.001834 z" /></g><g
       transform="translate(0,-0.005127)"
       id="g20"><path
         id="path22"
         style="fill:#ffffff;fill-opacity:1;fill-rule:nonzero;stroke:none"
         d="m 17.450699,8.292793 c -0.029,0.049948 -0.07595,0.08592 -0.130533,0.10001 -0.05458,0.01409 -0.112328,0.00515 -0.16055,-0.024867 L 15.479614,7.322172 c -0.04541,-0.028518 -0.07885,-0.073639 -0.09373,-0.126459 l -0.357929,-1.26826 c -0.01273,0.00587 -0.02546,0.012096 -0.03855,0.017594 L 10.009173,8.647613 C 9.971843,8.667728 9.929585,8.675891 9.88777,8.671061 9.845954,8.666231 9.806466,8.648628 9.774325,8.620488 9.762654,8.610225 8.618484,7.604781 7.6409,6.805337 7.019123,6.297301 6.434482,6.523095 6.159668,6.686942 l 1.678588,2.390266 c 0.266456,0.377636 0.622194,0.67786 1.032994,0.871793 0.410801,0.193934 0.862843,0.275051 1.312643,0.235551 l 2.581899,-0.28884 c 0.02826,-0.00317 0.05685,-4.25e-4 0.08407,0.00807 0.02722,0.0085 0.05251,0.022582 0.07438,0.041409 l 1.543834,1.334238 c 0.03934,0.03842 0.06305,0.09094 0.06629,0.146858 0.0032,0.05592 -0.01422,0.111007 -0.04883,0.154033 -0.03461,0.04303 -0.08376,0.07074 -0.137417,0.07749 -0.05366,0.0068 -0.107778,-0.008 -0.151319,-0.04116 L 12.721934,10.342526 10.224213,10.62147 C 9.618478,10.67491 9.011132,10.539885 8.47984,10.233669 L 5.061477,10.19335 3.582368,11.510726 c -0.043023,0.03451 -0.097193,0.05058 -0.15132,0.04489 C 3.376921,11.54992 3.326972,11.522899 3.291517,11.480132 3.256062,11.437366 3.23781,11.38212 3.240532,11.325807 3.243253,11.269494 3.26674,11.216414 3.30614,11.177533 L 4.84573,9.806273 C 4.884212,9.771991 4.933274,9.753135 4.98402,9.753124 H 4.9865 L 7.882471,9.78758 C 7.739003,9.650304 7.60871,9.498945 7.493414,9.335625 L 5.686792,6.762085 C 5.655571,6.717125 5.641869,6.66161 5.648426,6.606636 5.654983,6.551661 5.681315,6.501274 5.722161,6.465546 6.085749,6.145183 7.009927,5.732449 7.902273,6.460415 8.71009,7.119836 9.629669,7.918547 9.939497,8.19016 L 14.812918,5.548074 C 14.886092,5.517583 14.954785,5.47662 15.016994,5.42638 l 0.005,-0.00403 C 15.199127,5.277533 15.315558,5.06745 15.346982,4.83587 15.386595,4.542631 15.286148,4.275784 15.0704,4.102772 14.973262,4.025446 14.860416,3.972048 14.740413,3.946622 13.98565,3.78534 12.127037,4.578552 11.473782,4.899649 c -0.05093,0.024985 -0.109362,0.027976 -0.162425,0.00832 -0.05306,-0.01966 -0.09642,-0.060361 -0.120523,-0.113148 -0.02411,-0.052788 -0.027,-0.113339 -0.008,-0.168332 0.01897,-0.054993 0.05824,-0.099923 0.109177,-0.124907 0.07993,-0.039221 1.591582,-0.773785 2.737167,-0.966957 C 14.010078,3.42686 13.899729,2.894632 13.54569,2.642446 13.359652,2.509022 13.134355,2.474932 12.858481,2.538712 11.660197,2.814356 10.39931,3.279141 10.386578,3.283539 c -0.05148,0.014088 -0.10618,0.00761 -0.153261,-0.018155 -0.04708,-0.025763 -0.0831,-0.068924 -0.100906,-0.120923 -0.01781,-0.051998 -0.0161,-0.109036 0.0048,-0.159794 0.02088,-0.050759 0.0594,-0.091531 0.107924,-0.114228 C 10.257459,2.86567 11.41224,2.43974 12.577277,2.154931 12.512199,1.852895 12.27523,1.296107 11.413301,1.3203 10.140036,1.364285 9.4263,1.884418 9.419226,1.88955 9.373655,1.917727 9.319551,1.927189 9.267582,1.916067 9.215613,1.904945 9.169551,1.874048 9.138477,1.829468 9.107403,1.784888 9.093573,1.72986 9.099712,1.675234 9.105853,1.620608 9.131517,1.570348 9.171647,1.534364 9.196404,1.515304 9.657964,1.175879 10.498319,0.992971 10.101838,0.652081 9.347783,0.183631 8.529356,0.614326 8.19088,0.792835 7.987158,0.900969 7.865136,0.966948 7.863753,0.968067 7.862453,0.969292 7.861246,0.970612 8.09783,1.128556 8.319197,1.309733 8.522283,1.511639 8.541413,1.531242 8.55667,1.554525 8.567201,1.580183 8.574628,1.598877 8.75147,2.038001 8.542442,2.468697 8.402737,2.757171 8.131461,2.963172 7.738163,3.084499 7.645498,3.377739 7.359721,4.076381 6.71071,4.20614 6.685779,4.427279 6.603524,4.637292 6.47268,4.813877 6.229345,5.143771 5.83145,5.358202 5.290666,5.456804 5.237613,5.969973 4.583296,6.451251 4.194242,6.659084 3.518351,7.018669 1.963553,6.351916 1.302162,6.035951 L 0.374801,7.039196 C 0.356139,7.062255 0.333109,7.081099 0.307136,7.094562 0.281164,7.108024 0.252801,7.115819 0.223804,7.117463 0.194808,7.119107 0.165794,7.114566 0.138559,7.104121 0.111324,7.093675 0.086448,7.077547 0.06547,7.056736 0.044491,7.035925 0.027858,7.010873 0.016599,6.983131 0.00534,6.955389 -3.05e-4,6.925547 1.3e-5,6.895452 3.31e-4,6.865358 0.006606,6.835651 0.018449,6.808171 0.030292,6.780691 0.047451,6.756023 0.068864,6.735693 L 0.929025,5.802826 C 0.659164,5.56237 0.493993,5.209016 0.646077,4.832937 0.758903,4.553993 1.182971,4.04559 1.654786,3.857551 1.774003,3.812389 1.898801,3.784992 2.025448,3.776177 2.149591,3.325688 2.497617,2.653438 3.142738,2.467231 3.263344,2.033237 3.660179,1.411203 4.536256,1.341926 4.653326,0.911964 5.05405,0.332084 6.006523,0.332084 c 0.022636,0 0.045979,0 0.068968,0 C 6.584797,0.346746 7.054845,0.515358 7.444605,0.719893 7.460875,0.70743 7.479974,0.6946 7.500841,0.680672 L 7.498719,0.67554 7.534088,0.659045 c 0.14784,-0.09237 0.397541,-0.223961 0.80251,-0.437293 0.265603,-0.14217 0.560163,-0.216446 0.8591,-0.21663 0.785888,0 1.476634,0.505471 1.839161,0.902078 0.117423,-0.012463 0.238029,-0.02236 0.36571,-0.026759 0.02688,0 0.05376,0 0.07993,0 1.009063,0 1.409435,0.681414 1.515894,1.194215 0.03961,-0.0033 0.07922,-0.00586 0.117776,-0.00586 0.240753,-0.00322 0.476538,0.071061 0.674831,0.212597 0.539016,0.385977 0.656438,1.157195 0.663513,1.207413 0.02263,0 0.04562,-0.00183 0.06755,-0.00183 0.103032,-0.00115 0.205906,0.00867 0.306999,0.029323 0.182871,0.038649 0.354786,0.120147 0.502586,0.238257 0.164425,0.132503 0.291642,0.308194 0.368449,0.50884 0.07681,0.200647 0.100408,0.418939 0.06835,0.632227 -0.03995,0.291385 -0.170011,0.561482 -0.370662,0.769752 l 0.373137,1.323242 1.609265,1.001412 c 0.02401,0.014885 0.04494,0.034541 0.06159,0.057839 0.01665,0.023298 0.02869,0.049779 0.03543,0.077917 0.0067,0.028139 0.008,0.05738 0.0038,0.086043 -0.0042,0.028662 -0.01384,0.05618 -0.02834,0.08097 z M 1.035131,5.002649 C 0.933977,5.254102 1.187922,5.482829 1.342129,5.5719 2.171166,5.983534 3.145921,6.325891 3.694132,6.325891 3.798428,6.330968 3.902464,6.311285 3.998301,6.268343 4.515388,5.993432 4.866951,5.594626 4.870842,5.39449 c 0,-0.024192 0,-0.07331 -0.099386,-0.133057 L 4.654033,5.191789 C 4.088138,4.855663 2.582501,3.963117 1.804041,4.269552 1.456723,4.407374 1.109404,4.822308 1.035131,5.002649 Z M 2.463663,3.793038 c 0.882444,0.119129 1.895751,0.71917 2.400812,1.019007 L 4.979776,4.880222 C 5.04992,4.920444 5.112757,4.973039 5.165461,5.03564 6.145875,4.875824 6.28169,4.350559 6.294069,4.130263 5.688207,3.724127 4.240222,2.857606 3.495715,2.857606 2.868279,2.856505 2.575781,3.468276 2.465078,3.791938 l -0.00142,0.0011 z M 3.61137,2.423612 C 4.608761,2.503886 6.222625,3.559913 6.559332,3.785341 7.008512,3.739889 7.235931,3.235518 7.320462,2.989197 6.937421,2.695957 5.670169,1.781419 4.707086,1.775554 H 4.696121 C 4.03084,1.774454 3.737282,2.152732 3.612785,2.422512 l -0.00142,0.0011 z M 6.060991,0.774142 C 5.340181,0.74775 5.073857,1.107334 4.975532,1.356587 6.055686,1.499908 7.278727,2.406384 7.611898,2.667366 7.889187,2.58306 8.074518,2.452203 8.160817,2.276992 8.256311,2.083821 8.212101,1.873789 8.18805,1.790949 8.007671,1.615005 7.106483,0.801999 6.062405,0.772308 l -0.00141,0.001834 z" /></g><g
       transform="translate(0,0.140625)"
       id="g24"><path
         id="path26"
         style="fill:#ffffff;fill-opacity:1;fill-rule:nonzero;stroke:none"
         d="m 17.450699,8.292793 c -0.029,0.049948 -0.07595,0.08592 -0.130533,0.10001 -0.05458,0.01409 -0.112328,0.00515 -0.16055,-0.024867 L 15.479614,7.322172 c -0.04541,-0.028518 -0.07885,-0.073639 -0.09373,-0.126459 l -0.357929,-1.26826 c -0.01273,0.00587 -0.02546,0.012096 -0.03855,0.017594 L 10.009173,8.647613 C 9.971843,8.667728 9.929585,8.675891 9.88777,8.671061 9.845954,8.666231 9.806466,8.648628 9.774325,8.620488 9.762654,8.610225 8.618484,7.604781 7.6409,6.805337 7.019123,6.297301 6.434482,6.523095 6.159668,6.686942 l 1.678588,2.390266 c 0.266456,0.377636 0.622194,0.67786 1.032994,0.871793 0.410801,0.193934 0.862843,0.275051 1.312643,0.235551 l 2.581899,-0.28884 c 0.02826,-0.00317 0.05685,-4.25e-4 0.08407,0.00807 0.02722,0.0085 0.05251,0.022582 0.07438,0.041409 l 1.543834,1.334238 c 0.03934,0.03842 0.06305,0.09094 0.06629,0.146858 0.0032,0.05592 -0.01422,0.111007 -0.04883,0.154033 -0.03461,0.04303 -0.08376,0.07074 -0.137417,0.07749 -0.05366,0.0068 -0.107778,-0.008 -0.151319,-0.04116 L 12.721934,10.342526 10.224213,10.62147 C 9.618478,10.67491 9.011132,10.539885 8.47984,10.233669 L 5.061477,10.19335 3.582368,11.510726 c -0.043023,0.03451 -0.097193,0.05058 -0.15132,0.04489 C 3.376921,11.54992 3.326972,11.522899 3.291517,11.480132 3.256062,11.437366 3.23781,11.38212 3.240532,11.325807 3.243253,11.269494 3.26674,11.216414 3.30614,11.177533 L 4.84573,9.806273 C 4.884212,9.771991 4.933274,9.753135 4.98402,9.753124 H 4.9865 L 7.882471,9.78758 C 7.739003,9.650304 7.60871,9.498945 7.493414,9.335625 L 5.686792,6.762085 C 5.655571,6.717125 5.641869,6.66161 5.648426,6.606636 5.654983,6.551661 5.681315,6.501274 5.722161,6.465546 6.085749,6.145183 7.009927,5.732449 7.902273,6.460415 8.71009,7.119836 9.629669,7.918547 9.939497,8.19016 L 14.812918,5.548074 C 14.886092,5.517583 14.954785,5.47662 15.016994,5.42638 l 0.005,-0.00403 C 15.199127,5.277533 15.315558,5.06745 15.346982,4.83587 15.386595,4.542631 15.286148,4.275784 15.0704,4.102772 14.973262,4.025446 14.860416,3.972048 14.740413,3.946622 13.98565,3.78534 12.127037,4.578552 11.473782,4.899649 c -0.05093,0.024985 -0.109362,0.027976 -0.162425,0.00832 -0.05306,-0.01966 -0.09642,-0.060361 -0.120523,-0.113148 -0.02411,-0.052788 -0.027,-0.113339 -0.008,-0.168332 0.01897,-0.054993 0.05824,-0.099923 0.109177,-0.124907 0.07993,-0.039221 1.591582,-0.773785 2.737167,-0.966957 C 14.010078,3.42686 13.899729,2.894632 13.54569,2.642446 13.359652,2.509022 13.134355,2.474932 12.858481,2.538712 11.660197,2.814356 10.39931,3.279141 10.386578,3.283539 c -0.05148,0.014088 -0.10618,0.00761 -0.153261,-0.018155 -0.04708,-0.025763 -0.0831,-0.068924 -0.100906,-0.120923 -0.01781,-0.051998 -0.0161,-0.109036 0.0048,-0.159794 0.02088,-0.050759 0.0594,-0.091531 0.107924,-0.114228 C 10.257459,2.86567 11.41224,2.43974 12.577277,2.154931 12.512199,1.852895 12.27523,1.296107 11.413301,1.3203 10.140036,1.364285 9.4263,1.884418 9.419226,1.88955 9.373655,1.917727 9.319551,1.927189 9.267582,1.916067 9.215613,1.904945 9.169551,1.874048 9.138477,1.829468 9.107403,1.784888 9.093573,1.72986 9.099712,1.675234 9.105853,1.620608 9.131517,1.570348 9.171647,1.534364 9.196404,1.515304 9.657964,1.175879 10.498319,0.992971 10.101838,0.652081 9.347783,0.183631 8.529356,0.614326 8.19088,0.792835 7.987158,0.900969 7.865136,0.966948 7.863753,0.968067 7.862453,0.969292 7.861246,0.970612 8.09783,1.128556 8.319197,1.309733 8.522283,1.511639 8.541413,1.531242 8.55667,1.554525 8.567201,1.580183 8.574628,1.598877 8.75147,2.038001 8.542442,2.468697 8.402737,2.757171 8.131461,2.963172 7.738163,3.084499 7.645498,3.377739 7.359721,4.076381 6.71071,4.20614 6.685779,4.427279 6.603524,4.637292 6.47268,4.813877 6.229345,5.143771 5.83145,5.358202 5.290666,5.456804 5.237613,5.969973 4.583296,6.451251 4.194242,6.659084 3.518351,7.018669 1.963553,6.351916 1.302162,6.035951 L 0.374801,7.039196 C 0.356139,7.062255 0.333109,7.081099 0.307136,7.094562 0.281164,7.108024 0.252801,7.115819 0.223804,7.117463 0.194808,7.119107 0.165794,7.114566 0.138559,7.104121 0.111324,7.093675 0.086448,7.077547 0.06547,7.056736 0.044491,7.035925 0.027858,7.010873 0.016599,6.983131 0.00534,6.955389 -3.05e-4,6.925547 1.3e-5,6.895452 3.31e-4,6.865358 0.006606,6.835651 0.018449,6.808171 0.030292,6.780691 0.047451,6.756023 0.068864,6.735693 L 0.929025,5.802826 C 0.659164,5.56237 0.493993,5.209016 0.646077,4.832937 0.758903,4.553993 1.182971,4.04559 1.654786,3.857551 1.774003,3.812389 1.898801,3.784992 2.025448,3.776177 2.149591,3.325688 2.497617,2.653438 3.142738,2.467231 3.263344,2.033237 3.660179,1.411203 4.536256,1.341926 4.653326,0.911964 5.05405,0.332084 6.006523,0.332084 c 0.022636,0 0.045979,0 0.068968,0 C 6.584797,0.346746 7.054845,0.515358 7.444605,0.719893 7.460875,0.70743 7.479974,0.6946 7.500841,0.680672 L 7.498719,0.67554 7.534088,0.659045 c 0.14784,-0.09237 0.397541,-0.223961 0.80251,-0.437293 0.265603,-0.14217 0.560163,-0.216446 0.8591,-0.21663 0.785888,0 1.476634,0.505471 1.839161,0.902078 0.117423,-0.012463 0.238029,-0.02236 0.36571,-0.026759 0.02688,0 0.05376,0 0.07993,0 1.009063,0 1.409435,0.681414 1.515894,1.194215 0.03961,-0.0033 0.07922,-0.00586 0.117776,-0.00586 0.240753,-0.00322 0.476538,0.071061 0.674831,0.212597 0.539016,0.385977 0.656438,1.157195 0.663513,1.207413 0.02263,0 0.04562,-0.00183 0.06755,-0.00183 0.103032,-0.00115 0.205906,0.00867 0.306999,0.029323 0.182871,0.038649 0.354786,0.120147 0.502586,0.238257 0.164425,0.132503 0.291642,0.308194 0.368449,0.50884 0.07681,0.200647 0.100408,0.418939 0.06835,0.632227 -0.03995,0.291385 -0.170011,0.561482 -0.370662,0.769752 l 0.373137,1.323242 1.609265,1.001412 c 0.02401,0.014885 0.04494,0.034541 0.06159,0.057839 0.01665,0.023298 0.02869,0.049779 0.03543,0.077917 0.0067,0.028139 0.008,0.05738 0.0038,0.086043 -0.0042,0.028662 -0.01384,0.05618 -0.02834,0.08097 z M 1.035131,5.002649 C 0.933977,5.254102 1.187922,5.482829 1.342129,5.5719 2.171166,5.983534 3.145921,6.325891 3.694132,6.325891 3.798428,6.330968 3.902464,6.311285 3.998301,6.268343 4.515388,5.993432 4.866951,5.594626 4.870842,5.39449 c 0,-0.024192 0,-0.07331 -0.099386,-0.133057 L 4.654033,5.191789 C 4.088138,4.855663 2.582501,3.963117 1.804041,4.269552 1.456723,4.407374 1.109404,4.822308 1.035131,5.002649 Z M 2.463663,3.793038 c 0.882444,0.119129 1.895751,0.71917 2.400812,1.019007 L 4.979776,4.880222 C 5.04992,4.920444 5.112757,4.973039 5.165461,5.03564 6.145875,4.875824 6.28169,4.350559 6.294069,4.130263 5.688207,3.724127 4.240222,2.857606 3.495715,2.857606 2.868279,2.856505 2.575781,3.468276 2.465078,3.791938 l -0.00142,0.0011 z M 3.61137,2.423612 C 4.608761,2.503886 6.222625,3.559913 6.559332,3.785341 7.008512,3.739889 7.235931,3.235518 7.320462,2.989197 6.937421,2.695957 5.670169,1.781419 4.707086,1.775554 H 4.696121 C 4.03084,1.774454 3.737282,2.152732 3.612785,2.422512 l -0.00142,0.0011 z M 6.060991,0.774142 C 5.340181,0.74775 5.073857,1.107334 4.975532,1.356587 6.055686,1.499908 7.278727,2.406384 7.611898,2.667366 7.889187,2.58306 8.074518,2.452203 8.160817,2.276992 8.256311,2.083821 8.212101,1.873789 8.18805,1.790949 8.007671,1.615005 7.106483,0.801999 6.062405,0.772308 l -0.00141,0.001834 z" /></g></g></svg>