<svg xmlns="http://www.w3.org/2000/svg" xmlns:xlink="http://www.w3.org/1999/xlink" width="56" height="56" viewBox="0 0 56 56">
  <defs>
    <filter id="Ellipse_30" x="0" y="0" width="56" height="56" filterUnits="userSpaceOnUse">
      <feOffset dy="3" input="SourceAlpha"/>
      <feGaussianBlur stdDeviation="3" result="blur"/>
      <feFlood flood-opacity="0.161"/>
      <feComposite operator="in" in2="blur"/>
      <feComposite in="SourceGraphic"/>
    </filter>
    <filter id="cross" x="9.909" y="9.909" width="36.182" height="36.182" filterUnits="userSpaceOnUse">
      <feOffset dy="3" input="SourceAlpha"/>
      <feGaussianBlur stdDeviation="3" result="blur-2"/>
      <feFlood flood-opacity="0.161"/>
      <feComposite operator="in" in2="blur-2"/>
      <feComposite in="SourceGraphic"/>
    </filter>
  </defs>
  <g id="Group_2175" data-name="Group 2175" transform="translate(-1934.5 -2498.2)">
    <g transform="matrix(1, 0, 0, 1, 1934.5, 2498.2)" filter="url(#Ellipse_30)">
      <circle id="Ellipse_30-2" data-name="Ellipse 30" cx="19" cy="19" r="19" transform="translate(9 6)" fill="#fff"/>
    </g>
    <g transform="matrix(1, 0, 0, 1, 1934.5, 2498.2)" filter="url(#cross)">
      <path id="cross-2" data-name="cross" d="M20.587,16.535h0l-5.516-5.516L20.587,5.5h0a.569.569,0,0,0,0-.8L17.981,2.094a.57.57,0,0,0-.8,0h0L11.662,7.61,6.146,2.094h0a.57.57,0,0,0-.8,0L2.737,4.7a.57.57,0,0,0,0,.8h0l5.516,5.516L2.737,16.535h0a.569.569,0,0,0,0,.8l2.606,2.606a.57.57,0,0,0,.8,0h0l5.516-5.516,5.516,5.516h0a.569.569,0,0,0,.8,0l2.606-2.606a.569.569,0,0,0,0-.8Z" transform="translate(16.34 13.98)" fill="#202020"/>
    </g>
  </g>
</svg>
