<svg width="14" height="14" viewBox="0 0 14 14" fill="none" xmlns="http://www.w3.org/2000/svg">
    <circle cx="7" cy="7" r="6.5" stroke="#0F0F0F"/>
    <path d="m7.154 7.3.024.004c.773.187.984.46.984.89 0 .45-.281.805-1.008.86V7.3zm-.468-.777c-.672-.168-.907-.461-.907-.844 0-.379.313-.738.907-.816v1.66zm.468.113V4.859c.528.066.903.375.953.902h.68c-.027-.863-.73-1.434-1.633-1.516V3.57h-.468v.68C5.76 4.33 5.1 4.885 5.1 5.725c0 .77.523 1.203 1.496 1.437l.09.024V9.05c-.676-.074-.977-.445-1.047-.934h-.68c.027.91.797 1.461 1.727 1.543v.68h.468v-.676c.922-.07 1.688-.582 1.688-1.523 0-.82-.563-1.234-1.567-1.477l-.12-.027z" fill="#0F0F0F"/>
</svg>
