<svg xmlns="http://www.w3.org/2000/svg" width="28.605" height="28.877" viewBox="0 0 28.605 28.877">
  <g id="DATE" transform="translate(-11.497 -133.969)">
    <g id="Group_2174" data-name="Group 2174" transform="translate(11.997 134.469)">
      <path id="Subtraction_17" data-name="Subtraction 17" d="M24.832,27.877H2.7a2.825,2.825,0,0,1-1.858-.952A3.69,3.69,0,0,1,.277,26.1,2.812,2.812,0,0,1,0,25.129V4.916a2.7,2.7,0,0,1,.184-.776,2.857,2.857,0,0,1,.4-.69,3.659,3.659,0,0,1,.537-.559,3.209,3.209,0,0,1,.615-.4,3.272,3.272,0,0,1,.691-.252,3.863,3.863,0,0,1,.766-.1c.095,0,.2-.005.317-.005H4.15c.264,0,.28-.019.282-.278,0-.309,0-.627,0-.907h0V.934c0-.172,0-.34,0-.5V.41A1.544,1.544,0,0,1,4.446.173.176.176,0,0,1,4.645,0h0c.373,0,.706,0,1.017,0s.625,0,.916,0h0c.2,0,.2.134.2.264.007.26.006.522,0,.775v0c0,.171,0,.347,0,.526,0,.066,0,.124,0,.176h0v0c0,.19,0,.286.047.334s.114.048.254.048H20.378c.455,0,.455,0,.456-.458h0q0-.211,0-.433h0c0-.3,0-.61,0-.916,0-.29.032-.317.322-.317h1.677c.14,0,.214.007.256.048s.052.119.054.258c.006.3,0,.611,0,.909v.006c0,.17,0,.362,0,.552s0,.262.046.306.124.046.3.047h.518l.25,0a4.09,4.09,0,0,1,1,.137,3.1,3.1,0,0,1,1.561.985,4.038,4.038,0,0,1,.555.851A2.355,2.355,0,0,1,27.6,5.187q0,1.379,0,2.758v.329c0,5.451.007,11.088-.008,16.635a2.948,2.948,0,0,1-.112.809,2.725,2.725,0,0,1-.315.7,3.553,3.553,0,0,1-1.151,1.1,2.254,2.254,0,0,1-.571.253A3.056,3.056,0,0,1,24.832,27.877ZM2.414,10.225a.281.281,0,0,0-.207.051.273.273,0,0,0-.051.2c0,3.119,0,6.29,0,9.357v.116c0,1.5,0,3.046,0,4.568a1.093,1.093,0,0,0,1.171,1.161H24.249A1.094,1.094,0,0,0,25.425,24.5c0-1.357,0-2.737,0-4.071v-.043c0-3.243,0-6.6,0-9.9a.2.2,0,0,0-.254-.255h0c-2.535,0-5.031.006-7.351.006H9.844c-2.35,0-4.877,0-7.428-.005ZM3.429,4.38h-.04A1.1,1.1,0,0,0,2.161,5.6c0,.233,0,.475,0,.669v.015c0,.5,0,1.018-.006,1.527a.289.289,0,0,0,.05.215.285.285,0,0,0,.211.055h0c2.513,0,4.979-.006,7.27-.006H25.173l.057,0h0l.053,0a.141.141,0,0,0,.105-.033.2.2,0,0,0,.04-.149c-.007-.425-.006-.855,0-1.27V6.619h0V6.612c0-.372,0-.757,0-1.137a1.071,1.071,0,0,0-1.094-1.093c-.084,0-.173,0-.279,0h-.464c-.137,0-.249,0-.352,0h-.018a.166.166,0,0,0-.124.035.2.2,0,0,0-.036.15c0,.309,0,.62,0,.921h0v.027c0,.292,0,.593,0,.89a.2.2,0,0,1-.036.148.181.181,0,0,1-.134.037h-.009c-.294,0-.6-.006-.9-.006s-.6,0-.9.006H21.08a.2.2,0,0,1-.149-.04.21.21,0,0,1-.039-.155c0-.288,0-.577,0-.857v0c0-.305,0-.621,0-.934a.236.236,0,0,0-.042-.177.235.235,0,0,0-.174-.045h0c-2.265,0-4.643,0-7.067,0-2.166,0-4.428,0-6.721,0h0a.226.226,0,0,0-.167.043.218.218,0,0,0-.041.163c0,.307,0,.618,0,.919v.01c0,.283,0,.575,0,.863a.227.227,0,0,1-.041.168.2.2,0,0,1-.152.042H6.489c-.333-.006-.629-.009-.9-.009-.3,0-.576,0-.842.01H4.724a.217.217,0,0,1-.162-.045.265.265,0,0,1-.044-.192c0-.31,0-.623,0-.925h0c0-.283,0-.576,0-.867a.2.2,0,0,0-.036-.146.168.168,0,0,0-.125-.035h-.02c-.115,0-.24.006-.4.006H3.429Z" transform="translate(0 0)" fill="#181818" stroke="rgba(0,0,0,0)" stroke-miterlimit="10" stroke-width="1"/>
      <path id="Path_277" data-name="Path 277" d="M169.426,224.915c0-.31.005-.621,0-.931,0-.128.032-.178.168-.176q.919.009,1.839,0c.135,0,.171.044.17.174q-.009.943,0,1.885c0,.118-.029.163-.156.162q-.931-.009-1.862,0c-.124,0-.161-.04-.158-.16C169.431,225.551,169.426,225.233,169.426,224.915Z" transform="translate(-161.03 -211.289)" fill="#181818"/>
      <path id="Path_278" data-name="Path 278" d="M317.8,224.933c0,.31-.006.621,0,.931,0,.132-.038.173-.171.171-.613-.006-1.226,0-1.839,0-.112,0-.169-.02-.167-.151q.008-.954,0-1.908c0-.121.036-.162.159-.161q.931.007,1.862,0c.127,0,.157.049.155.165C317.8,224.3,317.8,224.615,317.8,224.933Z" transform="translate(-298.615 -211.295)" fill="#181818"/>
      <path id="Path_279" data-name="Path 279" d="M169.422,298.8c0-.31,0-.62,0-.929,0-.124.022-.179.163-.177.62.007,1.239.006,1.859,0,.125,0,.156.041.155.16-.005.627-.006,1.254,0,1.881,0,.139-.049.166-.175.165q-.918-.008-1.836,0c-.135,0-.171-.043-.168-.173C169.428,299.42,169.422,299.11,169.422,298.8Z" transform="translate(-161.026 -280.82)" fill="#181818"/>
      <path id="Path_280" data-name="Path 280" d="M317.789,298.8c0,.31-.005.62,0,.929,0,.128-.029.175-.166.174-.612-.007-1.224-.006-1.836,0-.124,0-.178-.022-.176-.164.008-.627.006-1.254,0-1.881,0-.118.03-.162.155-.161.62.005,1.239.006,1.859,0,.14,0,.166.052.163.176C317.784,298.18,317.789,298.49,317.789,298.8Z" transform="translate(-298.602 -280.82)" fill="#181818"/>
      <path id="Path_281" data-name="Path 281" d="M171.6,372.5c0,.31-.006.62,0,.929,0,.132-.037.175-.17.173q-.918-.009-1.836,0c-.132,0-.173-.041-.171-.173q.009-.941,0-1.881c0-.122.038-.159.159-.158q.929.008,1.859,0c.121,0,.162.035.159.158C171.593,371.864,171.6,372.182,171.6,372.5Z" transform="translate(-161.03 -350.17)" fill="#181818"/>
      <path id="Path_282" data-name="Path 282" d="M315.615,372.46c0-.3.006-.6,0-.906,0-.135.025-.19.177-.188.6.009,1.208.007,1.812,0,.135,0,.191.024.189.176q-.013.929,0,1.858c0,.15-.053.18-.189.179-.6-.006-1.193-.009-1.789,0-.173,0-.206-.063-.2-.216C315.622,373.064,315.615,372.762,315.615,372.46Z" transform="translate(-298.6 -350.149)" fill="#181818"/>
      <path id="Path_283" data-name="Path 283" d="M98.611,224.929c0,.3-.006.6,0,.906,0,.136-.026.188-.177.186-.6-.009-1.208-.007-1.813,0-.127,0-.175-.027-.173-.165.007-.627.006-1.255,0-1.882,0-.124.022-.178.164-.176q.918.012,1.836,0c.144,0,.164.059.161.179C98.607,224.294,98.611,224.611,98.611,224.929Z" transform="translate(-92.36 -211.28)" fill="#181818"/>
      <path id="Path_284" data-name="Path 284" d="M242.656,224.907c0-.31.006-.62,0-.929,0-.135.024-.19.176-.188.6.009,1.208.007,1.813,0,.129,0,.175.031.174.167q-.01.941,0,1.882c0,.127-.027.175-.165.173q-.918-.011-1.836,0c-.144,0-.163-.057-.16-.177C242.661,225.527,242.656,225.217,242.656,224.907Z" transform="translate(-229.943 -211.273)" fill="#181818"/>
      <path id="Path_285" data-name="Path 285" d="M391.014,224.929c0,.3-.006.6,0,.906,0,.136-.026.188-.177.186-.6-.009-1.208-.007-1.813,0-.127,0-.175-.027-.173-.164.007-.627.006-1.255,0-1.882,0-.123.022-.178.163-.176q.918.012,1.836,0c.144,0,.164.058.162.179C391.01,224.294,391.014,224.611,391.014,224.929Z" transform="translate(-367.524 -211.28)" fill="#181818"/>
      <path id="Path_286" data-name="Path 286" d="M98.624,298.81c0,.318,0,.636,0,.954,0,.112-.033.144-.145.144q-.942-.007-1.885,0c-.1,0-.132-.031-.131-.132q.006-.965,0-1.931c0-.112.033-.144.144-.143q.931.007,1.861,0c.122,0,.159.033.156.156C98.618,298.174,98.624,298.492,98.624,298.81Z" transform="translate(-92.372 -280.826)" fill="#181818"/>
      <path id="Path_287" data-name="Path 287" d="M243.728,299.882c-.3,0-.605-.005-.907,0-.125,0-.174-.024-.173-.163q.011-.942,0-1.884c0-.142.053-.161.175-.16.6.005,1.21.008,1.815,0,.155,0,.174.055.173.187-.006.612-.009,1.225,0,1.837,0,.165-.06.188-.2.184C244.317,299.876,244.022,299.882,243.728,299.882Z" transform="translate(-229.937 -280.804)" fill="#181818"/>
      <path id="Path_288" data-name="Path 288" d="M388.86,298.787c0-.31.006-.62,0-.93,0-.123.033-.157.156-.156q.931.009,1.861,0c.111,0,.145.031.144.143q-.007.965,0,1.931c0,.1-.03.133-.132.132q-.942-.006-1.885,0c-.111,0-.146-.032-.144-.144C388.864,299.438,388.86,299.112,388.86,298.787Z" transform="translate(-367.526 -280.826)" fill="#181818"/>
      <path id="Path_289" data-name="Path 289" d="M98.615,372.476c0,.3-.005.605,0,.908,0,.13-.014.193-.172.19q-.908-.015-1.816,0c-.154,0-.175-.053-.174-.187q.01-.919,0-1.839c0-.128.012-.193.171-.19q.908.015,1.816,0c.153,0,.179.053.175.187C98.609,371.855,98.615,372.166,98.615,372.476Z" transform="translate(-92.364 -350.141)" fill="#181818"/>
      <path id="Path_290" data-name="Path 290" d="M244.8,372.486c0,.3-.008.605,0,.908.006.148-.045.18-.184.178q-.9-.011-1.793,0c-.132,0-.19-.019-.188-.173.01-.621.009-1.241,0-1.862,0-.146.041-.181.183-.179.6.008,1.2.01,1.793,0,.162,0,.192.054.188.2C244.791,371.865,244.8,372.175,244.8,372.486Z" transform="translate(-229.927 -350.14)" fill="#181818"/>
    </g>
  </g>
</svg>
