<?xml version="1.0" encoding="UTF-8" standalone="no"?>
<svg
   xmlns:dc="http://purl.org/dc/elements/1.1/"
   xmlns:cc="http://creativecommons.org/ns#"
   xmlns:rdf="http://www.w3.org/1999/02/22-rdf-syntax-ns#"
   xmlns:svg="http://www.w3.org/2000/svg"
   xmlns="http://www.w3.org/2000/svg"
   viewBox="0 0 19.178385 20.978191"
   height="20.978191"
   width="19.178385"
   xml:space="preserve"
   id="svg2"
   version="1.1"><metadata
     id="metadata8"><rdf:RDF><cc:Work
         rdf:about=""><dc:format>image/svg+xml</dc:format><dc:type
           rdf:resource="http://purl.org/dc/dcmitype/StillImage" /></cc:Work></rdf:RDF></metadata><defs
     id="defs6" /><g
     transform="matrix(1.3333333,0,0,-1.3333333,0,20.978191)"
     id="g10"><g
       transform="translate(0.600098,-0.600098)"
       id="g12"><path
         id="path14"
         style="fill:#0f0f0f;fill-opacity:1;fill-rule:nonzero;stroke:none"
         d="m 0,12.675781 v 0.600001 H -0.6 V 12.675781 Z M 0,4.00362 h -0.6 v -0.6 H 0 Z m 8.694979,0 L 9.044058,4.491619 8.887486,4.60362 H 8.694979 Z m 3.126545,-2.236505 -0.349079,-0.488 0.949079,-0.678903 V 1.767115 Z M 5.317402,13.275782 H 0 V 12.075781 H 5.317402 Z M -0.6,12.675781 V 4.00362 h 1.2 v 8.672161 z M 0,3.40362 h 8.694979 v 1.2 H 0 Z m 8.345899,0.112 3.126546,-2.236505 0.698159,0.975999 -3.126546,2.236505 z m 4.075625,-1.748505 v 2.419074 h -1.2 V 1.767115 Z" /></g><g
       transform="translate(3.247559,8.387695)"
       id="g16"><path
         id="path18"
         style="fill:#0f0f0f;fill-opacity:1;fill-rule:nonzero;stroke:none"
         d="m 0,0.600195 h 3.948113 v 1.2 H 0 Z" /></g><g
       transform="translate(3.247559,6.33374)"
       id="g20"><path
         id="path22"
         style="fill:#0f0f0f;fill-opacity:1;fill-rule:nonzero;stroke:none"
         d="m 0,0.600195 h 5.728186 v 1.2 H 0 Z" /></g><g
       transform="translate(3.247559,4.371094)"
       id="g24"><path
         id="path26"
         style="fill:#0f0f0f;fill-opacity:1;fill-rule:nonzero;stroke:none"
         d="m 0,0.600195 h 7.143121 v 1.2 H 0 Z" /></g><g
       transform="translate(7.423828,2.094482)"
       id="g28"><path
         id="path30"
         style="fill:#0f0f0f;fill-opacity:1;fill-rule:nonzero;stroke:none"
         d="M 5.226124,3.134542 4.756492,2.761119 6.474897,0.599983 5.80838,3.279382 Z M 4.08505,7.721657 v 0.6 H 3.317511 L 3.502795,7.576818 Z m 1.916996,0 v -0.6 H 6.959871 L 6.541907,7.983478 Z m -2.578824,5.317405 0.539861,0.261821 -0.16401,0.33818 H 3.423222 Z m -2.282148,0 v 0.600001 H 0.23442 L 0.588807,12.804538 Z M 2.556008,9.707125 v -0.6 H 3.462662 L 3.108275,9.941649 Z M 0,9.707125 v 0.6 H -1.243641 L -0.469633,9.333702 Z M 5.80838,3.279382 4.667306,7.866497 3.502795,7.576818 4.643868,2.989702 Z M 4.08505,7.121657 h 1.916996 v 1.2 H 4.08505 Z M 6.541907,7.983478 3.963083,13.300883 2.883361,12.777242 5.462185,7.459836 Z M 3.423222,13.639063 H 1.141074 V 12.439062 H 3.423222 Z M 0.588807,12.804538 2.003742,9.472601 3.108275,9.941649 1.69334,13.273587 Z M 2.556008,10.307125 H 0 v -1.2 H 2.556008 Z M -0.469633,9.333702 4.756492,2.761119 5.695757,3.507966 0.469633,10.080549 Z" /></g></g></svg>