<?xml version="1.0" encoding="utf-8"?>
<!-- Generator: Adobe Illustrator 23.0.1, SVG Export Plug-In . SVG Version: 6.00 Build 0)  -->
<svg version="1.1" id="Layer_1" xmlns="http://www.w3.org/2000/svg" xmlns:xlink="http://www.w3.org/1999/xlink" x="0px" y="0px"
	 viewBox="0 0 1080 1080" style="enable-background:new 0 0 1080 1080;" xml:space="preserve">
<style type="text/css">
	.st0{fill:#0077B6;}
	.st1{fill:#90E0EF;}
</style>
<g>
	<g>
		<g>
			<path class="st0" d="M488.6,568.1c-14.4-2.9-19.5-6-19.5-11.9c0-7.4,6.6-11.6,18.2-11.6c8.7,0,16.1,3,22.5,9.2l1.1,1.1l7.3-13.8
				l-0.6-0.6c-10.8-10-24.5-11.1-29.9-11.1c-20.4,0-33.7,10.7-33.7,27.3c0,14.4,10.2,22.6,33.2,26.5c9,1.6,19.6,5,19.6,12.7
				c0,8.3-7.2,13-19.8,13c-10.2,0-20.2-4.7-27.7-12.9l-1.1-1.2l-7.6,13.6l0.5,0.6c1.3,1.5,13.2,15.1,35.6,15.1
				c21.1,0,35.3-11.5,35.3-28.7C521.9,580.6,512.2,572.7,488.6,568.1z"/>
			<polygon class="st0" points="633,530.5 612.7,530.5 579.9,568.4 579.9,530.5 564.8,530.5 564.8,623.1 579.9,623.1 579.9,585 
				614.9,623.1 635.1,623.1 592.2,575.8 			"/>
			<polygon class="st0" points="664,623.1 680.5,623.1 689.2,603.7 689.3,603.7 708.8,560.7 728,603 737.1,623.1 753.6,623.1 
				708.8,526.8 			"/>
			<polygon class="st0" points="791.5,623.1 806.7,623.1 806.7,570.7 791.5,555.4 			"/>
			<polygon class="st0" points="853.9,530.5 853.9,590.7 791.5,526.7 791.5,547.7 869.1,626.9 869.1,530.5 			"/>
		</g>
	</g>
	<g>
		<g>
			<rect x="231.6" y="502.5" class="st1" width="20.7" height="144.8"/>
		</g>
	</g>
	<g>
		<g>
			<polygon class="st1" points="434.1,506.9 434.1,530.7 414,519.2 393.3,507.3 322.8,466.8 252.3,507.3 231.6,519.2 210.9,531.1 
				210.9,507.2 322.8,443 393.3,483.5 414,495.3 			"/>
		</g>
	</g>
	<polygon class="st1" points="414,519.2 414,647.3 369,647.3 369,626.6 393.3,626.6 393.3,507.3 	"/>
	<polygon class="st0" points="322.8,488.3 372.7,517.4 372.7,541.7 352.1,541.7 352.1,529.3 322.8,512.3 293.8,529.3 293.8,626.6 
		369,626.6 369,647.3 273.1,647.3 273.1,517.5 	"/>
	<g>
		<g>
			<rect x="283.5" y="570.8" class="st0" width="85.5" height="20.7"/>
		</g>
	</g>
	<g>
		<g>
			<polygon class="st1" points="414,502.5 393.3,502.5 393.3,432.7 414,449.3 			"/>
		</g>
	</g>
</g>
</svg>
