<?xml version="1.0" encoding="UTF-8" standalone="no"?>
<!DOCTYPE svg PUBLIC "-//W3C//DTD SVG 1.1//EN" "http://www.w3.org/Graphics/SVG/1.1/DTD/svg11.dtd">
<svg xmlns="http://www.w3.org/2000/svg" xmlns:xlink="http://www.w3.org/1999/xlink" version="1.1" width="19.949952pt" height="19.949952pt" viewBox="0 0 19.949952 19.949952">
<g enable-background="new">
<path transform="matrix(1,0,0,-1,0,19.949952)" d="M 7.258297 7.258248 C 7.141019 7.375492 6.981977 7.441355 6.816146 7.441355 C 6.650314 7.441355 6.491271 7.375492 6.373993 7.258248 L 1.250784 2.135038 L 1.250784 5.597208 C 1.250784 5.763072 1.184894 5.922144 1.067611 6.039427 C .950327 6.156711 .791256 6.2226 .625392 6.2226 C .459528 6.2226 .300457 6.156711 .183173 6.039427 C .065889 5.922144 0 5.763072 0 5.597208 L 0 .625341 C 0 .459478 .065889 .300407 .183173 .183125 C .300457 .06584 .459528 -.00005 .625392 -.00005 L 5.597257 -.00005 C 5.763121 -.00005 5.922192 .06584 6.039475 .183125 C 6.156759 .300407 6.222649 .459478 6.222649 .625341 C 6.222649 .791206 6.156759 .950277 6.039475 1.067562 C 5.922192 1.184845 5.763121 1.250734 5.597257 1.250734 L 2.135088 1.250734 L 7.258297 6.373945 C 7.375541 6.491223 7.441404 6.650265 7.441404 6.816096 C 7.441404 6.981928 7.375541 7.14097 7.258297 7.258248 Z M 12.691703 12.691654 C 12.808981 12.57441 12.968023 12.508547 13.133855 12.508547 C 13.299686 12.508547 13.458728 12.57441 13.576006 12.691654 L 18.699217 17.814864 L 18.699217 14.352695 C 18.699217 14.186831 18.765107 14.02776 18.88239 13.910476 C 18.999674 13.793192 19.158745 13.727303 19.32461 13.727303 C 19.490473 13.727303 19.649544 13.793192 19.766827 13.910476 C 19.884112 14.02776 19.95 14.186831 19.95 14.352695 L 19.95 19.32456 C 19.95 19.490424 19.884112 19.649495 19.766827 19.766779 C 19.649544 19.884062 19.490473 19.949952 19.32461 19.949952 L 14.352743 19.949952 C 14.186879 19.949952 14.027807 19.884062 13.910524 19.766779 C 13.793241 19.649495 13.727351 19.490424 13.727351 19.32456 C 13.727351 19.158696 13.793241 18.999625 13.910524 18.88234 C 14.027807 18.765057 14.186879 18.699168 14.352743 18.699168 L 17.814913 18.699168 L 12.691703 13.575958 C 12.574459 13.458679 12.508596 13.299637 12.508596 13.133805 C 12.508596 12.967974 12.574459 12.808931 12.691703 12.691654 Z " fill="#adadad" fill-rule="evenodd"/>
</g>
</svg>
