<svg xmlns="http://www.w3.org/2000/svg" xmlns:xlink="http://www.w3.org/1999/xlink" width="63.635" height="57.628" viewBox="0 0 63.635 57.628">
  <defs>
    <filter id="Path_221" x="0" y="0" width="63.635" height="57.628" filterUnits="userSpaceOnUse">
      <feOffset dy="3" input="SourceAlpha"/>
      <feGaussianBlur stdDeviation="3" result="blur"/>
      <feFlood flood-opacity="0.161"/>
      <feComposite operator="in" in2="blur"/>
      <feComposite in="SourceGraphic"/>
    </filter>
  </defs>
  <g id="Football_Picks" data-name="Football Picks" transform="translate(341.942 -1700.861)">
    <g id="Group_260" data-name="Group 260" transform="translate(-332.942 1706.861)">
      <g transform="matrix(1, 0, 0, 1, -9, -6)" filter="url(#Path_221)">
        <path id="Path_221-2" data-name="Path 221" d="M-305.887,1739.849a7.531,7.531,0,0,1-2.316,4.453,7.352,7.352,0,0,1-8.236,1.547,7.415,7.415,0,0,1-4.78-6.844,1.731,1.731,0,0,1,.028-.5,1.121,1.121,0,0,1,1.154-.853,1.149,1.149,0,0,1,1.008,1.173,5.378,5.378,0,0,0,1.179,3.3,5.281,5.281,0,0,0,4.968,2.068,5.289,5.289,0,0,0,4.457-3.42c.3-.72.17-.9-.616-.9-1.436,0-2.872,0-4.309,0-.79,0-1.271-.4-1.286-1.056a1.126,1.126,0,0,1,1.268-1.14c1.559-.013,3.117,0,4.676,0h.538a5.234,5.234,0,0,0-1.6-2.876,5.443,5.443,0,0,0-7.8.261,1.248,1.248,0,0,1-1.058.53,1.029,1.029,0,0,1-.917-.661,1.1,1.1,0,0,1,.228-1.192,7.437,7.437,0,0,1,4.315-2.5,7.55,7.55,0,0,1,6.71,1.877c.065.057.131.112.253.216.028-.625.026-1.184.082-1.737a8.141,8.141,0,0,1,4.388-6.719c1.987-1.072,4.026-2.046,6.042-3.064.544-.274.593-.352.383-.923-2.521-6.854-7.376-10.919-14.641-11.742a17.1,17.1,0,0,0-18.774,14.385,16.909,16.909,0,0,0,2.911,12.62,3.3,3.3,0,0,0,2.691,1.5,1.09,1.09,0,0,1,1.155,1.146,1.119,1.119,0,0,1-1.259,1.046,5.285,5.285,0,0,1-4.177-2.142,18.527,18.527,0,0,1-3.652-9.73,18.948,18.948,0,0,1,6.848-16.556,18.4,18.4,0,0,1,10.953-4.49,19.078,19.078,0,0,1,15.486,5.781,18.688,18.688,0,0,1,4.94,8.9,1.172,1.172,0,0,1-.71,1.537c-2.26,1.143-4.525,2.276-6.784,3.42-.615.312-.635.483-.156.979,1.453,1.508,2.914,3.006,4.351,4.528a1.4,1.4,0,0,0,1.118.485c2.155-.019,4.309-.016,6.463,0a2.83,2.83,0,0,1,3.008,2.339,3.95,3.95,0,0,1-.07,1.582c-.727,3.01-1.5,6.01-2.253,9.013a1.1,1.1,0,0,1-1.258,1c-2.521,0-5.042.015-7.563,0a2.9,2.9,0,0,1-2.929-3.7c.17-.774.389-1.537.594-2.3.091-.342.026-.609-.369-.613C-302.762,1739.84-304.318,1739.849-305.887,1739.849Zm10.512,4.429c1.069,0,2.138-.009,3.206.005a.577.577,0,0,0,.672-.509c.649-2.65,1.323-5.294,1.983-7.942.18-.721-.139-1.116-.888-1.118q-2.107-.006-4.214,0a2.1,2.1,0,0,0-.463.109,1.621,1.621,0,0,0,.213.459c.783.835,1.583,1.656,2.377,2.48.074.077.148.155.221.232a1.076,1.076,0,0,1,.275,1.255,1.1,1.1,0,0,1-1.1.673c-1.619,0-3.237.009-4.855,0a.551.551,0,0,0-.642.485c-.224.933-.486,1.858-.728,2.787-.189.725.077,1.079.827,1.083C-297.452,1744.283-296.414,1744.278-295.375,1744.278Zm-10.364-6.672h10.047l.162-.2c-.837-.76-1.685-1.509-2.506-2.286a1.293,1.293,0,0,0-.971-.409c-1.038.017-2.077.012-3.115,0a1.064,1.064,0,0,1-1.153-1.09,1.065,1.065,0,0,1,1.137-1.106c.305-.008.611.01.916-.007a1.484,1.484,0,0,0,.364-.118,1.193,1.193,0,0,0-.158-.349q-1.51-1.6-3.037-3.181c-.326-.339-.547-.314-.8.073a4.644,4.644,0,0,0-.866,2.384C-305.776,1733.4-305.739,1735.491-305.739,1737.606Z" transform="translate(341.94 -1700.86)" fill="#fff"/>
      </g>
      <path id="Path_222" data-name="Path 222" d="M-299.91,1719.7a1.087,1.087,0,0,1,1.138,1.04,1.058,1.058,0,0,1-1.027,1.122,13.039,13.039,0,0,0-9.087,4.543,1.08,1.08,0,0,1-1.646.194,1.1,1.1,0,0,1,.022-1.657,15,15,0,0,1,10.484-5.234Z" transform="translate(318.473 -1715.288)" fill="#fff"/>
      <path id="Path_223" data-name="Path 223" d="M-317.588,1746.863a1.082,1.082,0,0,1,1.09-1.106,1.1,1.1,0,0,1,1.091,1.112,1.1,1.1,0,0,1-1.075,1.083A1.082,1.082,0,0,1-317.588,1746.863Z" transform="translate(322.864 -1732.391)" fill="#fff"/>
    </g>
  </g>
</svg>
