<svg width="32" height="15" viewBox="0 0 32 15" fill="none" xmlns="http://www.w3.org/2000/svg">
    <path d="M16.178 6.53a2.765 2.765 0 1 1 0-5.53 2.765 2.765 0 0 1 0 5.53zM22.604 13.6a6.416 6.416 0 0 0-6.425-6.425A6.416 6.416 0 0 0 9.754 13.6M5.387 8.798a1.892 1.892 0 1 1 0-3.784 1.892 1.892 0 0 1 0 3.784zM26.971 8.798a1.892 1.892 0 1 1 0-3.784 1.892 1.892 0 0 1 0 3.784z" stroke="#010101" stroke-miterlimit="10"/>
    <path d="M22.603 13.6a4.366 4.366 0 1 1 8.733 0H1a4.366 4.366 0 1 1 8.733 0" stroke="#010101" stroke-miterlimit="10"/>
</svg>
