<svg xmlns="http://www.w3.org/2000/svg" width="28.223" height="25.245" viewBox="0 0 28.223 25.245">
  <g id="Home" transform="translate(664.453 -829.106)">
    <g id="Group_245" data-name="Group 245" transform="translate(-664.453 829.106)">
      <path id="Path_215" data-name="Path 215" d="M-651.327,854.351c-6.868-.038-12.151-4.684-13.013-11a12.608,12.608,0,0,1,9.949-13.972,12.375,12.375,0,0,1,11.2,3.141c.041.037.081.074.119.113a.7.7,0,0,1,.041,1,.722.722,0,0,1-1.006.017,20.691,20.691,0,0,0-1.842-1.427,11.21,11.21,0,0,0-17.045,7.933,11.206,11.206,0,0,0,9.307,12.631,11.2,11.2,0,0,0,12.2-6.869c.11-.27.219-.539.528-.627a.675.675,0,0,1,.725.185.667.667,0,0,1,.114.794,21.072,21.072,0,0,1-1.332,2.519A12.29,12.29,0,0,1-651.327,854.351Z" transform="translate(664.453 -829.106)" fill="#28d8a1"/>
      <path id="Path_216" data-name="Path 216" d="M-599.406,901.453a7.086,7.086,0,0,0,5.685,6.905,7.012,7.012,0,0,0,7.8-4.1c.117-.268.237-.529.552-.6a.674.674,0,0,1,.715.219.711.711,0,0,1,.089.8,8.321,8.321,0,0,1-3.512,4.051,8.431,8.431,0,0,1-12.641-6.228,8.412,8.412,0,0,1,7.486-9.389,8.237,8.237,0,0,1,6.321,1.948.7.7,0,0,1-.066,1.219.751.751,0,0,1-.873-.175,7.012,7.012,0,0,0-3.393-1.552,7.024,7.024,0,0,0-7.963,5.413C-599.306,900.45-599.34,900.955-599.406,901.453Z" transform="translate(604.969 -888.849)" fill="#28d8a1"/>
      <path id="Path_217" data-name="Path 217" d="M-461.292,921.73c.544.339,1.073.666,1.6,1a1.314,1.314,0,0,1,.652,1.079,1.27,1.27,0,0,1-.934,1.347c-1.453.367-2.914.706-4.377,1.028a.907.907,0,0,1-.578-.159q-1.45-.871-2.877-1.781a.8.8,0,0,0-.674-.111c-1.787.43-3.578.845-5.367,1.265-.292.068-.606.083-.777-.187a1.119,1.119,0,0,1-.151-.692c.039-.3.307-.42.595-.487,1.769-.41,3.536-.834,5.307-1.237a.928.928,0,0,0,.659-.462c.565-.95,1.146-1.892,1.752-2.816a1.129,1.129,0,0,1,.6-.449c1.357-.344,2.725-.646,4.089-.964a1.281,1.281,0,0,1,1.424.5,1.3,1.3,0,0,1,.035,1.539C-460.63,920.666-460.954,921.184-461.292,921.73Zm-5.741,1.345a18.959,18.959,0,0,1,1.728,1.089,2.07,2.07,0,0,0,2.087.341c.846-.269,1.729-.423,2.664-.644-.147-.1-.231-.162-.32-.217-.5-.312-1-.622-1.506-.934-.669-.416-.737-.7-.328-1.362.372-.6.746-1.206,1.149-1.858-1.268.3-2.48.578-3.691.867a.316.316,0,0,0-.174.13C-465.958,921.34-466.487,922.2-467.033,923.075Z" transform="translate(487.26 -912.202)" fill="#28d8a1"/>
      <path id="Path_218" data-name="Path 218" d="M-532.391,965.47a4.276,4.276,0,0,1-4.42-3.984,4.222,4.222,0,0,1,3.583-4.382,4.159,4.159,0,0,1,3,.685.723.723,0,0,1,.29,1.015.721.721,0,0,1-1.064.156,2.8,2.8,0,0,0-4.327,1.649,2.8,2.8,0,0,0,1.455,3.151,2.738,2.738,0,0,0,3.393-.687c.394-.5.873-.511,1.154-.278.364.3.343.714-.081,1.2A4.081,4.081,0,0,1-532.391,965.47Z" transform="translate(545.219 -948.638)" fill="#28d8a1"/>
    </g>
  </g>
</svg>
