<svg xmlns="http://www.w3.org/2000/svg" width="21" height="26" viewBox="0 0 21 26">
  <g id="Vector_Smart_Object" data-name="Vector Smart Object" transform="translate(-332 -21)">
    <g id="Vector_Smart_Object-2" data-name="Vector Smart Object" transform="translate(328.498 20.133)">
      <g id="Layer_30" data-name="Layer 30">
        <path id="Path_12" data-name="Path 12" d="M23.621,23.4H4.374A.865.865,0,0,1,3.6,22.143,15.606,15.606,0,0,0,5.249,15.21V12.133a8.749,8.749,0,0,1,17.5,0v3.059A15.606,15.606,0,0,0,24.4,22.126a.863.863,0,0,1-.361,1.173A.886.886,0,0,1,23.621,23.4ZM5.73,21.667H22.265A17.3,17.3,0,0,1,21,15.193V12.133a7,7,0,0,0-14,0v3.059A17.3,17.3,0,0,1,5.73,21.667Z" fill="#101820"/>
        <path id="Path_13" data-name="Path 13" d="M14,26.867a4.354,4.354,0,0,1-4.374-4.333.875.875,0,0,1,1.75,0,2.589,2.589,0,0,0,.77,1.837,2.712,2.712,0,0,0,3.709,0,.884.884,0,0,1,1.242,0,.865.865,0,0,1,0,1.231A4.4,4.4,0,0,1,14,26.867Z" fill="#101820"/>
        <path id="Path_14" data-name="Path 14" d="M14,5.2a.871.871,0,0,1-.875-.867v-2.6a.875.875,0,0,1,1.75,0v2.6A.871.871,0,0,1,14,5.2Z" fill="#101820"/>
      </g>
    </g>
    <path id="Color_Overlay" data-name="Color Overlay" d="M342.5,47a4.367,4.367,0,0,1-4.288-3.467h-5.336a.865.865,0,0,1-.779-1.256,15.593,15.593,0,0,0,1.653-6.934V32.266a8.7,8.7,0,0,1,7.874-8.623V21.866a.875.875,0,0,1,1.75,0v1.777a8.7,8.7,0,0,1,7.873,8.623v3.06a15.611,15.611,0,0,0,1.653,6.933.863.863,0,0,1-.361,1.173.889.889,0,0,1-.418.1h-12.1a2.61,2.61,0,0,0,.619.971,2.712,2.712,0,0,0,3.709,0,.884.884,0,0,1,1.243,0,.864.864,0,0,1,0,1.23A4.4,4.4,0,0,1,342.5,47Zm-7-14.734v3.06a17.3,17.3,0,0,1-1.268,6.474h16.534a17.3,17.3,0,0,1-1.268-6.474v-3.06a7,7,0,0,0-14,0Z" fill="#b6cbd6"/>
  </g>
</svg>
