<svg xmlns="http://www.w3.org/2000/svg" width="4" height="17" viewBox="0 0 4 17">
  <g id="Vector_Smart_Object" data-name="Vector Smart Object" transform="translate(-8.667 -1.962)" opacity="0.149">
    <g id="menu">
      <g id="Group_5" data-name="Group 5">
        <g id="Group_2" data-name="Group 2">
          <path id="Path_21" data-name="Path 21" d="M9.333,4.577A.662.662,0,0,0,10,5.231h1.333A.662.662,0,0,0,12,4.577V3.269a.662.662,0,0,0-.667-.654H10a.662.662,0,0,0-.667.654Z"/>
          <path id="Path_22" data-name="Path 22" d="M11.333,5.885H10A1.322,1.322,0,0,1,8.667,4.577V3.269A1.322,1.322,0,0,1,10,1.962h1.333a1.322,1.322,0,0,1,1.333,1.308V4.577A1.322,1.322,0,0,1,11.333,5.885Zm0-1.308v0ZM10,3.269V4.577h1.331l0-1.308Z"/>
        </g>
        <g id="Group_3" data-name="Group 3">
          <path id="Path_23" data-name="Path 23" d="M9.333,11.115a.662.662,0,0,0,.667.654h1.333A.662.662,0,0,0,12,11.115V9.808a.662.662,0,0,0-.667-.654H10a.662.662,0,0,0-.667.654Z"/>
          <path id="Path_24" data-name="Path 24" d="M11.333,12.423H10a1.322,1.322,0,0,1-1.333-1.308V9.808A1.322,1.322,0,0,1,10,8.5h1.333a1.322,1.322,0,0,1,1.333,1.308v1.308A1.322,1.322,0,0,1,11.333,12.423Zm0-1.308v0ZM10,9.808v1.308h1.331l0-1.308Z"/>
        </g>
        <g id="Group_4" data-name="Group 4">
          <path id="Path_25" data-name="Path 25" d="M9.333,17.654a.662.662,0,0,0,.667.654h1.333A.662.662,0,0,0,12,17.654V16.346a.662.662,0,0,0-.667-.654H10a.662.662,0,0,0-.667.654Z"/>
          <path id="Path_26" data-name="Path 26" d="M11.333,18.962H10a1.322,1.322,0,0,1-1.333-1.308V16.346A1.322,1.322,0,0,1,10,15.038h1.333a1.322,1.322,0,0,1,1.333,1.308v1.308A1.322,1.322,0,0,1,11.333,18.962Zm0-1.308v0ZM10,16.346v1.308h1.331l0-1.308Z"/>
        </g>
      </g>
    </g>
  </g>
</svg>
