<svg xmlns="http://www.w3.org/2000/svg" width="28" height="28" viewBox="0 0 28 28">
  <g id="Vector_Smart_Object" data-name="Vector Smart Object" transform="translate(-45 -691)" opacity="0.2">
    <g id="Vector_Smart_Object-2" data-name="Vector Smart Object" transform="translate(43 689)">
      <g id="Group_18" data-name="Group 18">
        <path id="Path_106" data-name="Path 106" d="M30,16a4.007,4.007,0,0,0-3.307-3.94l-.347-.835A4.006,4.006,0,0,0,25.9,6.1a4.092,4.092,0,0,0-5.125-.448l-.835-.346a4,4,0,0,0-7.879,0l-.835.346a4,4,0,0,0-6.3,3.277,3.966,3.966,0,0,0,.724,2.3l-.346.834A4.006,4.006,0,0,0,2,16H2a4.007,4.007,0,0,0,3.307,3.94l.346.834A4.007,4.007,0,0,0,6.1,25.9a4.093,4.093,0,0,0,5.125.448l.835.346a4,4,0,0,0,7.879,0l.835-.347a4,4,0,0,0,5.573-5.572l.346-.834A4,4,0,0,0,30,16Zm-4,2a1,1,0,0,0-.924.617l-.808,1.948a1,1,0,0,0,.217,1.09,2,2,0,1,1-2.829,2.829,1,1,0,0,0-1.09-.217l-1.949.808A1,1,0,0,0,18,26a2,2,0,1,1-4,0,1,1,0,0,0-.617-.924l-1.95-.808a1,1,0,0,0-1.09.217,2.047,2.047,0,0,1-2.828,0,2,2,0,0,1,0-2.829,1,1,0,0,0,.217-1.09l-.808-1.948A1,1,0,0,0,6,18a2,2,0,0,1-2-2H4a2,2,0,0,1,2-2,1,1,0,0,0,.924-.617l.808-1.95a1,1,0,0,0-.217-1.09,2,2,0,1,1,2.829-2.829,1,1,0,0,0,1.09.217l1.949-.808A1,1,0,0,0,14,6a2,2,0,0,1,4,0,1,1,0,0,0,.617.924l1.95.808a1,1,0,0,0,1.09-.217,2.047,2.047,0,0,1,2.828,0,2,2,0,0,1,0,2.829,1,1,0,0,0-.217,1.09l.808,1.95A1,1,0,0,0,26,14a2,2,0,0,1,2,2h0A2,2,0,0,1,26,18Z"/>
        <path id="Path_107" data-name="Path 107" d="M16,11a5,5,0,0,0,0,10,1,1,0,0,0,0-2,3,3,0,1,1,2.519-1.368A1,1,0,0,0,20.2,18.72,5,5,0,0,0,16,11Z"/>
      </g>
    </g>
    <path id="Color_Overlay" data-name="Color Overlay" d="M55.061,715.694l-.835-.346A4.092,4.092,0,0,1,49.1,714.9a4.008,4.008,0,0,1-.448-5.125l-.346-.833a4,4,0,0,1,0-7.88l.346-.834A4,4,0,0,1,49.1,695.1a4.007,4.007,0,0,1,5.124-.448l.835-.346a4,4,0,0,1,7.879,0l.835.346a4.092,4.092,0,0,1,5.125.448,4.006,4.006,0,0,1,.446,5.124l.347.835a4,4,0,0,1,0,7.88l-.346.833a4,4,0,0,1-5.574,5.572l-.834.347a4,4,0,0,1-7.88,0Zm-.628-2.424,1.95.807A1,1,0,0,1,57,715a2,2,0,1,0,4,0,1,1,0,0,1,.617-.924l1.948-.807a1,1,0,0,1,1.09.217,2,2,0,0,0,2.83-2.83,1,1,0,0,1-.218-1.09l.808-1.948A1,1,0,0,1,69,707a2,2,0,0,0,0-4,1,1,0,0,1-.924-.616l-.808-1.95a1,1,0,0,1,.218-1.09,2,2,0,0,0,0-2.829,2.047,2.047,0,0,0-2.829,0,1,1,0,0,1-1.09.217l-1.949-.808A1,1,0,0,1,61,695a2,2,0,1,0-4,0,1,1,0,0,1-.617.923l-1.949.808a1,1,0,0,1-1.09-.217,2,2,0,1,0-2.829,2.829,1,1,0,0,1,.217,1.09l-.808,1.95A1,1,0,0,1,49,703a2,2,0,1,0,0,4,1,1,0,0,1,.923.617l.808,1.948a1,1,0,0,1-.217,1.09,2,2,0,0,0,0,2.83,2.046,2.046,0,0,0,2.828,0,1,1,0,0,1,1.09-.217ZM54,705a5,5,0,1,1,9.2,2.72,1,1,0,1,1-1.678-1.088A3,3,0,1,0,59,708a1,1,0,0,1,0,2A5.005,5.005,0,0,1,54,705Z" fill="#46a8de"/>
  </g>
</svg>
