<svg xmlns="http://www.w3.org/2000/svg" xmlns:xlink="http://www.w3.org/1999/xlink" width="33.985" height="30" viewBox="0 0 33.985 30">
  <defs>
    <linearGradient id="linear-gradient" x1="0.5" x2="0.5" y2="1" gradientUnits="objectBoundingBox">
      <stop offset="0" stop-color="#b72e03"/>
      <stop offset="1" stop-color="#e80000"/>
    </linearGradient>
  </defs>
  <g id="loose" transform="translate(-707.228 -357.981)">
    <g id="Group_148" data-name="Group 148" transform="translate(707.228 357.981)">
      <path id="Path_177" data-name="Path 177" d="M739.157,379.012a3.88,3.88,0,0,1-3.1,2.2.789.789,0,0,0-.776.863.772.772,0,0,0,.939.668,5.379,5.379,0,0,0,4.655-4.006.742.742,0,0,0-.518-1,5.757,5.757,0,0,0-1.442-.289c-.675-.016-1.352.085-2.039.137,0,.019-.011-.018,0-.048a14.985,14.985,0,0,0,.5-3.64,3.511,3.511,0,0,1,2.246-2.869.832.832,0,0,1,.039.169,4.192,4.192,0,0,1,0,.469,3.873,3.873,0,0,1-1.514,2.809.777.777,0,0,0-.2,1.138.767.767,0,0,0,1.151.071A5.391,5.391,0,0,0,741,369.9a.757.757,0,0,0-1.005-.617,5.94,5.94,0,0,0-1.447.535,18.006,18.006,0,0,0-1.615,1.18,1.075,1.075,0,0,1-.057-.146,12.388,12.388,0,0,0-1.42-3.15,3.66,3.66,0,0,1-.529-2.456,3.31,3.31,0,0,1,.777-1.8c.068.1.114.15.149.211a3.833,3.833,0,0,1,.254,3.568.773.773,0,1,0,1.426.58,5.4,5.4,0,0,0-1.2-6,.775.775,0,0,0-1.182-.034,5.154,5.154,0,0,0-1.6,2.527c-.082.293-.135.6-.211.936a16.6,16.6,0,0,0-3.1-2.045,3.506,3.506,0,0,1-1.721-3.47c.135.062.267.112.39.181a3.819,3.819,0,0,1,1.981,2.743.774.774,0,1,0,1.515-.275,5.384,5.384,0,0,0-4.276-4.369.784.784,0,0,0-1.007.626,5.212,5.212,0,0,0,1.173,4.951,7.7,7.7,0,0,0,2.086,1.46,10.453,10.453,0,0,1-3.887,19.541.76.76,0,0,0-.683.508c-.221.6.27,1.1.98,1.012a14.77,14.77,0,0,0,3.606-1,3.623,3.623,0,0,1,3.873.7,1.609,1.609,0,0,1,.178.21,1.58,1.58,0,0,1-.153.088,3.877,3.877,0,0,1-3.635-.259.772.772,0,1,0-.786,1.32,5.4,5.4,0,0,0,6.135-.3.739.739,0,0,0,.189-1.133,8.371,8.371,0,0,0-1.367-1.421,12.286,12.286,0,0,0-1.732-.939.2.2,0,0,1,.05-.058,12.692,12.692,0,0,0,2.442-2.84,3.2,3.2,0,0,1,1.4-1.161A3.615,3.615,0,0,1,739.157,379.012Zm-29.839.057c.032-.044.037-.06.046-.063a.372.372,0,0,1,.1-.03,3.62,3.62,0,0,1,3.413,1.553c.167.235.307.493.493.711.641.747,1.3,1.482,1.946,2.218-.021.008-.1.038-.175.063a5.256,5.256,0,0,0-2.87,2.134.8.8,0,0,0,.23,1.265,5.333,5.333,0,0,0,4.03,1,5.155,5.155,0,0,0,2.049-.765.77.77,0,1,0-.77-1.331c-.106.056-.209.121-.316.175a3.875,3.875,0,0,1-3.524.031,1.16,1.16,0,0,1,.105-.141,3.542,3.542,0,0,1,2.973-1.016,14.179,14.179,0,0,1,1.652.487c1.01.266,2.02.532,3.041.749a.751.751,0,0,0,.927-.684.777.777,0,0,0-.724-.834c-.083-.014-.166-.03-.25-.042A10.459,10.459,0,0,1,714.675,368a10.532,10.532,0,0,1,4.005-3.294,5.218,5.218,0,0,0,2.633-6.065.786.786,0,0,0-.9-.648A5.459,5.459,0,0,0,716,362.518a.767.767,0,0,0,.593.833.754.754,0,0,0,.895-.487,3.407,3.407,0,0,0,.081-.352,3.862,3.862,0,0,1,2.344-2.789,3.72,3.72,0,0,1-1.989,3.659c-.848.445-1.63,1.016-2.438,1.536-.135.087-.254.2-.415.33a5.32,5.32,0,0,0-1.785-3.467.772.772,0,0,0-1.182.034,5.393,5.393,0,0,0-1.2,6,.776.776,0,0,0,1.049.487.8.8,0,0,0,.384-1.068,6.071,6.071,0,0,1-.3-1.147,3.673,3.673,0,0,1,.69-2.625,3.715,3.715,0,0,1,.336,4.128c-.46.815-.852,1.67-1.251,2.518a10.04,10.04,0,0,0-.355,1.056,2.254,2.254,0,0,0-.172-.267,5.2,5.2,0,0,0-2.77-1.6.8.8,0,0,0-1.084.648,5.148,5.148,0,0,0-.135,2.219,5.333,5.333,0,0,0,2.089,3.511.757.757,0,0,0,1.184-.277.774.774,0,0,0-.3-.984,3.657,3.657,0,0,1-1.339-2.007,12.928,12.928,0,0,1-.192-1.412,3.652,3.652,0,0,1,2.337,3.112c.048.875.172,1.747.283,2.618a9.571,9.571,0,0,0,.222.959l-.409-.1a5.241,5.241,0,0,0-3.092.15.764.764,0,0,0-.524,1,5.383,5.383,0,0,0,4.616,4.007c.552.058.928-.194.98-.659s-.273-.778-.806-.879a5.507,5.507,0,0,1-1.272-.374A3.563,3.563,0,0,1,709.318,379.069Zm11.566-4.906a3.145,3.145,0,0,0-2.063,1.28,5.271,5.271,0,0,0-.9,2.71.767.767,0,0,0,.7.916c.453.035.742-.289.838-.8a9.513,9.513,0,0,1,.446-1.626,1.468,1.468,0,0,1,1.164-.929c.556-.1,1.113-.2,1.673-.286a.82.82,0,0,0,.8-.654.8.8,0,0,0-.51-.865,2.743,2.743,0,0,1-1.256-3.638,2.937,2.937,0,0,1,3.666-1.392,2.727,2.727,0,0,1,.217,4.959c-.55.294-.73.53-.649.951.1.5.478.6.909.667.534.086,1.062.212,1.588.339a1.489,1.489,0,0,1,1.127.975,10.543,10.543,0,0,1,.414,1.561c.093.519.372.827.841.8s.729-.372.7-.913a5.681,5.681,0,0,0-.634-2.28,3.1,3.1,0,0,0-1.916-1.6c-.118-.037-.235-.077-.363-.118a4.329,4.329,0,0,0-.377-5.982,4.5,4.5,0,0,0-5.7-.152A4.368,4.368,0,0,0,720.884,374.163Z" transform="translate(-707.228 -357.981)" fill="url(#linear-gradient)"/>
    </g>
  </g>
</svg>
