<svg xmlns="http://www.w3.org/2000/svg" xmlns:xlink="http://www.w3.org/1999/xlink" width="57.5" height="57.485" viewBox="0 0 57.5 57.485">
  <defs>
    <filter id="Path_227" x="0" y="0" width="57.5" height="57.485" filterUnits="userSpaceOnUse">
      <feOffset dy="3" input="SourceAlpha"/>
      <feGaussianBlur stdDeviation="3" result="blur"/>
      <feFlood flood-opacity="0.161"/>
      <feComposite operator="in" in2="blur"/>
      <feComposite in="SourceGraphic"/>
    </filter>
    <filter id="Path_228" x="16.831" y="0.065" width="30.67" height="30.68" filterUnits="userSpaceOnUse">
      <feOffset dy="3" input="SourceAlpha"/>
      <feGaussianBlur stdDeviation="3" result="blur-2"/>
      <feFlood flood-opacity="0.161"/>
      <feComposite operator="in" in2="blur-2"/>
      <feComposite in="SourceGraphic"/>
    </filter>
  </defs>
  <g id="MLB_Picks" data-name="MLB Picks" transform="translate(-649.337 -1906.252)">
    <g id="Group_269" data-name="Group 269" transform="translate(658.337 1912.252)">
      <g transform="matrix(1, 0, 0, 1, -9, -6)" filter="url(#Path_227)">
        <path id="Path_227-2" data-name="Path 227" d="M-790.581,1946c-.277-.269-.555-.525-.818-.8a.927.927,0,0,1-.077-1.366.947.947,0,0,1,1.4.051c.27.266.519.555.755.809l5.631-4.892c-.52-.511-1.056-1.03-1.583-1.558a.941.941,0,0,1-.113-1.43.96.96,0,0,1,1.433.105c.59.586,1.172,1.18,1.773,1.786.7-.506,1.359-.983,2.017-1.465,2.042-1.5,4.174-2.884,6.1-4.519,2.215-1.883,4.275-3.953,6.347-6,1.969-1.942,3.866-3.957,5.8-5.939a2.72,2.72,0,0,0,.714-2.94,2.382,2.382,0,0,0-.531-.839c-.674-.712-1.424-1.355-2.063-2.1a2.716,2.716,0,0,0-3.628-.168c-.078.066-.15.14-.232.2a.939.939,0,0,1-1.3-.1.946.946,0,0,1,.08-1.306,4.6,4.6,0,0,1,5.2-.828,4.408,4.408,0,0,1,1.026.732c.724.682,1.381,1.438,2.127,2.095a4.512,4.512,0,0,1,.2,6.264c-1.37,1.5-2.789,2.964-4.233,4.4-2.536,2.514-5.015,5.1-7.7,7.448-2.1,1.846-4.456,3.415-6.734,5.056a79.936,79.936,0,0,0-10.508,8.9,1.541,1.541,0,0,0-.49,1.2,2.775,2.775,0,0,1-4.156,2.567,10.149,10.149,0,0,1-4.142-4.123,2.785,2.785,0,0,1,2.574-4.184,1.5,1.5,0,0,0,1.167-.471,87.681,87.681,0,0,0,10.536-12.788c1.018-1.447,2.111-2.841,3.189-4.244a.93.93,0,0,1,1.479-.121.91.91,0,0,1,.04,1.207c-2.793,3.739-5.516,7.532-8.415,11.186-1.733,2.183-3.738,4.15-5.635,6.2a2.756,2.756,0,0,1-2.334.894.958.958,0,0,0-.949.425.935.935,0,0,0,.01,1.037,8.647,8.647,0,0,0,3.355,3.323.908.908,0,0,0,1.418-.813,3.182,3.182,0,0,1,1.136-2.724A1.455,1.455,0,0,0-790.581,1946Z" transform="translate(807.66 -1906.25)" fill="#fff"/>
      </g>
      <g transform="matrix(1, 0, 0, 1, -9, -6)" filter="url(#Path_228)">
        <path id="Path_228-2" data-name="Path 228" d="M-742.445,1925.126a6.335,6.335,0,0,1-6.346-6.317,6.343,6.343,0,0,1,6.3-6.363,6.34,6.34,0,0,1,6.368,6.341A6.335,6.335,0,0,1-742.445,1925.126Zm-.016-1.876a4.475,4.475,0,0,0,4.476-4.459,4.491,4.491,0,0,0-4.468-4.475,4.494,4.494,0,0,0-4.476,4.466A4.477,4.477,0,0,0-742.461,1923.25Z" transform="translate(774.62 -1906.38)" fill="#fff"/>
      </g>
    </g>
  </g>
</svg>
