<svg xmlns="http://www.w3.org/2000/svg" xmlns:xlink="http://www.w3.org/1999/xlink" width="49.079" height="57.628" viewBox="0 0 49.079 57.628">
  <defs>
    <filter id="Path_224" x="0" y="0" width="27.69" height="57.628" filterUnits="userSpaceOnUse">
      <feOffset dy="3" input="SourceAlpha"/>
      <feGaussianBlur stdDeviation="3" result="blur"/>
      <feFlood flood-opacity="0.161"/>
      <feComposite operator="in" in2="blur"/>
      <feComposite in="SourceGraphic"/>
    </filter>
    <filter id="Path_225" x="12.376" y="28.303" width="36.703" height="29.322" filterUnits="userSpaceOnUse">
      <feOffset dy="3" input="SourceAlpha"/>
      <feGaussianBlur stdDeviation="3" result="blur-2"/>
      <feFlood flood-opacity="0.161"/>
      <feComposite operator="in" in2="blur-2"/>
      <feComposite in="SourceGraphic"/>
    </filter>
  </defs>
  <g id="NBA_Picks" data-name="NBA Picks" transform="translate(798.078 -1710.998)">
    <g id="Group_265" data-name="Group 265" transform="translate(-789.078 1716.998)">
      <g transform="matrix(1, 0, 0, 1, -9, -6)" filter="url(#Path_224)">
        <path id="Path_224-2" data-name="Path 224" d="M-784.053,1742.165c.619,0,1.18,0,1.742,0a2.771,2.771,0,0,1,2.568,1.522,2.7,2.7,0,0,1-.173,2.94c-1.3,1.968-2.624,3.92-3.922,5.889a1.547,1.547,0,0,0-.206.686c-.039.416.017.844-.044,1.255a2.506,2.506,0,0,1-2.66,2.161,2.528,2.528,0,0,1-2.326-2.564q-.009-4.64,0-9.279,0-12.542,0-25.085a2.548,2.548,0,0,1,1.894-2.615,2.506,2.506,0,0,1,3.125,2.468c.011,3.08,0,6.16,0,9.24q0,6.467,0,12.936Zm-1.875-5.317q0-8.417,0-16.833c0-.17.007-.341,0-.511a.631.631,0,0,0-.621-.634.639.639,0,0,0-.645.652c-.007.118,0,.236,0,.354q0,16.971,0,33.942c0,.63.212.935.644.928s.628-.3.628-.947Q-785.927,1745.324-785.928,1736.849Zm1.9,7.2v5.331c.113-.15.185-.236.247-.329q.834-1.24,1.664-2.482c.24-.359.5-.709.712-1.084a.938.938,0,0,0-.737-1.429C-782.757,1744.019-783.374,1744.044-784.03,1744.044Z" transform="translate(798.08 -1711)" fill="#fff"/>
      </g>
      <g transform="matrix(1, 0, 0, 1, -9, -6)" filter="url(#Path_225)">
        <path id="Path_225-2" data-name="Path 225" d="M-748.755,1801.041l2.488-2.511c-.059-.064-.146-.158-.232-.253a.893.893,0,0,1,.02-1.3.879.879,0,0,1,1.3.017c.762.74,1.508,1.5,2.258,2.246.591.592,1.179,1.188,1.789,1.8.133-.123.238-.215.338-.314q1.614-1.612,3.226-3.226c.138-.138.264-.289.388-.441a.92.92,0,0,1,1.053-.316.9.9,0,0,1,.6.918,2.154,2.154,0,0,1-.11.535,29.124,29.124,0,0,0-1.392,8.734c0,.663-.372,1.078-.937,1.077a.905.905,0,0,1-.919-1.077,1.847,1.847,0,0,0-.737-1.8c-.521-.432-.966-.957-1.471-1.468-.127.12-.232.212-.331.311q-1.823,1.82-3.643,3.643a.984.984,0,0,1-.94.369.918.918,0,0,1-.507-1.531c.084-.1.178-.192.255-.275l-2.491-2.427c-.64.637-1.347,1.334-2.04,2.045a.581.581,0,0,0-.1.358c-.01.275.013.551.01.825a.943.943,0,0,1-.948,1.027.933.933,0,0,1-.923-1.012,27.667,27.667,0,0,0-.559-5.621c-.246-1.15-.575-2.283-.875-3.422a.928.928,0,0,1,.993-1.255.882.882,0,0,1,.8.713q.579,2.323,1.124,4.652c.1.416.136.844.2,1.235l1-1.034c-.063-.065-.206-.21-.347-.358a.918.918,0,0,1-.038-1.333.908.908,0,0,1,1.332.019A4.629,4.629,0,0,1-748.755,1801.041Zm3.83,3.678,2.363-2.333-2.32-2.375-2.382,2.352Zm6.205-1.382.362-2.335-1.374,1.381Z" transform="translate(775.61 -1762.38)" fill="#fff"/>
      </g>
      <path id="Path_226" data-name="Path 226" d="M-747.927,1789.729q-4.974,0-9.948,0a.942.942,0,0,1-.98-1.327.98.98,0,0,1,1-.549q3.146.007,6.291,0,6.724,0,13.448,0a2.056,2.056,0,0,1,.542.058.9.9,0,0,1,.641.887.885.885,0,0,1-.624.86,2.117,2.117,0,0,1-.581.064Q-743.031,1789.732-747.927,1789.729Z" transform="translate(769.65 -1762.688)" fill="#fff"/>
    </g>
  </g>
</svg>
