<svg xmlns="http://www.w3.org/2000/svg" xmlns:xlink="http://www.w3.org/1999/xlink" width="57.59" height="57.628" viewBox="0 0 57.59 57.628">
  <defs>
    <filter id="Path_231" x="0" y="0" width="57.59" height="57.628" filterUnits="userSpaceOnUse">
      <feOffset dy="3" input="SourceAlpha"/>
      <feGaussianBlur stdDeviation="3" result="blur"/>
      <feFlood flood-opacity="0.161"/>
      <feComposite operator="in" in2="blur"/>
      <feComposite in="SourceGraphic"/>
    </filter>
  </defs>
  <g id="NCAAB_Picks" data-name="NCAAB Picks" transform="translate(469.084 -1891.68)">
    <g id="Group_280" data-name="Group 280" transform="translate(-460.084 1897.68)">
      <g id="Group_279" data-name="Group 279">
        <g transform="matrix(1, 0, 0, 1, -9, -6)" filter="url(#Path_231)">
          <path id="Path_231-2" data-name="Path 231" d="M-426.209,1903.53a19.658,19.658,0,0,0-6.435-4.334,19.954,19.954,0,0,0-7.655-1.515,19.762,19.762,0,0,0-13.85,5.653,19.708,19.708,0,0,0-5.933,13.98,19.826,19.826,0,0,0,19.576,19.99c.087,0,.174,0,.262,0a19.644,19.644,0,0,0,13.839-5.643,19.591,19.591,0,0,0,5.911-13.948A19.756,19.756,0,0,0-426.209,1903.53Zm-14.5,6.9a14.3,14.3,0,0,1,1.777-5.123c.142-.272.283-.545.429-.814.262-.494.534-1.007.781-1.522.24-.494.447-.992.669-1.519.047-.105.091-.211.138-.32a16.288,16.288,0,0,1,4.149,1.439,16.471,16.471,0,0,1,5.89,4.97,92.173,92.173,0,0,0-13.617,5.493A6.765,6.765,0,0,1-440.706,1910.425Zm.959-9.643c-.585,1.177-1.13,2.256-1.668,3.3a19.653,19.653,0,0,0-1.886,4.9,9.86,9.86,0,0,0,.32,5.363l-3.085,1.846a65.97,65.97,0,0,1-4.309-12.03A16.776,16.776,0,0,1-439.747,1900.783Zm-12.92,5.486a67.657,67.657,0,0,0,4.28,11.478l-2.26,1.689a14.238,14.238,0,0,0-3.4-2.906c-.756-.454-1.548-.854-2.311-1.243l-.461-.236A16.762,16.762,0,0,1-452.667,1906.269Zm-3.026,17.7a16.585,16.585,0,0,1-1.3-5.951,13.555,13.555,0,0,1,4.2,3.172Zm5.922,7.288a16.657,16.657,0,0,1-4.571-4.723l3.106-3.023A16.49,16.49,0,0,1-449.771,1931.258ZM-437,1933.9a16.832,16.832,0,0,1-10.075-1.115s0,0-.007,0v0a23.5,23.5,0,0,0-.451-7.059,15.213,15.213,0,0,0-1.53-4.008l1.958-1.471a57.822,57.822,0,0,0,10.286,13.625C-436.877,1933.871-436.935,1933.885-437,1933.9Zm9.8-6a16.84,16.84,0,0,1-6.616,5.021,55.733,55.733,0,0,1-10.994-14.25l3.1-1.871a12.389,12.389,0,0,0,6.271,4.131c1.242.418,2.521.781,3.757,1.137.912.261,1.857.534,2.776.821s1.868.654,2.776,1.006l.69.265a2.788,2.788,0,0,1,.389.2A16.379,16.379,0,0,1-427.194,1927.9Zm3-6.213a28.144,28.144,0,0,0-4.625-1.653l-.93-.273c-1.882-.559-3.829-1.137-5.7-1.806a8.8,8.8,0,0,1-3.75-2.474,88.853,88.853,0,0,1,13.835-5.515,16.59,16.59,0,0,1,1.246,11.761C-424.142,1921.71-424.168,1921.7-424.193,1921.685Z" transform="translate(469.08 -1891.68)" fill="#fff"/>
        </g>
      </g>
    </g>
  </g>
</svg>
