<svg xmlns="http://www.w3.org/2000/svg" xmlns:xlink="http://www.w3.org/1999/xlink" width="56" height="54.1" viewBox="0 0 56 54.1">
  <defs>
    <filter id="Path_229" x="0" y="0" width="56" height="49.336" filterUnits="userSpaceOnUse">
      <feOffset dy="3" input="SourceAlpha"/>
      <feGaussianBlur stdDeviation="3" result="blur"/>
      <feFlood flood-opacity="0.161"/>
      <feComposite operator="in" in2="blur"/>
      <feComposite in="SourceGraphic"/>
    </filter>
    <filter id="Path_230" x="10.788" y="26.902" width="32.865" height="27.198" filterUnits="userSpaceOnUse">
      <feOffset dy="3" input="SourceAlpha"/>
      <feGaussianBlur stdDeviation="3" result="blur-2"/>
      <feFlood flood-opacity="0.161"/>
      <feComposite operator="in" in2="blur-2"/>
      <feComposite in="SourceGraphic"/>
    </filter>
  </defs>
  <g id="NHL_Picks" data-name="NHL Picks" transform="translate(9 6)">
    <g id="Group_273" data-name="Group 273" transform="translate(0 0)">
      <g transform="matrix(1, 0, 0, 1, -9, -6)" filter="url(#Path_229)">
        <path id="Path_229-2" data-name="Path 229" d="M-572.51,1902.045l-4.833,9.2-1.424-.7,4.842-9.219-1.716-.906-.249.459c-.068.12-.129.236-.191.35q-1.379,2.626-2.758,5.257c-2.256,4.308-4.593,8.766-6.927,13.125a6.1,6.1,0,0,1-5.292,3.4,82.222,82.222,0,0,1-10.928-.288c-.275-.02-.547-.048-.822-.074-.673-.065-1.376-.13-2.062-.13a3.517,3.517,0,0,0-3.628,3.383c-.052.57-.11,1.172-.21,1.754a3.465,3.465,0,0,0,.638,2.8,3.632,3.632,0,0,0,2.735,1.262c.612.029,1.23.039,1.845.039.654,0,1.308-.01,1.949-.023q.758-.014,1.515-.019a3.005,3.005,0,0,0,.46-.052l.194-.029.3-.039-.107-1.509h-.324l.324-.022-.019-.3h-.835l-1.573.01c-1.188.01-2.415.02-3.622,0a1.637,1.637,0,0,1-1.24-.45,1.653,1.653,0,0,1-.317-1.308c.039-.411.094-.832.149-1.24.032-.265.068-.531.1-.8a1.521,1.521,0,0,1,1.534-1.5,7.555,7.555,0,0,1,1.075.042q.248.024.5.039c.715.042,1.434.087,2.149.133,1.615.107,3.282.214,4.927.265l.4.01a39.591,39.591,0,0,0,5.506-.081,8.244,8.244,0,0,0,6.412-4.347c.246-.427.469-.858.706-1.314.062-.117.123-.237.184-.356l1.457.712-3.69,6.739,1.615,1.1.172-.311c2.641-4.732,5.172-9.591,7.623-14.287,1.641-3.143,3.334-6.393,5.046-9.572l.152-.288Zm-7.982,11.782.812-1.55.165.081c.434.21.851.411,1.266.615l-.816,1.554Zm-.311,4.008-1.431-.7.829-1.577,1.427.7Z" transform="translate(617.77 -1894.42)" fill="#fff"/>
      </g>
    </g>
    <g id="Group_274" data-name="Group 274" transform="translate(10.788 26.902)">
      <g transform="matrix(1, 0, 0, 1, -19.79, -32.9)" filter="url(#Path_230)">
        <path id="Path_230-2" data-name="Path 230" d="M-560.59,1988.672c0-.074,0-.146,0-.217l0-.324v-.553c0-.4-.007-.822.006-1.23a1.7,1.7,0,0,0-.987-1.687,8.069,8.069,0,0,0-1.741-.637,22.912,22.912,0,0,0-8.665-.152,11.634,11.634,0,0,0-2.363.728,1.7,1.7,0,0,0-1.107,1.673l.006.864c.007.9.016,1.839,0,2.758a1.784,1.784,0,0,0,1.081,1.768,7.9,7.9,0,0,0,1.622.569,21.069,21.069,0,0,0,4.616.5,25.189,25.189,0,0,0,3.512-.256,14.963,14.963,0,0,0,2.894-.8,1.7,1.7,0,0,0,1.13-1.816C-560.6,1989.468-560.6,1989.064-560.59,1988.672Zm-1.974,1.24a.472.472,0,0,1-.162.1c-.2.049-.395.1-.6.156a14.2,14.2,0,0,1-2.055.443,21.444,21.444,0,0,1-6.72-.23c-.7-.142-1.113-.227-1.246-.388s-.133-.589-.136-1.295v-.744a22.99,22.99,0,0,0,10.931,0v.191C-562.544,1988.73-562.541,1989.329-562.564,1989.911Zm-.609-3.836a20.82,20.82,0,0,1-9.682,0A20.941,20.941,0,0,1-563.172,1986.076Z" transform="translate(595.23 -1950.63)" fill="#fff"/>
      </g>
    </g>
  </g>
</svg>
