<svg xmlns="http://www.w3.org/2000/svg" xmlns:xlink="http://www.w3.org/1999/xlink" width="74.802" height="56.377" viewBox="0 0 74.802 56.377">
  <defs>
    <filter id="Path_232" x="0" y="0" width="74.802" height="56.377" filterUnits="userSpaceOnUse">
      <feOffset dy="3" input="SourceAlpha"/>
      <feGaussianBlur stdDeviation="3" result="blur"/>
      <feFlood flood-opacity="0.161"/>
      <feComposite operator="in" in2="blur"/>
      <feComposite in="SourceGraphic"/>
    </filter>
  </defs>
  <g id="Others" transform="translate(501.282 -2083.376)">
    <g id="Group_284" data-name="Group 284" transform="translate(-492.282 2089.376)">
      <g transform="matrix(1, 0, 0, 1, -9, -6)" filter="url(#Path_232)">
        <path id="Path_232-2" data-name="Path 232" d="M-463.881,2089.376h26.988c1.175,0,1.413.233,1.413,1.387v35.589c0,1.165-.237,1.4-1.4,1.4h-53.976c-1.188,0-1.424-.239-1.424-1.446q0-17.766,0-35.531c0-1.152.251-1.4,1.412-1.4Zm-26.512,7.082h.736q4.508,0,9.015,0c.933,0,1.227.3,1.227,1.222q0,11.5,0,23c0,.973-.277,1.254-1.249,1.255q-4.508,0-9.015,0h-.712v3.924h25.542a1.326,1.326,0,0,0,.053-.248c0-2.751,0-5.5.013-8.253,0-.4-.244-.423-.516-.472a8.459,8.459,0,0,1-7.043-8.169,8.489,8.489,0,0,1,6.557-8.4c.318-.076.64-.134.959-.2v-8.863h-25.568Zm53.043,25.458h-9.944c-1,0-1.285-.285-1.285-1.288q0-11.445,0-22.89c0-1.034.29-1.323,1.324-1.323h9.882v-5.151h-25.537v8.858c.2.046.369.094.54.124a8.464,8.464,0,0,1,6.959,8.3,8.442,8.442,0,0,1-6.983,8.331c-.441.075-.559.247-.556.679.019,2.576.008,5.152.01,7.728,0,.188.022.376.035.569h25.555Zm-9.334-23.63v21.731h9.073v-3.462h-.677c-1.366,0-2.732.007-4.1,0-.752-.006-1.07-.327-1.071-1.072q-.008-6.322,0-12.644c0-.776.315-1.1,1.107-1.1,1.346-.014,2.693,0,4.039,0h.695v-3.442Zm-43.706,3.48h.66c1.365,0,2.731,0,4.1,0,.79,0,1.1.3,1.11,1.092.012,1.033,0,2.067,0,3.1q0,4.651,0,9.3c0,1.082-.256,1.331-1.357,1.332q-1.7,0-3.394,0h-1.12v3.464h9.082v-21.714h-9.08Zm.007,1.877v11.052h3.978v-11.052Zm52.774-.034h-3.953v11.059h3.953Zm-27.18-1.535a6.56,6.56,0,0,0-5.7,6.579c.052,3.236,2.722,6.268,5.7,6.386,0-.89.012-1.779-.016-2.667,0-.112-.2-.261-.339-.321a3.592,3.592,0,0,1-2.414-3.467,3.6,3.6,0,0,1,2.426-3.518.586.586,0,0,0,.331-.384C-464.776,2103.829-464.79,2102.973-464.79,2102.074Zm1.855,12.968c3.089-.154,5.717-3.27,5.667-6.638-.046-3.182-2.788-6.264-5.67-6.307,0,.873-.015,1.746.016,2.618,0,.129.2.3.351.368a3.589,3.589,0,0,1,2.377,3.43,3.584,3.584,0,0,1-2.394,3.534c-.137.059-.329.209-.332.322C-462.948,2113.259-462.936,2114.15-462.936,2115.042Zm-1.885-8.073a1.838,1.838,0,0,0-.89,1.763,1.581,1.581,0,0,0,.89,1.365Zm1.921.1v2.983A1.73,1.73,0,0,0-462.9,2107.067Z" transform="translate(501.28 -2083.38)" fill="#fff"/>
      </g>
    </g>
  </g>
</svg>
