<svg xmlns="http://www.w3.org/2000/svg" xmlns:xlink="http://www.w3.org/1999/xlink" width="57.198" height="64.639" viewBox="0 0 57.198 64.639">
  <defs>
    <filter id="Path_220" x="0" y="0" width="57.198" height="64.639" filterUnits="userSpaceOnUse">
      <feOffset dy="3" input="SourceAlpha"/>
      <feGaussianBlur stdDeviation="3" result="blur"/>
      <feFlood flood-opacity="0.161"/>
      <feComposite operator="in" in2="blur"/>
      <feComposite in="SourceGraphic"/>
    </filter>
  </defs>
  <g id="Parley_picks" data-name="Parley picks" transform="translate(480.51 -1711.496)">
    <g id="Group_257" data-name="Group 257" transform="translate(-471.51 1717.496)">
      <g id="Group_256" data-name="Group 256" transform="translate(0 0)">
        <g transform="matrix(1, 0, 0, 1, -9, -6)" filter="url(#Path_220)">
          <path id="Path_220-2" data-name="Path 220" d="M-432.339,1745.013c0-1.4,0-2.8,0-4.2s0-2.824,0-4.238c-.009-3.5-.018-7.112.027-10.663a5.206,5.206,0,0,0-2.243-4.5,15.788,15.788,0,0,0-4.908-2.292,40.548,40.548,0,0,0-10.051-1.565,46.414,46.414,0,0,0-14.232,1.388,16,16,0,0,0-5.6,2.527,4.732,4.732,0,0,0-2.164,3.857q-.007,3.552,0,7.107.007,2.222.009,4.443l0,4.549c0,4.713.013,9.59-.022,14.383a5.118,5.118,0,0,0,2.2,4.389,16.563,16.563,0,0,0,5.6,2.51,41.534,41.534,0,0,0,9.67,1.392c.767.027,1.512.04,2.248.04a43.785,43.785,0,0,0,12.019-1.529,15.5,15.5,0,0,0,5.289-2.439,5.08,5.08,0,0,0,2.168-4.358C-432.353,1752.213-432.344,1748.551-432.339,1745.013Zm-35.917-3.969v-1a16.19,16.19,0,0,0,2.922,1.308,35.664,35.664,0,0,0,8.495,1.711,52.666,52.666,0,0,0,9.891,0,32.546,32.546,0,0,0,9.851-2.266c.523-.226,1.024-.492,1.516-.758v.643c0,1.787.009,3.631-.027,5.445a.88.88,0,0,1-.275.519,11.862,11.862,0,0,1-2.124,1.445,23.381,23.381,0,0,1-6.8,1.889,47.877,47.877,0,0,1-11.4.332,29.212,29.212,0,0,1-9.279-2.066,13.447,13.447,0,0,1-2.252-1.37,1.251,1.251,0,0,1-.528-1.126C-468.247,1744.18-468.251,1742.587-468.256,1741.044Zm0,9.422c.062.031.12.057.177.088.82.394,1.667.807,2.536,1.135a33.081,33.081,0,0,0,8.091,1.738,52.274,52.274,0,0,0,9.169.168,34.481,34.481,0,0,0,11.146-2.354c.541-.23,1.064-.51,1.574-.785l0,1.241c0,1.494.013,4.482.013,4.482a2.368,2.368,0,0,1-.43,1.025,7.739,7.739,0,0,1-2.625,1.6,27.66,27.66,0,0,1-6.93,1.711,48.523,48.523,0,0,1-10.317.252,31.155,31.155,0,0,1-9.6-2.07,7.351,7.351,0,0,1-2.337-1.441,1.425,1.425,0,0,1-.474-1.122c.018-1.64.013-3.294.013-4.895Zm.364-25.977a7.636,7.636,0,0,1,2.864-1.734,27.623,27.623,0,0,1,7.417-1.711c1.4-.142,2.824-.226,3.866-.293.377-.022.709-.04.984-.062a42.232,42.232,0,0,1,12.494,1.561,22.264,22.264,0,0,1,3.3,1.423,4.475,4.475,0,0,1,1.184,1c.266.292.341.536,0,1.006a5.006,5.006,0,0,1-1.929,1.432,22.324,22.324,0,0,1-5.87,1.8,44.965,44.965,0,0,1-9.971.691,34.417,34.417,0,0,1-11.363-2,13.253,13.253,0,0,1-1.942-1.024c-.235-.142-.474-.284-.714-.417a1.842,1.842,0,0,1-.337-.337C-468.376,1725.3-468.371,1724.995-467.9,1724.49Zm-.359,5.905v-.763a25.808,25.808,0,0,0,8.951,2.727,48.38,48.38,0,0,0,8.756.519,40.739,40.739,0,0,0,11.873-1.867,16.469,16.469,0,0,0,3.1-1.37v1.028c0,1.525-.009,3.1.009,4.66a1.456,1.456,0,0,1-.576,1.188,8.787,8.787,0,0,1-2.74,1.551,29.225,29.225,0,0,1-7.005,1.64,48.223,48.223,0,0,1-9.4.253,30.782,30.782,0,0,1-10.237-2.155,13.149,13.149,0,0,1-2.181-1.321,1.327,1.327,0,0,1-.563-1.2C-468.247,1733.663-468.251,1732.075-468.256,1730.4Z" transform="translate(480.51 -1711.5)" fill="#fff"/>
        </g>
      </g>
    </g>
  </g>
</svg>
