<svg width="19" height="19" viewBox="0 0 19 19" fill="none" xmlns="http://www.w3.org/2000/svg">
    <path d="M1 14.858h17.225M3.708 5.024c1.077 0 1.95-.901 1.95-2.012S4.785 1 3.708 1s-1.95.9-1.95 2.012c0 1.11.873 2.012 1.95 2.012zM1.324 11.73V8.823c0-1.342 1.084-2.347 2.275-2.347 1.3 0 2.275 1.117 2.275 2.347v2.905" stroke="#0F0F0F" stroke-width="1.2" stroke-miterlimit="10"/>
    <path d="M5.983 11.17H4.79v3.8M1.324 11.17h1.3v3.8M14.216 13.07c2.035 0 3.684-1.7 3.684-3.8 0-2.098-1.65-3.8-3.683-3.8-2.035 0-3.684 1.702-3.684 3.8 0 2.1 1.65 3.8 3.684 3.8z" stroke="#0F0F0F" stroke-width="1.2" stroke-miterlimit="10"/>
    <path d="M13.866 8.63c0-.12.106-.175.267-.175.271 0 .74.17 1.071.359l.354-.736a2.488 2.488 0 0 0-1.034-.354V7.03h-.686v.708c-.593.106-.96.464-.96.984 0 1.136 1.682.828 1.682 1.315 0 .147-.128.216-.33.216-.332 0-.87-.211-1.2-.492l-.36.727c.313.244.74.414 1.168.483v.735h.686v-.726c.579-.083 1.025-.405 1.025-.993 0-1.164-1.683-.883-1.683-1.357z" fill="#0F0F0F"/>
    <path d="m9.666 15.418-1.842 2.57H11.4l-1.733-2.57z" stroke="#0F0F0F" stroke-width="1.2" stroke-miterlimit="10"/>
</svg>
