<svg xmlns="http://www.w3.org/2000/svg" xmlns:xlink="http://www.w3.org/1999/xlink" width="46" height="46" viewBox="0 0 46 46">
  <defs>
    <filter id="Ellipse_29" x="0" y="0" width="46" height="46" filterUnits="userSpaceOnUse">
      <feOffset dy="3" input="SourceAlpha"/>
      <feGaussianBlur stdDeviation="3" result="blur"/>
      <feFlood flood-opacity="0.161"/>
      <feComposite operator="in" in2="blur"/>
      <feComposite in="SourceGraphic"/>
    </filter>
  </defs>
  <g id="Profile_edit_icon" data-name="Profile edit icon" transform="translate(-231 -267)">
    <g transform="matrix(1, 0, 0, 1, 231, 267)" filter="url(#Ellipse_29)">
      <circle id="Ellipse_29-2" data-name="Ellipse 29" cx="14" cy="14" r="14" transform="translate(9 6)" fill="#fff"/>
    </g>
    <g id="Icon_feather-edit" data-name="Icon feather-edit" transform="translate(244.033 277.215)">
      <path id="Path_395" data-name="Path 395" d="M9.232,6H4.385A1.385,1.385,0,0,0,3,7.385V17.08a1.385,1.385,0,0,0,1.385,1.385H14.08a1.385,1.385,0,0,0,1.385-1.385V12.232" transform="translate(0 -1.713)" fill="none" stroke="#000" stroke-linecap="round" stroke-linejoin="round" stroke-width="1.5"/>
      <path id="Path_396" data-name="Path 396" d="M19.271,3.248a1.469,1.469,0,0,1,2.077,2.077L14.77,11.9,12,12.6l.692-2.77Z" transform="translate(-4.845)" fill="none" stroke="#000" stroke-linecap="round" stroke-linejoin="round" stroke-width="1.5"/>
    </g>
  </g>
</svg>
