<?xml version="1.0" encoding="UTF-8"?>
<svg xmlns="http://www.w3.org/2000/svg" xmlns:xlink="http://www.w3.org/1999/xlink" width="14.42041pt" height="17.793213pt" viewBox="0 0 14.42041 17.793213" version="1.1">
<defs>
<clipPath id="clip1">
  <path d="M 9 4 L 14.421875 4 L 14.421875 17.792969 L 9 17.792969 Z M 9 4 "/>
</clipPath>
<clipPath id="clip2">
  <path d="M 4 7 L 10 7 L 10 17.792969 L 4 17.792969 Z M 4 7 "/>
</clipPath>
<clipPath id="clip3">
  <path d="M 0 11 L 5 11 L 5 17.792969 L 0 17.792969 Z M 0 11 "/>
</clipPath>
</defs>
<g id="surface1">
<g clip-path="url(#clip1)" clip-rule="nonzero">
<path style=" stroke:none;fill-rule:nonzero;fill:rgb(5.882263%,5.882263%,5.882263%);fill-opacity:1;" d="M 10.566406 5.078125 L 10.566406 4.480469 L 9.964844 4.480469 L 9.964844 5.078125 Z M 13.820313 5.078125 L 14.421875 5.078125 L 14.421875 4.480469 L 13.820313 4.480469 Z M 13.820313 17.191406 L 13.820313 17.792969 L 14.421875 17.792969 L 14.421875 17.191406 Z M 10.566406 17.191406 L 9.964844 17.191406 L 9.964844 17.792969 L 10.566406 17.792969 Z M 10.566406 5.679688 L 13.820313 5.679688 L 13.820313 4.480469 L 10.566406 4.480469 Z M 13.21875 5.078125 L 13.21875 17.191406 L 14.421875 17.191406 L 14.421875 5.078125 Z M 13.820313 16.59375 L 10.566406 16.59375 L 10.566406 17.792969 L 13.820313 17.792969 Z M 11.164063 17.191406 L 11.164063 5.078125 L 9.964844 5.078125 L 9.964844 17.191406 Z M 11.164063 17.191406 "/>
</g>
<g clip-path="url(#clip2)" clip-rule="nonzero">
<path style=" stroke:none;fill-rule:nonzero;fill:rgb(5.882263%,5.882263%,5.882263%);fill-opacity:1;" d="M 5.570313 8.265625 L 5.570313 7.667969 L 4.972656 7.667969 L 4.972656 8.265625 Z M 8.824219 8.265625 L 9.425781 8.265625 L 9.425781 7.667969 L 8.824219 7.667969 Z M 8.824219 17.191406 L 8.824219 17.792969 L 9.425781 17.792969 L 9.425781 17.191406 Z M 5.570313 17.191406 L 4.972656 17.191406 L 4.972656 17.792969 L 5.570313 17.792969 Z M 5.570313 8.867188 L 8.824219 8.867188 L 8.824219 7.667969 L 5.570313 7.667969 Z M 8.226563 8.265625 L 8.226563 17.191406 L 9.425781 17.191406 L 9.425781 8.265625 Z M 8.824219 16.59375 L 5.570313 16.59375 L 5.570313 17.792969 L 8.824219 17.792969 Z M 6.171875 17.191406 L 6.171875 8.265625 L 4.972656 8.265625 L 4.972656 17.191406 Z M 6.171875 17.191406 "/>
</g>
<g clip-path="url(#clip3)" clip-rule="nonzero">
<path style=" stroke:none;fill-rule:nonzero;fill:rgb(5.882263%,5.882263%,5.882263%);fill-opacity:1;" d="M 0.601563 11.746094 L 0.601563 11.144531 L 0 11.144531 L 0 11.746094 Z M 3.855469 11.746094 L 4.453125 11.746094 L 4.453125 11.144531 L 3.855469 11.144531 Z M 3.855469 17.191406 L 3.855469 17.792969 L 4.453125 17.792969 L 4.453125 17.191406 Z M 0.601563 17.191406 L 0 17.191406 L 0 17.792969 L 0.601563 17.792969 Z M 0.601563 12.347656 L 3.855469 12.347656 L 3.855469 11.144531 L 0.601563 11.144531 Z M 3.253906 11.746094 L 3.253906 17.191406 L 4.453125 17.191406 L 4.453125 11.746094 Z M 3.855469 16.59375 L 0.601563 16.59375 L 0.601563 17.792969 L 3.855469 17.792969 Z M 1.199219 17.191406 L 1.199219 11.746094 L 0 11.746094 L 0 17.191406 Z M 1.199219 17.191406 "/>
</g>
<path style=" stroke:none;fill-rule:nonzero;fill:rgb(5.882263%,5.882263%,5.882263%);fill-opacity:1;" d="M 2.878906 4.105469 L 3.050781 3.53125 L 2.539063 3.375 L 2.328125 3.871094 Z M 7.4375 5.472656 L 7.265625 6.046875 L 7.578125 6.140625 L 7.824219 5.929688 Z M 1.152344 9.699219 L 3.429688 4.339844 L 2.328125 3.871094 L 0.046875 9.230469 Z M 2.707031 4.679688 L 7.265625 6.046875 L 7.609375 4.898438 L 3.050781 3.53125 Z M 7.824219 5.929688 L 13.753906 0.917969 L 12.976563 0 L 7.050781 5.015625 Z M 7.824219 5.929688 "/>
</g>
</svg>
