<svg width="20" height="20" viewBox="0 0 20 20" fill="none" xmlns="http://www.w3.org/2000/svg">
    <circle cx="10" cy="10" r="10" fill="#0F0F0F"/>
    <path d="M6.625 7.672h1.336c.086-1.117.836-1.813 2.016-1.813 1.164 0 1.914.711 1.914 1.68 0 .836-.352 1.328-1.258 1.883-1.07.64-1.57 1.344-1.563 2.375v.719h1.367v-.508c0-.82.282-1.258 1.274-1.844 1-.601 1.633-1.469 1.633-2.695 0-1.61-1.344-2.828-3.313-2.828-2.195 0-3.32 1.343-3.406 3.03zm3.234 8.469c.633 0 1.079-.453 1.079-1.086 0-.64-.446-1.094-1.079-1.094-.632 0-1.086.453-1.086 1.094 0 .633.454 1.086 1.086 1.086z" fill="#fff"/>
</svg>
