<?xml version="1.0" encoding="UTF-8"?>
<svg xmlns="http://www.w3.org/2000/svg" xmlns:xlink="http://www.w3.org/1999/xlink" width="12.850586pt" height="16.260498pt" viewBox="0 0 12.850586 16.260498" version="1.1">
<g id="surface1">
<path style=" stroke:none;fill-rule:nonzero;fill:rgb(5.882263%,5.882263%,5.882263%);fill-opacity:1;" d="M 2.347656 9.21875 L 11.015625 9.273438 L 11.023438 8.074219 L 2.355469 8.019531 Z M 2.347656 9.21875 "/>
<path style=" stroke:none;fill-rule:nonzero;fill:rgb(5.882263%,5.882263%,5.882263%);fill-opacity:1;" d="M 2.351563 3.734375 L 6.269531 3.734375 L 6.269531 2.535156 L 2.351563 2.535156 Z M 2.351563 3.734375 "/>
<path style=" stroke:none;fill-rule:nonzero;fill:rgb(5.882263%,5.882263%,5.882263%);fill-opacity:1;" d="M 2.351563 5.300781 L 6.269531 5.300781 L 6.269531 4.101563 L 2.351563 4.101563 Z M 2.351563 5.300781 "/>
<path style=" stroke:none;fill-rule:nonzero;fill:rgb(5.882263%,5.882263%,5.882263%);fill-opacity:1;" d="M 3.734375 14.105469 L 3.734375 10.1875 L 2.535156 10.1875 L 2.535156 14.105469 Z M 3.734375 14.105469 "/>
<path style=" stroke:none;fill-rule:nonzero;fill:rgb(5.882263%,5.882263%,5.882263%);fill-opacity:1;" d="M 6.085938 14.105469 L 6.085938 10.96875 L 4.886719 10.96875 L 4.886719 14.105469 Z M 6.085938 14.105469 "/>
<path style=" stroke:none;fill-rule:nonzero;fill:rgb(5.882263%,5.882263%,5.882263%);fill-opacity:1;" d="M 10.785156 14.105469 L 10.785156 10.1875 L 9.585938 10.1875 L 9.585938 14.105469 Z M 10.785156 14.105469 "/>
<path style=" stroke:none;fill-rule:nonzero;fill:rgb(5.882263%,5.882263%,5.882263%);fill-opacity:1;" d="M 8.4375 14.105469 L 8.4375 12.535156 L 7.234375 12.535156 L 7.234375 14.105469 Z M 8.4375 14.105469 "/>
<path style=" stroke:none;fill-rule:nonzero;fill:rgb(5.882263%,5.882263%,5.882263%);fill-opacity:1;" d="M 2.351563 6.867188 L 4.703125 6.867188 L 4.703125 5.667969 L 2.351563 5.667969 Z M 2.351563 6.867188 "/>
<path style=" stroke:none;fill-rule:nonzero;fill:rgb(5.882263%,5.882263%,5.882263%);fill-opacity:1;" d="M 10.140625 4.488281 C 10.140625 5.011719 9.714844 5.441406 9.1875 5.441406 L 9.1875 6.238281 C 10.15625 6.238281 10.941406 5.453125 10.941406 4.488281 Z M 9.1875 5.441406 C 8.664063 5.441406 8.234375 5.011719 8.234375 4.488281 L 7.4375 4.488281 C 7.4375 5.453125 8.21875 6.238281 9.1875 6.238281 Z M 8.234375 4.488281 C 8.234375 3.960938 8.664063 3.535156 9.1875 3.535156 L 9.1875 2.734375 C 8.21875 2.734375 7.4375 3.519531 7.4375 4.488281 Z M 9.1875 3.535156 C 9.714844 3.535156 10.140625 3.960938 10.140625 4.488281 L 10.941406 4.488281 C 10.941406 3.519531 10.15625 2.734375 9.1875 2.734375 Z M 9.1875 3.535156 "/>
<path style=" stroke:none;fill-rule:nonzero;fill:rgb(5.882263%,5.882263%,5.882263%);fill-opacity:1;" d="M 9.589844 3.359375 C 9.589844 3.140625 9.410156 2.960938 9.1875 2.960938 C 8.96875 2.960938 8.789063 3.140625 8.789063 3.359375 Z M 9.1875 4.488281 L 8.789063 4.488281 C 8.789063 4.628906 8.863281 4.757813 8.984375 4.832031 C 9.105469 4.902344 9.257813 4.90625 9.378906 4.839844 Z M 10.5625 4.191406 C 10.757813 4.082031 10.828125 3.839844 10.722656 3.648438 C 10.617188 3.453125 10.375 3.382813 10.179688 3.488281 Z M 8.789063 3.359375 L 8.789063 4.488281 L 9.589844 4.488281 L 9.589844 3.359375 Z M 9.378906 4.839844 L 10.5625 4.191406 L 10.179688 3.488281 L 8.996094 4.136719 Z M 9.378906 4.839844 "/>
<path style=" stroke:none;fill-rule:nonzero;fill:rgb(5.882263%,5.882263%,5.882263%);fill-opacity:1;" d="M 0 0 L 0 -1.199219 C -0.664063 -1.199219 -1.199219 -0.664063 -1.199219 0 Z M 12.851563 0 L 14.050781 0 C 14.050781 -0.664063 13.511719 -1.199219 12.851563 -1.199219 Z M 12.851563 16.261719 L 12.851563 17.460938 C 13.511719 17.460938 14.050781 16.921875 14.050781 16.261719 Z M 0 16.261719 L -1.199219 16.261719 C -1.199219 16.921875 -0.664063 17.460938 0 17.460938 Z M 0 1.199219 L 12.851563 1.199219 L 12.851563 -1.199219 L 0 -1.199219 Z M 11.652344 0 L 11.652344 16.261719 L 14.050781 16.261719 L 14.050781 0 Z M 12.851563 15.0625 L 0 15.0625 L 0 17.460938 L 12.851563 17.460938 Z M 1.199219 16.261719 L 1.199219 0 L -1.199219 0 L -1.199219 16.261719 Z M 1.199219 16.261719 "/>
</g>
</svg>
