<svg width="40" height="31" viewBox="0 0 40 31" fill="none" xmlns="http://www.w3.org/2000/svg">
    <path d="M13.348 19.582c.222 2.918 2.695 4.816 6.28 4.816 3.868 0 6.317-1.98 6.317-5.085 0-2.485-1.406-3.844-4.91-4.723l-1.77-.469c-2.331-.598-3.257-1.36-3.257-2.684 0-1.71 1.488-2.835 3.738-2.835 2.11 0 3.54 1.03 3.832 2.765H25.7c-.176-2.73-2.613-4.676-5.883-4.676-3.574 0-5.976 1.946-5.976 4.817 0 2.402 1.324 3.785 4.383 4.558l2.168.563c2.332.586 3.386 1.5 3.386 2.941 0 1.676-1.675 2.907-3.949 2.907-2.402 0-4.09-1.125-4.348-2.895h-2.132z" fill="#2D3739"/>
    <path stroke="#0F0F0F" d="M.5.5h39v30H.5z"/>
</svg>
