<?xml version="1.0" encoding="UTF-8" standalone="no"?>
<svg
   xmlns:dc="http://purl.org/dc/elements/1.1/"
   xmlns:cc="http://creativecommons.org/ns#"
   xmlns:rdf="http://www.w3.org/1999/02/22-rdf-syntax-ns#"
   xmlns:svg="http://www.w3.org/2000/svg"
   xmlns="http://www.w3.org/2000/svg"
   viewBox="0 0 20.419922 20.457357"
   height="20.457357"
   width="20.419922"
   xml:space="preserve"
   id="svg2"
   version="1.1"><metadata
     id="metadata8"><rdf:RDF><cc:Work
         rdf:about=""><dc:format>image/svg+xml</dc:format><dc:type
           rdf:resource="http://purl.org/dc/dcmitype/StillImage" /></cc:Work></rdf:RDF></metadata><defs
     id="defs6" /><g
     transform="matrix(1.3333333,0,0,-1.3333333,0,20.457357)"
     id="g10"><g
       transform="translate(5.108398,3.672852)"
       id="g12"><path
         id="path14"
         style="fill:#0f0f0f;fill-opacity:1;fill-rule:nonzero;stroke:none"
         d="m 4.749313,3.874657 c 0,-1.145804 -0.928854,-2.07466 -2.074656,-2.07466 v -1.2 c 1.808545,0 3.274656,1.466116 3.274656,3.27466 z M 2.674657,1.799997 C 1.528854,1.799997 0.6,2.728853 0.6,3.874657 h -1.2 c 0,-1.808544 1.466111,-3.27466 3.274657,-3.27466 z M 0.6,3.874657 c 0,1.145804 0.928854,2.07466 2.074657,2.07466 V 7.149316 C 0.866111,7.149316 -0.6,5.6832 -0.6,3.874657 Z m 2.074657,2.07466 c 1.145802,0 2.074656,-0.928856 2.074656,-2.07466 h 1.2 c 0,1.808543 -1.466111,3.274659 -3.274656,3.274659 z" /></g><g
       transform="translate(0.653809,-0.66626)"
       id="g16"><path
         id="path18"
         style="fill:#0f0f0f;fill-opacity:1;fill-rule:nonzero;stroke:none"
         d="M 8.754019,12.97772 8.60041,12.397717 8.928699,12.310772 9.172221,12.54748 Z m 1.512647,1.470321 0.361244,0.479064 -0.410649,0.309654 -0.368797,-0.358477 z m 1.737929,-1.310503 0.541367,-0.258693 0.211444,0.442492 -0.391568,0.295265 z m -0.90115,-1.885844 -0.541367,0.258692 -0.135977,-0.28456 0.157284,-0.27336 z m 0.514944,-0.894979 -0.52006,-0.299228 0.173055,-0.300771 h 0.347005 z m 2.091949,0 0.594422,0.08162 -0.07118,0.518382 H 13.710336 V 10.356716 Z M 14,8.247128 14.1966,7.680251 14.661336,7.841427 14.594423,8.328746 Z M 11.972409,7.543931 11.775809,8.110807 11.45706,8.000261 11.385905,7.670475 Z M 11.779308,6.648953 11.192804,6.775497 11.129622,6.482656 11.32573,6.256186 Z M 13.163217,5.050779 13.64617,4.694751 13.93083,5.080892 13.616796,5.443547 Z M 11.843676,3.260826 11.562359,2.730863 12.019512,2.488195 12.326628,2.904797 Z M 9.977008,4.251693 10.258325,4.781656 9.98083,4.928956 9.701692,4.784798 Z M 9.172411,3.836167 8.897094,4.369272 8.583292,4.207211 8.572681,3.854193 Z M 9.108044,1.694615 9.199291,1.101594 9.692773,1.177526 9.707773,1.67659 Z M 6.822985,1.343018 6.240033,1.201008 6.37029,0.666301 6.914232,0.749996 Z M 6.340227,3.324752 6.923179,3.466762 6.844475,3.789845 6.528793,3.894351 Z M 5.37471,3.644386 5.563276,4.213985 5.229203,4.32458 4.969614,4.086989 Z M 3.733334,2.142104 3.361151,1.671488 3.761713,1.354708 4.13843,1.699501 Z M 1.995401,3.516532 1.469141,3.804718 1.225747,3.360251 1.623218,3.045916 Z M 2.993104,5.338451 3.519363,5.050266 3.681939,5.347149 3.511919,5.639832 Z M 2.510345,6.169501 3.02916,6.470882 2.864124,6.754987 2.53586,6.768958 Z M 0.257472,6.265392 -0.338481,6.19582 -0.27916,5.687691 0.231957,5.665936 Z M 0,8.47087 -0.175347,9.044676 -0.653987,8.898411 -0.595953,8.401298 Z M 2.091953,9.110141 2.2673,8.536335 2.591141,8.635296 2.673802,8.963676 Z M 2.31724,10.005117 2.899089,9.858653 2.978428,10.17384 2.757765,10.412472 Z M 0.868964,11.571328 0.386012,11.927358 0.091704,11.52813 0.428439,11.163975 Z m 1.319542,1.789954 0.292188,0.524048 -0.461563,0.257348 -0.313578,-0.425366 z m 1.834481,-1.022831 -0.292188,-0.524048 0.285467,-0.159165 0.288543,0.153518 z m 0.90115,0.479452 0.281822,-0.529695 0.323461,0.172096 -0.00535,0.366354 -0.599937,-0.0088 z m -0.032185,2.20548 -0.083119,0.594215 -0.524547,-0.07337 0.00773,-0.529597 0.599937,0.0088 z m 2.285058,0.319635 0.576279,0.167041 -0.144691,0.499171 -0.514707,-0.072 0.083119,-0.594214 z m 0.611492,-2.10959 -0.576278,-0.167042 0.09451,-0.326052 0.32816,-0.08691 z m 1.383719,-0.685948 1.512647,1.470319 -0.836404,0.860483 -1.512647,-1.470321 z m 0.733201,1.421496 1.737929,-1.310503 0.722487,0.958129 -1.737928,1.310503 z m 1.557805,-0.572746 -0.901149,-1.885844 1.082734,-0.517384 0.90115,1.885843 z m -0.879842,-2.443764 0.514944,-0.894979 1.040121,0.598456 -0.514945,0.894978 z m 1.035004,-1.19575 h 2.091949 v 1.2 h -2.091949 z m 1.497525,0.518381 0.289664,-2.109589 1.188845,0.163238 -0.289663,2.109588 z M 13.8034,8.814003 11.775809,8.110807 12.169009,6.977056 14.1966,7.680251 Z m -2.417495,-1.143528 -0.193101,-0.894978 1.173008,-0.253088 0.1931,0.894978 z M 11.32573,6.256186 12.709639,4.658012 13.616796,5.443547 12.232887,7.041721 Z M 12.680264,5.406809 11.360723,3.616856 12.326628,2.904797 13.64617,4.694751 Z M 12.124991,3.79079 10.258325,4.781656 9.695692,3.721729 11.562359,2.730863 Z M 9.701692,4.784798 8.897094,4.369272 9.447727,3.303062 10.252325,3.718588 Z M 8.572681,3.854193 8.508315,1.712641 9.707773,1.67659 9.77214,3.818141 Z M 9.016797,2.287637 6.731738,1.936039 6.914232,0.749996 9.199291,1.101594 Z M 7.405938,1.485027 6.923179,3.466762 5.757275,3.182742 6.240033,1.201008 Z M 6.528793,3.894351 5.563276,4.213985 5.186144,3.074788 6.151661,2.755153 Z M 4.969614,4.086989 3.328238,2.584707 4.13843,1.699501 5.779806,3.201783 Z M 4.105517,2.612721 2.367583,3.987149 1.623218,3.045916 3.361151,1.671488 Z M 2.52166,3.228347 3.519363,5.050266 2.466844,5.626637 1.469141,3.804718 Z M 3.511919,5.639832 3.02916,6.470882 1.991529,5.86812 2.474288,5.03707 Z M 2.53586,6.768958 0.282987,6.86485 0.231957,5.665936 2.48483,5.570044 Z M 0.853425,6.334966 0.595953,8.540443 -0.595953,8.401298 -0.338481,6.19582 Z M 0.175347,7.897064 2.2673,8.536335 1.916607,9.683947 -0.175347,9.044676 Z M 2.673802,8.963676 2.899089,9.858653 1.735391,10.151583 1.510104,9.256605 Z M 2.757765,10.412472 1.30949,11.978683 0.428439,11.163975 1.876714,9.597763 Z M 1.351917,11.2153 2.671458,13.005253 1.705553,13.717312 0.386012,11.927358 Z m 0.544401,1.621934 1.834481,-1.022831 0.584376,1.048096 -1.834481,1.022831 z m 2.408491,-1.028478 0.90115,0.479452 -0.563643,1.05939 -0.90115,-0.479452 z m 1.219265,1.017902 -0.032186,2.20548 -1.199873,-0.01751 0.032186,-2.205479 z m -0.549004,1.60251 2.285059,0.319635 -0.166238,1.188429 -2.285058,-0.319634 z m 1.625661,0.746808 0.611493,-2.10959 1.152556,0.334084 -0.611491,2.109589 z m 1.034163,-2.522553 0.965516,-0.255706 0.307217,1.160007 -0.965516,0.255708 z" /></g></g></svg>