<svg xmlns="http://www.w3.org/2000/svg" width="28.104" height="26.813" viewBox="0 0 28.104 26.813">
  <g id="SPORTS" transform="translate(-91.745 -72.785)">
    <path id="Subtraction_15" data-name="Subtraction 15" d="M12.184,25.813a2.735,2.735,0,0,1-.732-.1,2.269,2.269,0,0,1-1.687-1.77,2.426,2.426,0,0,1,.025-1.25,2.547,2.547,0,0,1,.664-1.069c.247-.246.5-.5.718-.719l0,0,0,0,0,0h0c.66-.662,1.343-1.348,2.035-2,.152-.144.219-.254.216-.355s-.073-.2-.232-.332a7.181,7.181,0,0,1-.813-.811c-.1-.116-.175-.165-.249-.165s-.151.047-.261.158c-1.679,1.69-3.388,3.393-5.041,5.04l-.009.009,0,0-.027.027-.026.026-.143.142L5.541,23.715l-.327.328h0l-.039.039h0l-.008.008-.005.005h0c-.333.334-.676.68-1.028,1.013a2.582,2.582,0,0,1-.811.526,2.416,2.416,0,0,1-2.009-.087A2.351,2.351,0,0,1,.275,24.526,2.553,2.553,0,0,1,.02,23.043a2.5,2.5,0,0,1,.807-1.5C3.962,18.422,7.084,15.309,10.1,12.3h0l.174-.173.041-.041.053-.053.085-.084,2.581-2.573c.155-.154.312-.314.438-.443l0,0h0l0,0,0,0c.345-.351.7-.713,1.073-1.05.116-.105.167-.187.16-.257s-.091-.147-.213-.221a3.306,3.306,0,0,1-.514-.369.5.5,0,0,0-.322-.166.489.489,0,0,0-.341.2c-.46.5-.949.977-1.423,1.442h0l0,0h0l-.01.01-.018.018,0,0-.006.006-.025.025-.353.348a2.43,2.43,0,0,1-1.733.778,2.587,2.587,0,0,1-.8-.135,2.394,2.394,0,0,1-1.111-.722A2.521,2.521,0,0,1,7.3,7.615a2.32,2.32,0,0,1,.042-1.03,2.052,2.052,0,0,1,.51-.877c1.529-1.577,2.786-2.829,3.956-3.942a2.051,2.051,0,0,1,.691-.433,2.24,2.24,0,0,1,.8-.143,2.472,2.472,0,0,1,.727.111,2.585,2.585,0,0,1,.685.328c.7.475,1.416.967,2.1,1.442h0l.017.012.024.017.089.062.008.006.08.056.783.54a4.4,4.4,0,0,1-.011-.811,3.372,3.372,0,0,1,.146-.746,3.007,3.007,0,0,1,.314-.678,3.265,3.265,0,0,1,.493-.607A3.133,3.133,0,0,1,21.008,0a3.971,3.971,0,0,1,.551.04,3.1,3.1,0,0,1,1.952,1.119,3.246,3.246,0,0,1,.75,2.151,3.32,3.32,0,0,1-.253,1.213,2.824,2.824,0,0,1-.663.951,3.377,3.377,0,0,1-1.042.659,5.054,5.054,0,0,1-1.389.336,7.335,7.335,0,0,1,.132,2.08h0c-.007.232-.015.471-.015.713a.484.484,0,0,0,.092.353.427.427,0,0,0,.316.083h.053c.366-.009.758-.013,1.235-.013.3,0,.6,0,.885,0h.172l.445,0a2.342,2.342,0,0,1,2.4,1.93c0,.014.018.025.032.036h0l0,0,.017.014v.952a4.15,4.15,0,0,1-.491.932,2.2,2.2,0,0,1-.8.687,2.731,2.731,0,0,1-.573.212,2.568,2.568,0,0,1-.606.072H22.665l-1.7,0c-.882,0-1.614,0-2.3-.006a2.58,2.58,0,0,1-1.288-.321,2.4,2.4,0,0,1-.911-.967c-.071-.131-.121-.182-.178-.182s-.119.053-.2.132l-.023.023c-.247.247-.371.372-.368.5s.132.256.39.513l.886.882h0l.028.028.007.007c.469.466,1.053,1.047,1.605,1.6a2.925,2.925,0,0,1,.607.864,2.3,2.3,0,0,1,.206.931,2.273,2.273,0,0,1-.2.931,2.856,2.856,0,0,1-.6.863c-1.652,1.662-3.306,3.306-4.766,4.756l0,0A2.322,2.322,0,0,1,12.184,25.813Zm6.431-19.36a1.039,1.039,0,0,0-.7.363c-2.221,2.211-4.259,4.242-6.229,6.209a.987.987,0,0,0-.36.681,1.039,1.039,0,0,0,.382.71l2.119,2.112.309.308.1.1.39.388.453.451a1.17,1.17,0,0,1,.451.773,1.145,1.145,0,0,1-.441.761c-1.127,1.124-2.235,2.229-3.392,3.386-.437.437-.485.892-.132,1.249a.752.752,0,0,0,.54.25,1.041,1.041,0,0,0,.707-.354c1.134-1.129,2.835-2.825,4.516-4.5.336-.336.473-.564.473-.788s-.139-.455-.479-.795L16,16.439l-.033-.033-.01-.01-.014-.014-.005-.005-.061-.061-.017-.017c-.6-.6-1.282-1.276-1.939-1.934a1.3,1.3,0,0,1-.234-.31.807.807,0,0,1-.095-.315.76.76,0,0,1,.245-.6c.854-.874,1.743-1.751,2.58-2.574a.754.754,0,0,1,.54-.235.867.867,0,0,1,.339.074.791.791,0,0,1,.5.743c.007.167.005.333,0,.495v0h0v.008c0,.1,0,.213,0,.325a.936.936,0,0,0,.226.676.9.9,0,0,0,.67.226c.325,0,.67,0,1.087,0h3.24c.456,0,.832,0,1.183,0h.011a.778.778,0,0,0,.759-.451.739.739,0,0,0-.02-.732.958.958,0,0,0-.831-.422c-.441,0-.913,0-1.483,0H20.359a1,1,0,0,1-.733-.233.975.975,0,0,1-.237-.725c0-.956,0-1.974,0-2.973a.818.818,0,0,0-.26-.676A.783.783,0,0,0,18.615,6.453Zm-8.7,8.295h0l-.476.488c-.333.342-.647.665-.972.99-2.506,2.5-4.567,4.558-6.486,6.465a.91.91,0,0,0-.349.835.823.823,0,0,0,.78.663.852.852,0,0,0,.6-.268c.647-.637,1.245-1.231,1.827-1.816,1.47-1.478,2.964-2.984,4.41-4.44l.011-.011,1.677-1.69c-.085-.092-.173-.18-.267-.273a3.672,3.672,0,0,1-.753-.944Zm3.4-11.908a.811.811,0,0,0-.575.261c-.932.92-1.874,1.861-2.786,2.771l-.008.008-.029.028-.007.007-.056.056-.206.206-.5.5a.738.738,0,0,0-.235.447.753.753,0,0,0,.406.828.865.865,0,0,0,.394.1.811.811,0,0,0,.576-.267l1.273-1.268.014-.014.017-.017.077-.077,1.144-1.139a1.026,1.026,0,0,1,.706-.387,1.15,1.15,0,0,1,.648.267l.07.049.1.07h0l.005,0h0c.472.334.96.679,1.431,1.03a.314.314,0,0,0,.181.079.256.256,0,0,0,.183-.106c.219-.239.44-.469.673-.711h0l0,0,.017-.017.009-.009.264-.275-.905-.624L16.2,4.634c-.721-.5-1.538-1.061-2.34-1.607A.957.957,0,0,0,13.324,2.84Zm7.712-1.234H21A1.69,1.69,0,0,0,19.4,3.248a1.677,1.677,0,0,0,1.617,1.6h.026a1.666,1.666,0,0,0,1.595-1.64A1.66,1.66,0,0,0,21.036,1.607Z" transform="translate(92.666 73.285)" fill="#181818" stroke="rgba(0,0,0,0)" stroke-miterlimit="10" stroke-width="1"/>
    <path id="Path_265" data-name="Path 265" d="M94.64,155.835c-.647,0-1.294,0-1.942,0a.844.844,0,0,1-.953-.828c0-.5.373-.817.958-.818q1.922,0,3.844,0a.875.875,0,0,1,.985.8c.012.487-.4.84-.989.843C95.908,155.837,95.274,155.835,94.64,155.835Z" transform="translate(0 -74.463)" fill="#181818"/>
    <path id="Path_266" data-name="Path 266" d="M116.361,115.3c-.634,0-1.269,0-1.9,0a.8.8,0,0,1-.9-.786.791.791,0,0,1,.878-.846q1.942-.013,3.885,0a.787.787,0,0,1,.877.845.8.8,0,0,1-.9.787C117.656,115.3,117.008,115.3,116.361,115.3Z" transform="translate(-20.079 -37.16)" fill="#181818"/>
    <path id="Path_267" data-name="Path 267" d="M116.426,195.019c.647,0,1.293,0,1.94,0a.794.794,0,1,1,.01,1.587q-2,.007-4,0a.793.793,0,1,1-.01-1.586C115.053,195.014,115.74,195.019,116.426,195.019Z" transform="translate(-20.08 -112.044)" fill="#181818"/>
  </g>
</svg>
