<svg xmlns="http://www.w3.org/2000/svg" xmlns:xlink="http://www.w3.org/1999/xlink" width="212.87" height="213.866" viewBox="0 0 212.87 213.866">
  <defs>
    <linearGradient id="linear-gradient" x1="1.13" y1="1.295" x2="0.236" y2="0.19" gradientUnits="objectBoundingBox">
      <stop offset="0" stop-color="#dae3fe"/>
      <stop offset="1" stop-color="#e9effd"/>
    </linearGradient>
  </defs>
  <g id="Group_144" data-name="Group 144" transform="translate(-457.907 -455)">
    <path id="Path_147" data-name="Path 147" d="M748.6,638.783a76.96,76.96,0,0,1-11.775,9.914c-38.411,27.561-83.862,19.527-93.521,17.565-14.264-2.9-41.836-8.5-61.771-31.939-30.159-35.466-25.463-91.342-2.069-128.227,4.279-6.747,26.882-44.193,72.822-50.2,27.8-3.634,60.211,3.7,83.681,23.358C785.23,520.53,781.723,603.911,748.6,638.783Z" transform="translate(-102.496)" fill="url(#linear-gradient)"/>
    <g id="Group_139" data-name="Group 139" transform="translate(496.35 473.75)">
      <path id="Path_160" data-name="Path 160" d="M1090.591,2618.042s-2.433-16.872,16.548-18.17,111.615,1.947,111.615,1.947-3.894,18.819,0,26.93c-17.845-.162-121.025,0-121.025,0S1089.986,2625.031,1090.591,2618.042Z" transform="translate(-1088.445 -2454.512)" fill="#bae6cb"/>
      <path id="Path_161" data-name="Path 161" d="M1195.8,2528.485H1079c-2.379,0-11.464.593-11.248-9.574a11.918,11.918,0,0,1,5.382-9.806,14.553,14.553,0,0,1,8.5-2.631h106.387c9.966,0,8.05-13.29,8.05-13.29l-113.392,2.79s-16.872,9.988-18.671,20.176a18.283,18.283,0,0,0,0,6.523,11.716,11.716,0,0,0,11.472,9.57H1195.8a1.88,1.88,0,1,0,0-3.758Z" transform="translate(-1063.71 -2356.256)" fill="#36eb7d"/>
      <path id="Path_162" data-name="Path 162" d="M1387.243,702.716H1278.42V850.347h108.823c4.153,0,7.134-3.862,7.134-8.016V710.066A7.056,7.056,0,0,0,1387.243,702.716Z" transform="translate(-1262.02 -702.545)" fill="#28d8a1"/>
      <path id="Path_163" data-name="Path 163" d="M1083.845,700.481s-17.521,3.49-16.223,16.995-.069,142.878-.069,142.878,5.26-12.567,16.292-12.567Z" transform="translate(-1067.26 -700.481)" fill="#36eb7d"/>
      <rect id="Rectangle_31" data-name="Rectangle 31" width="85.358" height="0.805" rx="0.403" transform="translate(33.31 152.097)" fill="#fff" opacity="0.6"/>
      <path id="Path_164" data-name="Path 164" d="M1434.5,2803.616c0,.135-.23.471-.386.471h-98.761c-.156,0-.706-.336-.706-.471v-.36c0-.135.55.025.706.025h98.761c.156,0,.386-.16.386-.025Z" transform="translate(-1313.953 -2642.595)" fill="#fff" opacity="0.6"/>
      <rect id="Rectangle_32" data-name="Rectangle 32" width="63.079" height="1.074" rx="0.537" transform="translate(59.615 167.933)" fill="#fff" opacity="0.6"/>
      <g id="Group_137" data-name="Group 137" transform="translate(20.157 4.231)">
        <g id="Group_134" data-name="Group 134" transform="translate(0 72.32)">
          <path id="Path_165" data-name="Path 165" d="M1327.887,1757.723c-.213,0-.268-.172-.268-.385V1703.1c0-.213.056-.385.268-.385s.268.172.268.385v54.24C1328.156,1757.551,1328.1,1757.723,1327.887,1757.723Z" transform="translate(-1327.619 -1702.714)" fill="#fafafa"/>
        </g>
        <g id="Group_135" data-name="Group 135" transform="translate(0 37.699)">
          <path id="Path_166" data-name="Path 166" d="M1327.887,1276.371c-.213,0-.268-.172-.268-.385v-26.158c0-.213.056-.385.268-.385s.268.172.268.385v26.158C1328.156,1276.2,1328.1,1276.371,1327.887,1276.371Z" transform="translate(-1327.619 -1249.443)" fill="#fafafa"/>
        </g>
        <g id="Group_136" data-name="Group 136">
          <path id="Path_167" data-name="Path 167" d="M1327.887,771.268c-.213,0-.268-.172-.268-.385V756.266c0-.213.056-.385.268-.385s.268.172.268.385v14.618C1328.156,771.1,1328.1,771.268,1327.887,771.268Z" transform="translate(-1327.619 -755.881)" fill="#fafafa"/>
        </g>
      </g>
      <g id="Group_138" data-name="Group 138" transform="translate(42.917 21.65)">
        <path id="Path_168" data-name="Path 168" d="M1813.771,1009.986c-5.086-.133-8.674-1.476-10.8-4.023a14.048,14.048,0,0,1-3.174-9.324,12.557,12.557,0,0,1,3.457-9.1c2.318-2.4,5.862-3.6,10.663-3.6q7.267,0,11.117,3.328,3.854,3.351,3.86,9.539t-3.712,9.8C1822.721,1009,1818.907,1010.12,1813.771,1009.986Z" transform="translate(-1786.49 -983.934)" fill="#fff"/>
        <rect id="Rectangle_33" data-name="Rectangle 33" width="26.562" height="65.987" transform="translate(14.501 35.26)" fill="#fff"/>
        <path id="Rectangle_34" data-name="Rectangle 34" d="M1.787,0h37.93a1.347,1.347,0,0,1,1.347,1.347v.615a1.11,1.11,0,0,1-1.11,1.11H1.286A1.286,1.286,0,0,1,0,1.787v0A1.787,1.787,0,0,1,1.787,0Z" transform="translate(3.887 98.174)" fill="#fff"/>
        <path id="Rectangle_35" data-name="Rectangle 35" d="M1.378,0H39.642a1.422,1.422,0,0,1,1.422,1.422V3.073a0,0,0,0,1,0,0H1.695A1.695,1.695,0,0,1,0,1.378v0A1.378,1.378,0,0,1,1.378,0Z" transform="translate(0 35.26)" fill="#fff"/>
      </g>
    </g>
  </g>
</svg>
