<svg xmlns="http://www.w3.org/2000/svg" width="27.345" height="27.131" viewBox="0 0 27.345 27.131">
  <g id="Group_2TIME176" data-name="Group 2TIME176" transform="translate(-8.224 -10.725)">
    <path id="Path_292" data-name="Path 292" d="M13.561,16.538a9.67,9.67,0,0,0-.982,1.2c-.064.088-.117.182-.182.269a10.152,10.152,0,0,0-1.125,2.1c-.094.234-.181.471-.271.707a6.92,6.92,0,0,0-.267.963,8.487,8.487,0,0,0-.257,1.647c.011.258-.013.515-.016.773a10.819,10.819,0,0,0,.143,2.025,5.712,5.712,0,0,0,.187.98,12.111,12.111,0,0,0,.6,1.76c.036.032.03.084.057.12a11.457,11.457,0,0,0,2.243,3.308,2.662,2.662,0,0,1,.208.212l.176.152c.089.06.149.151.237.211a10.706,10.706,0,0,0,2.258,1.562c.3.155.6.29.908.435a6.17,6.17,0,0,0,.715.271,12.571,12.571,0,0,0,1.259.35,3.212,3.212,0,0,1,.649.155,1.057,1.057,0,0,1,.672,1.018,1.084,1.084,0,0,1-.73,1.042.449.449,0,0,1-.22.047,3.525,3.525,0,0,1-.938-.135.616.616,0,0,1-.158-.026l-.014,0-.013,0c-.248-.073-.5-.14-.747-.209a10.418,10.418,0,0,1-1.382-.49,13.734,13.734,0,0,1-2.99-1.744q-.519-.4-1-.84c-.211-.184-.4-.392-.6-.586a1.59,1.59,0,0,1-.148-.16l-.085-.093c-.064-.085-.15-.149-.213-.235A14.131,14.131,0,0,1,9.811,30.8,14.35,14.35,0,0,1,8.767,28.23a.384.384,0,0,1-.008-.074c-.028-.2-.113-.385-.158-.581-.052-.309-.122-.615-.186-.922q-.072-.431-.116-.866a2.882,2.882,0,0,1-.045-.581,2.136,2.136,0,0,0-.03-.517v-.866c.062-.218,0-.443.044-.663a.173.173,0,0,1,.013-.057,3.4,3.4,0,0,1,.036-.409c.03-.13-.011-.269.056-.394l.062-.386c.049-.248.1-.5.164-.739.048-.139.073-.284.121-.422.028-.071.04-.147.069-.218v-.056a2.273,2.273,0,0,1,.118-.36c.064-.267.182-.515.272-.773a2.74,2.74,0,0,1,.15-.358,13.312,13.312,0,0,1,1.875-3.108,1.745,1.745,0,0,0,.173-.236c.034-.04.071-.077.1-.118.333-.381.685-.746,1.043-1.1.1-.069.165-.176.27-.24a13.52,13.52,0,0,1,3.877-2.42c.049-.022.111-.012.15-.06h0c.057-.027.125-.023.176-.064s.1-.03.151-.057h0a.615.615,0,0,1,.152-.057,9.535,9.535,0,0,1,1.19-.361c.217-.031.422-.111.637-.15.029-.011.061-.007.089-.022l.89-.152a3.538,3.538,0,0,1,.513-.056,13.228,13.228,0,0,1,1.994-.043,13.454,13.454,0,0,1,2.238.3,13.693,13.693,0,0,1,4.1,1.639c.017.01.033.022.049.033a3.255,3.255,0,0,0,.413.257c.124.071.15-.05.209-.106l.66-.952c.028-.041.057-.081.088-.12.1-.123.194-.253.375-.214s.23.2.273.341c.119.4.228.81.34,1.215a.532.532,0,0,1,.054.186l.271.979c.055.06.034.143.06.211.088.325.177.65.263.975a.626.626,0,0,1-.577.845c-.663.064-1.327.113-1.99.172q-.72.063-1.439.135a2.609,2.609,0,0,1-.416.021.282.282,0,0,1-.26-.445,5.463,5.463,0,0,1,.427-.643c.115-.167.233-.332.35-.5a.354.354,0,0,0,.109-.137.093.093,0,0,0-.026-.142,7.059,7.059,0,0,0-.861-.493,12.55,12.55,0,0,0-1.814-.782.443.443,0,0,1-.154-.053l-.208-.062a1.452,1.452,0,0,0-.218-.059,6.147,6.147,0,0,0-.888-.208h0a1.864,1.864,0,0,0-.393-.062c-.045-.045-.1-.023-.157-.036-.086-.026-.176.007-.262-.021a.527.527,0,0,0-.209-.039,1.261,1.261,0,0,0-.218-.01.714.714,0,0,0-.2-.014.548.548,0,0,1-.13-.009.84.84,0,0,0-.324-.019,5.378,5.378,0,0,0-.845.023,10.082,10.082,0,0,0-1.56.188l-.508.116c-.063.049-.143.035-.213.057l-.534.152c-.024.021-.057.015-.084.027a1.682,1.682,0,0,0-.393.125l-.175.062c-.174.06-.342.135-.511.207l-.59.271a10.486,10.486,0,0,0-1.664,1.011,6.567,6.567,0,0,0-.76.628l-.332.322C13.835,16.253,13.7,16.395,13.561,16.538Z" fill="#181818"/>
    <path id="Path_293" data-name="Path 293" d="M8.281,234.865a1.735,1.735,0,0,1-.057.72v-.3a.305.305,0,0,0,0-.209v-.119C8.291,234.956,8.247,234.887,8.281,234.865Z" transform="translate(0 -211.76)" fill="#4c4949"/>
    <path id="Path_294" data-name="Path 294" d="M8.282,270.2l.031.6c-.01.013-.021.014-.032,0-.032-.087.021-.192-.057-.269v-.119a.228.228,0,0,0,0-.179v-.179C8.32,270.07,8.235,270.161,8.282,270.2Z" transform="translate(0 -245.001)" fill="#524f4e"/>
    <path id="Path_295" data-name="Path 295" d="M8.282,264.073c-.052-.037,0-.114-.058-.15v-.358A1.037,1.037,0,0,1,8.282,264.073Z" transform="translate(0 -238.874)" fill="#333131"/>
    <path id="Path_296" data-name="Path 296" d="M8.224,238.708a.166.166,0,0,1,0,.209Z" transform="translate(0 -215.39)" fill="#787473"/>
    <path id="Path_297" data-name="Path 297" d="M8.224,273.292a.134.134,0,0,1,0,.179Z" transform="translate(0 -248.064)" fill="#7c7878"/>
    <path id="Path_298" data-name="Path 298" d="M227.685,97.571a.9.9,0,0,1,1.386.5,1.185,1.185,0,0,1,.027.325q0,3.751,0,7.5a.226.226,0,0,0,.145.237c.588.3,1.171.6,1.756.9.141.067.276.145.417.213l1.11.587c.137.074.275.146.416.213h0a2.53,2.53,0,0,0,.272.146c.542.276,1.085.551,1.626.829.467.24.933.481,1.4.728a.892.892,0,0,1-.1,1.635.889.889,0,0,1-.748-.056l-3.564-1.84-2.045-1.056a.3.3,0,0,1-.122-.058h0c-.231-.115-.462-.231-.687-.359l-.237-.119-.033-.026a6.423,6.423,0,0,0-.691-.357c-.207-.1-.414-.211-.622-.314a.127.127,0,0,1-.077-.117c0-.04,0-.08,0-.119q0-4.251,0-8.5a1.041,1.041,0,0,1,.166-.68A.965.965,0,0,1,227.685,97.571Z" transform="translate(-206.984 -81.893)" fill="#181818"/>
    <path id="Path_299" data-name="Path 299" d="M352.233,427.986a1.1,1.1,0,0,1-.344,1.644,4.1,4.1,0,0,1-.876.49,1.108,1.108,0,0,1-1.37-.734,1.087,1.087,0,0,1,.518-1.286c.206-.128.41-.261.619-.383a1.1,1.1,0,0,1,1.209.035A.962.962,0,0,1,352.233,427.986Z" transform="translate(-322.517 -393.804)" fill="#181818"/>
    <path id="Path_300" data-name="Path 300" d="M464.627,229.193a1.139,1.139,0,0,1,.778,1.158c-.017.288,0,.577-.006.865a.883.883,0,0,1-.09.27,1.183,1.183,0,0,1-.683.6,1.026,1.026,0,0,1-.626,0,1.139,1.139,0,0,1-.389-.208.906.906,0,0,1-.206-.212,1.124,1.124,0,0,1-.207-.683c0-.208,0-.416-.006-.625a1.111,1.111,0,0,1,.779-1.166A1.055,1.055,0,0,1,464.627,229.193Z" transform="translate(-429.838 -206.351)" fill="#181818"/>
    <path id="Path_301" data-name="Path 301" d="M409.549,377.279a.03.03,0,0,1-.023,0c-.043-.026-.078-.062-.12-.088a1.1,1.1,0,0,1-.141-1.558q.211-.26.417-.524a1.109,1.109,0,0,1,1.606-.219,1.033,1.033,0,0,1,.179.18,1.091,1.091,0,0,1-.023,1.384c-.151.2-.308.387-.464.579a1.133,1.133,0,0,1-.53.365c-.1.066-.2.035-.308.045A1.281,1.281,0,0,1,409.549,377.279Z" transform="translate(-378.646 -343.81)" fill="#181818"/>
    <path id="Path_302" data-name="Path 302" d="M449.96,308.611a1.088,1.088,0,0,1-1.259-.094.8.8,0,0,1-.177-.181l-.148-.269a1.056,1.056,0,0,1,0-.805,8.451,8.451,0,0,1,.3-.818,1.1,1.1,0,0,1,1.669-.374,1.028,1.028,0,0,1,.188.175c.032.064.077.12.11.183a1.219,1.219,0,0,1,.119.623c-.033.087.009.191-.06.27h0a.77.77,0,0,1-.057.181,3.626,3.626,0,0,1-.357.837.99.99,0,0,1-.15.157C450.069,308.521,450.03,308.59,449.96,308.611Z" transform="translate(-415.765 -278.811)" fill="#181818"/>
    <path id="Path_303" data-name="Path 303" d="M277.123,459.514a.959.959,0,0,1,.324-.331c.08-.041.163-.074.241-.12h0c.217-.052.436-.1.652-.153a.812.812,0,0,0,.244-.056,1.1,1.1,0,0,1,1.281.753,1.084,1.084,0,0,1-.413,1.22,2.163,2.163,0,0,1-.777.269,1.809,1.809,0,0,1-.935.061,1.109,1.109,0,0,1-.681-1.527C277.1,459.6,277.09,459.547,277.123,459.514Z" transform="translate(-253.884 -423.361)" fill="#181818"/>
    <path id="Path_304" data-name="Path 304" d="M449.58,156.125a1.079,1.079,0,0,1-.747.6.653.653,0,0,1-.478,0,1.144,1.144,0,0,1-.857-.839c-.032-.1-.067-.2-.1-.293a1.818,1.818,0,0,0-.1-.292,1.139,1.139,0,0,1-.019-.7,1.075,1.075,0,0,1,.905-.77,1.122,1.122,0,0,1,1.231.833c.058.158.111.317.166.475A1.212,1.212,0,0,1,449.58,156.125Z" transform="translate(-414.76 -135.194)" fill="#181818"/>
    <path id="Path_305" data-name="Path 305" d="M48.322,243.011a12.239,12.239,0,0,1-.15-1.984c0-.282.023-.565.035-.847q.007-.023.025-.007c0,.566-.008,1.132.007,1.7a7.444,7.444,0,0,0,.131,1.117.4.4,0,0,1,.008.147C48.3,243.12,48.367,243.039,48.322,243.011Z" transform="translate(-37.741 -216.767)" fill="#bcbab9"/>
    <path id="Path_306" data-name="Path 306" d="M118.478,74.5a1.522,1.522,0,0,1,.415-.392,11.963,11.963,0,0,1,1.856-1.2.246.246,0,0,1,.154-.044c-.252.145-.5.286-.754.434a11.089,11.089,0,0,0-1.552,1.118C118.559,74.445,118.517,74.471,118.478,74.5Z" transform="translate(-104.164 -58.702)" fill="#3b3938"/>
    <path id="Path_307" data-name="Path 307" d="M219.881,50.393l.235.007a.022.022,0,0,1,.009.022c0,.008,0,.012-.006.012a.047.047,0,0,1-.038,0,17.224,17.224,0,0,0-1.9-.007,11.65,11.65,0,0,0-1.164.146.4.4,0,0,1-.176.01,1.24,1.24,0,0,1,.5-.112c.346-.058.7-.072,1.049-.1q.6-.029,1.2,0l.118,0C219.756,50.4,219.823,50.364,219.881,50.393Z" transform="translate(-197.088 -37.436)" fill="#4a4646"/>
    <path id="Path_308" data-name="Path 308" d="M48.673,212.086l-.025.007a2.252,2.252,0,0,1,.054-.646,6.2,6.2,0,0,1,.2-1.01.036.036,0,0,1,.011.051A12.933,12.933,0,0,0,48.673,212.086Z" transform="translate(-38.182 -188.681)" fill="#494545"/>
    <path id="Path_309" data-name="Path 309" d="M354,75.54c.109-.012.183.063.266.112.179.1.359.207.535.317s.17.224-.023.343c.122-.229.123-.231-.107-.373S354.224,75.673,354,75.54Z" transform="translate(-326.677 -61.234)" fill="#3d3a3a"/>
    <path id="Path_310" data-name="Path 310" d="M198.383,498.59a2.092,2.092,0,0,1,.612.1,4.914,4.914,0,0,0,.5.051c.009.012.006.019-.008.022A3.216,3.216,0,0,1,198.383,498.59Z" transform="translate(-179.656 -460.914)" fill="#444040"/>
    <path id="Path_311" data-name="Path 311" d="M53.5,194.322l-.011-.051a3.616,3.616,0,0,1,.278-.945c-.031.225-.128.433-.175.654C53.563,194.094,53.528,194.207,53.5,194.322Z" transform="translate(-42.762 -172.514)" fill="#4d4a4a"/>
    <path id="Path_312" data-name="Path 312" d="M275.586,51.456l.043-.012a.367.367,0,0,1,.2.012c.086.044.18.015.27.029.045.034.105-.01.148.031.124.054.276-.014.389.089a.878.878,0,0,1-.349-.046A5.71,5.71,0,0,1,275.586,51.456Z" transform="translate(-252.594 -38.462)" fill="#545050"/>
    <path id="Path_313" data-name="Path 313" d="M489.634,178.593c-.018-.053.016-.1.031-.14a1.033,1.033,0,0,0,0-.692.229.229,0,0,1-.026-.156A1.018,1.018,0,0,1,489.634,178.593Z" transform="translate(-454.814 -157.662)" fill="#4e4a4a"/>
    <path id="Path_314" data-name="Path 314" d="M11.747,299.156l.182.922-.009.016c-.014,0-.022,0-.024-.016-.045-.276-.138-.542-.158-.823C11.726,299.221,11.716,299.186,11.747,299.156Z" transform="translate(-3.309 -272.499)" fill="#434040"/>
    <path id="Path_315" data-name="Path 315" d="M9.418,284.421l-.009.1c-.088-.142-.048-.309-.09-.462a3.135,3.135,0,0,1-.058-.5h.032Z" transform="translate(-0.98 -257.764)" fill="#676463"/>
    <path id="Path_316" data-name="Path 316" d="M446.976,167.855a1.386,1.386,0,0,0,.048.726c.034.083.1.164.072.266a1.378,1.378,0,0,1-.177-.813C446.926,167.97,446.921,167.9,446.976,167.855Z" transform="translate(-414.457 -148.451)" fill="#464343"/>
    <path id="Path_317" data-name="Path 317" d="M50.779,291.675l.056.122a5.778,5.778,0,0,0,.138.689.261.261,0,0,1,.016.143,2.877,2.877,0,0,1-.172-.695A.53.53,0,0,1,50.779,291.675Z" transform="translate(-40.197 -265.432)" fill="#686464"/>
    <path id="Path_318" data-name="Path 318" d="M75.764,428.211c.2.2.412.383.593.6a1.847,1.847,0,0,1-.394-.349c-.084-.076-.156-.165-.234-.248A.021.021,0,0,1,75.764,428.211Z" transform="translate(-63.776 -394.417)" fill="#9c9898"/>
    <path id="Path_319" data-name="Path 319" d="M294.592,54.47a2.206,2.206,0,0,1,.639.117.543.543,0,0,1,.267.08.027.027,0,0,1-.044.012Z" transform="translate(-270.55 -41.327)" fill="#565353"/>
    <path id="Path_320" data-name="Path 320" d="M12.205,197.2c-.068.247-.087.506-.179.747a2.3,2.3,0,0,1,.121-.644c.019-.084-.009-.193.082-.257C12.27,197.1,12.21,197.145,12.205,197.2Z" transform="translate(-3.591 -176.027)" fill="#918d8d"/>
    <path id="Path_321" data-name="Path 321" d="M239.973,280.365a1.719,1.719,0,0,1,.515.232c.071.03.169.033.2.128-.074.02-.12-.037-.176-.065Z" transform="translate(-218.948 -254.746)" fill="#3e3b3b"/>
    <path id="Path_322" data-name="Path 322" d="M308.155,495.13c.17-.1.374-.083.55-.167.074-.035.136-.1.226-.1a.555.555,0,0,1-.3.17A1.445,1.445,0,0,1,308.155,495.13Z" transform="translate(-283.364 -457.395)" fill="#5c5858"/>
    <path id="Path_323" data-name="Path 323" d="M257.373,289.452a4.241,4.241,0,0,1,.687.359A2.387,2.387,0,0,1,257.373,289.452Z" transform="translate(-235.387 -263.331)" fill="#a7a4a4"/>
    <path id="Path_324" data-name="Path 324" d="M184.369,494.864a2.955,2.955,0,0,1,.747.209A3.267,3.267,0,0,1,184.369,494.864Z" transform="translate(-166.416 -457.398)" fill="#5d5a5a"/>
    <path id="Path_325" data-name="Path 325" d="M176.473,449.7a2,2,0,0,1-.715-.271A5.835,5.835,0,0,1,176.473,449.7Z" transform="translate(-158.28 -414.468)" fill="#585454"/>
    <path id="Path_326" data-name="Path 326" d="M447.973,331.644a1.44,1.44,0,0,0,0,.805c-.1-.04-.071-.138-.081-.205A.786.786,0,0,1,447.973,331.644Z" transform="translate(-415.363 -303.193)" fill="#a09c9c"/>
    <path id="Path_327" data-name="Path 327" d="M290.932,460.022a2.775,2.775,0,0,1-.662.139,1.562,1.562,0,0,1,.479-.121.321.321,0,0,1,.155-.04A.027.027,0,0,1,290.932,460.022Z" transform="translate(-266.467 -424.459)" fill="#494646"/>
    <path id="Path_328" data-name="Path 328" d="M194.712,15.813a1.991,1.991,0,0,1-.659.149,2.233,2.233,0,0,1,.451-.12A.253.253,0,0,1,194.712,15.813Z" transform="translate(-175.565 -4.794)" fill="#4a4747"/>
    <path id="Path_329" data-name="Path 329" d="M418.823,422.5a2.534,2.534,0,0,0,.608.15c.007.012,0,.019-.009.022A.881.881,0,0,1,418.823,422.5Z" transform="translate(-387.92 -389.031)" fill="#454242"/>
    <path id="Path_330" data-name="Path 330" d="M477.83,282.436a2.053,2.053,0,0,0,.626,0A.694.694,0,0,1,477.83,282.436Z" transform="translate(-443.667 -256.701)" fill="#a7a3a3"/>
    <path id="Path_331" data-name="Path 331" d="M104.851,108.814a1.638,1.638,0,0,1,.42-.418A2.337,2.337,0,0,1,104.851,108.814Z" transform="translate(-91.29 -92.276)" fill="#9b9797"/>
    <path id="Path_332" data-name="Path 332" d="M477.95,228.88a1.615,1.615,0,0,0-.656,0A.8.8,0,0,1,477.95,228.88Z" transform="translate(-443.161 -206.038)" fill="#b4b1b1"/>
    <path id="Path_333" data-name="Path 333" d="M15.023,315.854a1.788,1.788,0,0,1,.139.578,1.827,1.827,0,0,1-.121-.391.234.234,0,0,1-.032-.175Z" transform="translate(-6.403 -288.275)" fill="#434040"/>
    <path id="Path_334" data-name="Path 334" d="M467.558,206.284a1.832,1.832,0,0,0,.478,0A.465.465,0,0,1,467.558,206.284Z" transform="translate(-433.963 -184.756)" fill="#c3c0c0"/>
    <path id="Path_335" data-name="Path 335" d="M173.062,64.443a1.272,1.272,0,0,1,.511-.207A2,2,0,0,1,173.062,64.443Z" transform="translate(-155.733 -50.555)" fill="#575454"/>
    <path id="Path_336" data-name="Path 336" d="M384.779,47.1a1.176,1.176,0,0,1-.413-.274,3.067,3.067,0,0,1,.411.247Q384.809,47.088,384.779,47.1Z" transform="translate(-355.366 -34.11)" fill="#524f4f"/>
    <path id="Path_337" data-name="Path 337" d="M223.822,11.668a2.149,2.149,0,0,1-.513.056A.923.923,0,0,1,223.822,11.668Z" transform="translate(-203.205 -0.881)" fill="#aca9a9"/>
    <path id="Path_338" data-name="Path 338" d="M294.477,271.91a1.284,1.284,0,0,1-.417-.213A.985.985,0,0,1,294.477,271.91Z" transform="translate(-270.048 -246.557)" fill="#aba8a8"/>
    <path id="Path_339" data-name="Path 339" d="M15.29,191.506l.024-.153a1.126,1.126,0,0,1,.089-.333.053.053,0,0,1,.006.071A1.643,1.643,0,0,1,15.29,191.506Z" transform="translate(-6.676 -170.336)" fill="#4b4848"/>
    <path id="Path_340" data-name="Path 340" d="M322.116,286.4a.986.986,0,0,1-.416-.213A1.363,1.363,0,0,1,322.116,286.4Z" transform="translate(-296.161 -260.243)" fill="#5b5858"/>
    <path id="Path_341" data-name="Path 341" d="M185.486,60.594a.916.916,0,0,1,.391-.148c.009.035-.015.043-.04.05C185.714,60.506,185.612,60.594,185.486,60.594Z" transform="translate(-167.471 -46.975)" fill="#4d4a4a"/>
    <path id="Path_342" data-name="Path 342" d="M9.749,220.335a2.2,2.2,0,0,1-.056.394C9.7,220.6,9.634,220.453,9.749,220.335Z" transform="translate(-1.376 -198.032)" fill="#c4c1c1"/>
    <path id="Path_343" data-name="Path 343" d="M86.336,73.386a.8.8,0,0,1-.27.24A.575.575,0,0,1,86.336,73.386Z" transform="translate(-73.542 -59.2)" fill="#b0adad"/>
    <path id="Path_344" data-name="Path 344" d="M25.679,160.367a1.209,1.209,0,0,1-.15.358A.629.629,0,0,1,25.679,160.367Z" transform="translate(-16.349 -141.376)" fill="#a09c9c"/>
    <path id="Path_345" data-name="Path 345" d="M393.15,431.385l-.243-.234A.368.368,0,0,1,393.15,431.385Z" transform="translate(-363.435 -397.204)" fill="#a09d9d"/>
    <path id="Path_346" data-name="Path 346" d="M18.583,180.842a1,1,0,0,1-.118.36A.659.659,0,0,1,18.583,180.842Z" transform="translate(-9.675 -160.721)" fill="#656161"/>
    <path id="Path_347" data-name="Path 347" d="M68.182,419.763A.6.6,0,0,1,68.4,420,.527.527,0,0,1,68.182,419.763Z" transform="translate(-56.646 -386.445)" fill="#928f8f"/>
    <path id="Path_348" data-name="Path 348" d="M83.783,137.867a.622.622,0,0,1,.182-.269A.547.547,0,0,1,83.783,137.867Z" transform="translate(-71.385 -119.865)" fill="#b4b1b1"/>
    <path id="Path_349" data-name="Path 349" d="M114.388,409.669a.571.571,0,0,1-.237-.211A.5.5,0,0,1,114.388,409.669Z" transform="translate(-100.076 -376.709)" fill="#a6a2a2"/>
    <path id="Path_350" data-name="Path 350" d="M62.382,99.716a.564.564,0,0,1-.188.229c.022-.1.107-.152.158-.231Q62.369,99.688,62.382,99.716Z" transform="translate(-50.989 -84.062)" fill="#676363"/>
    <path id="Path_351" data-name="Path 351" d="M230.53,100.383a1.062,1.062,0,0,1-.21.208A.318.318,0,0,1,230.53,100.383Z" transform="translate(-209.829 -84.706)" fill="#8a8686"/>
    <path id="Path_352" data-name="Path 352" d="M467.055,274.876a1.169,1.169,0,0,1,.206.212A.309.309,0,0,1,467.055,274.876Z" transform="translate(-433.487 -249.561)" fill="#989494"/>
    <path id="Path_353" data-name="Path 353" d="M107.406,403.087a.561.561,0,0,1-.208-.212A.436.436,0,0,1,107.406,403.087Z" transform="translate(-93.507 -370.49)" fill="#656262"/>
    <path id="Path_354" data-name="Path 354" d="M329.5,290.176a.448.448,0,0,1-.272-.146A.572.572,0,0,1,329.5,290.176Z" transform="translate(-303.273 -263.878)" fill="#5b5858"/>
    <path id="Path_355" data-name="Path 355" d="M429.66,424.633l.009-.022a1.583,1.583,0,0,0,.293-.035C429.879,424.687,429.763,424.628,429.66,424.633Z" transform="translate(-398.158 -390.992)" fill="#b0adad"/>
    <path id="Path_356" data-name="Path 356" d="M286.162,462.914a.343.343,0,0,1-.241.12A.351.351,0,0,1,286.162,462.914Z" transform="translate(-262.358 -427.212)" fill="#494646"/>
    <path id="Path_357" data-name="Path 357" d="M485.544,310.235l-.175-.181c.1.019.151.1.207.179C485.566,310.248,485.555,310.248,485.544,310.235Z" transform="translate(-450.79 -282.795)" fill="#b2afaf"/>
    <path id="Path_358" data-name="Path 358" d="M391.81,49.67a.218.218,0,0,0,0-.027c.11.053.135-.076.211-.1C391.971,49.624,391.961,49.767,391.81,49.67Z" transform="translate(-362.397 -36.677)" fill="#aca9a9"/>
    <path id="Path_359" data-name="Path 359" d="M501.523,267a.925.925,0,0,1,.09-.27A.3.3,0,0,1,501.523,267Z" transform="translate(-466.052 -241.866)" fill="#a39f9f"/>
    <path id="Path_360" data-name="Path 360" d="M450.482,379.338a.471.471,0,0,1-.179-.18A.276.276,0,0,1,450.482,379.338Z" transform="translate(-417.661 -348.083)" fill="#696565"/>
    <path id="Path_361" data-name="Path 361" d="M202.421,15.45c-.074-.022-.136.042-.208.03.077-.1.18-.055.275-.053Z" transform="translate(-183.274 -4.431)" fill="#c1bebe"/>
    <path id="Path_362" data-name="Path 362" d="M491.855,328.1l.06-.27C491.913,327.928,491.959,328.032,491.855,328.1Z" transform="translate(-456.918 -299.593)" fill="#b4b1b1"/>
    <path id="Path_363" data-name="Path 363" d="M452.438,351.1a.686.686,0,0,1,.177.181A.244.244,0,0,1,452.438,351.1Z" transform="translate(-419.678 -321.57)" fill="#a3a0a0"/>
    <path id="Path_364" data-name="Path 364" d="M481.37,351.275l.156-.144a.268.268,0,0,1-.153.174c-.009-.006-.013-.012-.01-.019S481.367,351.275,481.37,351.275Z" transform="translate(-447.004 -321.604)" fill="#918e8e"/>
    <path id="Path_365" data-name="Path 365" d="M310.194,58.085l.044-.012a.326.326,0,0,1,.2.07A.493.493,0,0,1,310.194,58.085Z" transform="translate(-285.291 -44.733)" fill="#6f6b6a"/>
    <path id="Path_366" data-name="Path 366" d="M302.36,459.026c-.064.069-.153.056-.234.07a.114.114,0,0,1-.008-.017l.009-.018C302.208,459.071,302.276,459,302.36,459.026Z" transform="translate(-277.661 -423.533)" fill="#5b5857"/>
    <path id="Path_367" data-name="Path 367" d="M488.538,313.3l.032,0c.036.057.1.1.091.18A.5.5,0,0,1,488.538,313.3Z" transform="translate(-453.784 -285.858)" fill="#a29e9e"/>
    <path id="Path_368" data-name="Path 368" d="M203.779,56.645a.5.5,0,0,1,.213-.057C203.94,56.677,203.856,56.649,203.779,56.645Z" transform="translate(-184.754 -43.329)" fill="#b3b0b0"/>
    <path id="Path_369" data-name="Path 369" d="M433,75.74a.479.479,0,0,1-.06-.211C433.028,75.579,433,75.664,433,75.74Z" transform="translate(-401.253 -61.224)" fill="#b7b4b4"/>
    <path id="Path_370" data-name="Path 370" d="M218.362,500.741a.1.1,0,0,0,.008-.022c.071.008.131-.054.2-.035A.2.2,0,0,1,218.362,500.741Z" transform="translate(-198.531 -462.892)" fill="#a5a1a1"/>
    <path id="Path_371" data-name="Path 371" d="M73.745,425.847l-.035,0c-.048-.042-.111-.073-.118-.149A.459.459,0,0,1,73.745,425.847Z" transform="translate(-61.757 -392.054)" fill="#989494"/>
    <path id="Path_372" data-name="Path 372" d="M478.6,353.73l0,.03c-.054.039-.1.1-.173.1A.388.388,0,0,1,478.6,353.73Z" transform="translate(-444.231 -324.059)" fill="#534f4f"/>
    <path id="Path_373" data-name="Path 373" d="M17.353,188.593l-.006-.071c.014-.051.006-.112.06-.146A.417.417,0,0,1,17.353,188.593Z" transform="translate(-8.619 -167.837)" fill="#444140"/>
    <path id="Path_374" data-name="Path 374" d="M164.021,27.248a.229.229,0,0,1-.187.05.24.24,0,0,1,.146-.062Q164.007,27.217,164.021,27.248Z" transform="translate(-147.015 -15.593)" fill="#4b4848"/>
    <path id="Path_375" data-name="Path 375" d="M14.676,315.864l.032.175c-.077-.046-.06-.117-.051-.187A.093.093,0,0,1,14.676,315.864Z" transform="translate(-6.07 -288.273)" fill="#c8c5c5"/>
    <path id="Path_376" data-name="Path 376" d="M427.071,54.622a.311.311,0,0,1-.054-.186C427.094,54.481,427.082,54.551,427.071,54.622Z" transform="translate(-395.659 -41.297)" fill="#b4b1b1"/>
    <path id="Path_377" data-name="Path 377" d="M249.789,285.7l.176.065a.051.051,0,0,1,.006.023A.179.179,0,0,1,249.789,285.7Z" transform="translate(-228.222 -259.79)" fill="#b9b6b6"/>
    <path id="Path_378" data-name="Path 378" d="M299.123,459.679a.1.1,0,0,1-.009.018l-.176.035C298.984,459.658,299.055,459.672,299.123,459.679Z" transform="translate(-274.657 -424.15)" fill="#bcb9b9"/>
    <path id="Path_379" data-name="Path 379" d="M490.745,332.872a.258.258,0,0,1,.057-.181A.175.175,0,0,1,490.745,332.872Z" transform="translate(-455.866 -304.182)" fill="#9a9696"/>
    <path id="Path_380" data-name="Path 380" d="M166.513,26.3l-.041-.012a.236.236,0,0,1,.181-.06C166.618,26.28,166.562,26.284,166.513,26.3Z" transform="translate(-149.507 -14.649)" fill="#6a6666"/>
    <path id="Path_381" data-name="Path 381" d="M65.085,97.832l-.03,0a.19.19,0,0,1,.118-.123C65.168,97.765,65.118,97.792,65.085,97.832Z" transform="translate(-53.692 -82.177)" fill="#b0adad"/>
    <path id="Path_382" data-name="Path 382" d="M318.371,60.429a.229.229,0,0,1,.154.053C318.465,60.49,318.4,60.5,318.371,60.429Z" transform="translate(-293.016 -46.957)" fill="#888484"/>
    <path id="Path_383" data-name="Path 383" d="M416.224,420.812a.139.139,0,0,1,.12.088A.127.127,0,0,1,416.224,420.812Z" transform="translate(-385.464 -387.436)" fill="#6c6868"/>
    <path id="Path_384" data-name="Path 384" d="M161.284,28.473c-.029.071-.088.068-.15.06A.241.241,0,0,1,161.284,28.473Z" transform="translate(-144.464 -16.767)" fill="#4b4848"/>
    <path id="Path_385" data-name="Path 385" d="M278.926,471.08a.1.1,0,0,1-.064.117A.107.107,0,0,1,278.926,471.08Z" transform="translate(-255.688 -434.927)" fill="#646060"/>
    <path id="Path_386" data-name="Path 386" d="M169.908,25.241a.2.2,0,0,1-.152.057C169.79,25.234,169.849,25.239,169.908,25.241Z" transform="translate(-152.61 -13.713)" fill="#6a6666"/>
    <path id="Path_387" data-name="Path 387" d="M65.619,340.937a.185.185,0,0,1-.057-.12C65.637,340.83,65.622,340.886,65.619,340.937Z" transform="translate(-54.171 -311.859)" fill="#b6b3b3"/>
    <path id="Path_388" data-name="Path 388" d="M269.8,295.92c.055-.011.087.026.122.058A.1.1,0,0,1,269.8,295.92Z" transform="translate(-247.129 -269.441)" fill="#a7a4a4"/>
    <path id="Path_389" data-name="Path 389" d="M191.846,60.432l.04-.05.086,0A.123.123,0,0,1,191.846,60.432Z" transform="translate(-173.48 -46.91)" fill="#b8b5b5"/>
    <path id="Path_390" data-name="Path 390" d="M246.086,50.145h-1.2c.036-.036.083-.026.126-.026h.945C246,50.119,246.05,50.109,246.086,50.145Z" transform="translate(-223.593 -37.217)" fill="#343231"/>
    <path id="Path_391" data-name="Path 391" d="M276.436,51.192l-.2-.012a.049.049,0,0,1-.007-.019C276.3,51.169,276.374,51.131,276.436,51.192Z" transform="translate(-253.201 -38.198)" fill="#343231"/>
    <path id="Path_392" data-name="Path 392" d="M268.877,50.655c-.061,0-.126.023-.181-.026C268.757,50.634,268.822,50.61,268.877,50.655Z" transform="translate(-246.085 -37.698)" fill="#343231"/>
    <path id="Path_393" data-name="Path 393" d="M285.032,52.286c-.05-.008-.1.008-.148-.031C284.935,52.259,284.992,52.231,285.032,52.286Z" transform="translate(-261.379 -39.232)" fill="#343231"/>
  </g>
</svg>
