<svg width="100" height="20" viewBox="0 0 100 20" fill="none" xmlns="http://www.w3.org/2000/svg">
    <path d="M42.434 13.185c.738 0 1.21-.5 1.21-1.19s-.472-1.182-1.21-1.182c-.732 0-1.21.492-1.21 1.182s.478 1.19 1.21 1.19zm4.867 0c.738 0 1.21-.5 1.21-1.19s-.472-1.182-1.21-1.182c-.732 0-1.21.492-1.21 1.182s.478 1.19 1.21 1.19zm4.867 0c.738 0 1.21-.5 1.21-1.19s-.472-1.182-1.21-1.182c-.731 0-1.21.492-1.21 1.182s.479 1.19 1.21 1.19zm4.867 0c.738 0 1.21-.5 1.21-1.19s-.472-1.182-1.21-1.182c-.731 0-1.21.492-1.21 1.182s.479 1.19 1.21 1.19zM67.382 16.24c2.468 0 3.91-1.963 3.91-5.305 0-3.289-1.586-5.039-3.849-5.039-2.091 0-3.575 1.43-3.575 3.446 0 1.893 1.367 3.281 3.247 3.281 1.17 0 2.113-.547 2.584-1.49h.116c-.04 2.4-.909 3.746-2.42 3.746-.902 0-1.606-.479-1.838-1.265h-1.545c.294 1.593 1.62 2.625 3.37 2.625zm.068-4.909c-1.217 0-2.057-.84-2.057-2.044 0-1.155.888-2.044 2.07-2.044 1.177 0 2.065.896 2.065 2.078 0 1.17-.868 2.01-2.078 2.01zm9.318 4.908c2.194 0 3.712-1.176 3.712-2.885 0-1.271-.835-2.269-2.1-2.508v-.117c1.04-.266 1.696-1.107 1.696-2.173 0-1.559-1.374-2.66-3.308-2.66-1.935 0-3.309 1.101-3.309 2.66 0 1.06.67 1.914 1.695 2.174v.116c-1.264.26-2.091 1.258-2.091 2.515 0 1.702 1.51 2.878 3.705 2.878zm0-1.271c-1.265 0-2.14-.711-2.14-1.737 0-1.032.875-1.743 2.14-1.743 1.264 0 2.14.711 2.14 1.743 0 1.026-.876 1.737-2.14 1.737zm0-4.73c-1.074 0-1.798-.623-1.798-1.532 0-.923.718-1.552 1.798-1.552s1.804.63 1.804 1.552c0 .91-.731 1.531-1.804 1.531zm9.228 6.001c2.194 0 3.712-1.176 3.712-2.885 0-1.271-.834-2.269-2.099-2.508v-.117c1.04-.266 1.696-1.107 1.696-2.173 0-1.559-1.374-2.66-3.309-2.66-1.934 0-3.308 1.101-3.308 2.66 0 1.06.67 1.914 1.695 2.174v.116c-1.265.26-2.092 1.258-2.092 2.515 0 1.702 1.51 2.878 3.705 2.878zm0-1.271c-1.265 0-2.14-.711-2.14-1.737 0-1.032.875-1.743 2.14-1.743 1.265 0 2.14.711 2.14 1.743 0 1.026-.875 1.737-2.14 1.737zm0-4.73c-1.073 0-1.798-.623-1.798-1.532 0-.923.718-1.552 1.798-1.552s1.805.63 1.805 1.552c0 .91-.732 1.531-1.805 1.531zm9.229 6.001c2.194 0 3.712-1.176 3.712-2.885 0-1.271-.834-2.269-2.1-2.508v-.117c1.04-.266 1.696-1.107 1.696-2.173 0-1.559-1.374-2.66-3.308-2.66-1.935 0-3.309 1.101-3.309 2.66 0 1.06.67 1.914 1.695 2.174v.116c-1.264.26-2.092 1.258-2.092 2.515 0 1.702 1.511 2.878 3.706 2.878zm0-1.271c-1.265 0-2.14-.711-2.14-1.737 0-1.032.875-1.743 2.14-1.743 1.264 0 2.14.711 2.14 1.743 0 1.026-.876 1.737-2.14 1.737zm0-4.73c-1.074 0-1.798-.623-1.798-1.532 0-.923.717-1.552 1.798-1.552 1.08 0 1.804.63 1.804 1.552 0 .91-.731 1.531-1.804 1.531z" fill="#0F0F0F"/>
    <rect y="3" width="25" height="16" rx="1" fill="#192162"/>
    <path d="m9.835 14.309 1.086-6.106h1.696l-1.052 6.106h-1.73z" fill="#fff"/>
    <path d="m9.835 14.309 1.39-6.106h1.392l-1.052 6.106h-1.73zM17.704 8.271A4.302 4.302 0 0 0 16.144 8c-1.696 0-2.917.848-2.917 2.069 0 .916.848 1.39 1.526 1.696.679.305.882.509.882.78 0 .407-.543.61-1.017.61-.679 0-1.052-.101-1.628-.339l-.238-.101-.237 1.39c.407.17 1.153.34 1.933.34 1.798 0 2.985-.848 2.985-2.137 0-.713-.441-1.255-1.459-1.696-.61-.306-.983-.475-.983-.78 0-.272.305-.543.983-.543.577 0 .984.102 1.29.237l.169.068.271-1.323z" fill="#fff"/>
    <path d="M17.704 8.271A4.302 4.302 0 0 0 16.144 8c-1.696 0-2.612.848-2.612 2.069 0 .916.543 1.39 1.221 1.696.679.305.882.509.882.78 0 .407-.543.61-1.017.61-.679 0-1.052-.101-1.628-.339l-.238-.101-.237 1.39c.407.17 1.153.34 1.933.34 1.798 0 2.985-.848 2.985-2.137 0-.713-.441-1.255-1.459-1.696-.61-.306-.983-.475-.983-.78 0-.272.305-.543.983-.543.577 0 .984.102 1.29.237l.169.068.271-1.323zM20.621 8.203c-.407 0-.712.034-.882.441l-2.544 5.665h1.832l.339-1.018h2.17l.204 1.018h1.628l-1.424-6.106H20.62zm-.78 4.07c.102-.305.678-1.797.678-1.797s.136-.373.238-.61l.101.576s.34 1.526.407 1.866h-1.424v-.034z" fill="#fff"/>
    <path d="M21.028 8.203c-.407 0-.712.034-.882.441l-2.95 5.665h1.83l.34-1.018h2.17l.204 1.018h1.628l-1.424-6.106h-.916zm-1.187 4.07c.136-.338.678-1.797.678-1.797s.136-.373.238-.61l.101.576s.34 1.526.407 1.866h-1.424v-.034zM6.715 12.477l-.17-.882c-.305-1.017-1.289-2.137-2.374-2.68l1.526 5.428H7.53l2.747-6.106H8.444l-1.73 4.24z" fill="#fff"/>
    <path d="m6.715 12.477-.17-.882c-.305-1.017-1.289-2.137-2.374-2.68l1.526 5.428H7.53l2.747-6.106H8.784l-2.07 4.24z" fill="#fff"/>
    <path d="m2 8.203.305.068c2.171.51 3.663 1.798 4.24 3.324l-.61-2.883c-.102-.407-.408-.509-.78-.509H2z" fill="#fff"/>
    <path d="M2 8.203c2.17.51 3.968 1.832 4.545 3.358l-.577-2.408a.828.828 0 0 0-.814-.644L2 8.203z" fill="#fff"/>
    <path d="M2 8.203c2.17.51 3.968 1.832 4.545 3.358l-.407-1.322c-.102-.407-.237-.814-.712-.984L2 8.203z" fill="#fff"/>
</svg>
