<svg width="146" height="30" viewBox="0 0 146 30" fill="none" xmlns="http://www.w3.org/2000/svg">
    <rect width="29" height="30" rx="5" fill="#0F0F0F"/>
    <circle cx="15" cy="15" r="10" stroke="#fff" stroke-width="2"/>
    <path d="m13.5 14-4 6 6.5-4 4-6.5-6.5 4.5z" fill="#fff"/>
    <rect x="39" width="29" height="30" rx="5" fill="#0F0F0F"/>
    <path d="M62.01 16.38V22.3h-3.432v-5.524c0-1.39-.495-2.333-1.738-2.333-.95 0-1.51.639-1.76 1.254-.09.221-.117.531-.117.838v5.764h-3.43s.046-9.353 0-10.321h3.43v1.463c-.004.012-.014.021-.02.035h.02v-.035c.459-.704 1.27-1.706 3.094-1.706 2.262 0 3.954 1.475 3.954 4.647zM47.943 7C46.769 7 46 7.77 46 8.785c0 .988.746 1.784 1.898 1.784h.02c1.2 0 1.943-.796 1.943-1.784C49.838 7.77 49.118 7 47.941 7zm-1.737 15.299h3.43V11.976h-3.43v10.323z" fill="#fff"/>
    <rect x="117" width="29" height="30" rx="5" fill="#0F0F0F"/>
    <path d="M138.777 10.396a5.44 5.44 0 0 1-.965.335 3.12 3.12 0 0 0 .795-1.303c.044-.143-.106-.266-.231-.19a5.487 5.487 0 0 1-1.476.629.385.385 0 0 1-.351-.09A2.965 2.965 0 0 0 134.552 9c-.318 0-.64.051-.956.152-.979.313-1.734 1.145-1.971 2.171-.089.385-.113.77-.071 1.145a.113.113 0 0 1-.028.088.109.109 0 0 1-.093.038c-2.143-.205-4.075-1.269-5.44-2.995a.156.156 0 0 0-.259.021 3.184 3.184 0 0 0-.408 1.564c0 .843.328 1.638.899 2.217a2.657 2.657 0 0 1-.688-.275c-.105-.06-.233.017-.235.14-.015 1.253.697 2.367 1.763 2.87a2.731 2.731 0 0 1-.573-.05c-.117-.023-.216.092-.18.21.346 1.113 1.277 1.933 2.39 2.12-.924.639-2 .976-3.12.976h-.349a.233.233 0 0 0-.226.18.25.25 0 0 0 .115.271A8.098 8.098 0 0 0 129.285 21c1.279 0 2.476-.262 3.557-.778a7.881 7.881 0 0 0 2.603-2.01 8.867 8.867 0 0 0 1.593-2.75 8.91 8.91 0 0 0 .542-3.01v-.048c0-.16.07-.31.192-.412a6.09 6.09 0 0 0 1.201-1.357c.087-.135-.051-.305-.196-.239z" fill="#fff"/>
    <rect x="78" width="29" height="30" rx="5" fill="#0F0F0F"/>
    <path d="M90.65 22v-8.281h-1.533v-2.285h1.533v-.84c0-1.205.355-2.139 1.065-2.803.71-.664 1.706-.996 2.988-.996.469 0 .983.068 1.543.205l.01 2.422c-.202-.059-.472-.088-.81-.088-.997 0-1.495.43-1.495 1.289v.81h2.06v2.286h-2.06V22h-3.3z" fill="#fff"/>
</svg>
