<svg width="381" height="140" viewBox="0 0 381 140" fill="none" xmlns="http://www.w3.org/2000/svg">
<g clip-path="url(#clip0_865_795)">
<rect width="380.28" height="139.18" fill="white"/>
<path d="M176.223 139.18H10C7.34873 139.177 4.80688 138.123 2.93215 136.248C1.05742 134.373 0.0029116 131.831 0 129.18L0 10C0.0029116 7.34873 1.05742 4.80688 2.93215 2.93215C4.80688 1.05742 7.34873 0.0029116 10 0H176.223C176.23 1.74764 176.599 3.47485 177.308 5.07238C178.017 6.66991 179.049 8.10299 180.34 9.281C183.038 11.7805 186.587 13.1573 190.264 13.131C198.006 13.131 204.305 7.24 204.305 0H370.278C372.929 0.0029116 375.471 1.05742 377.346 2.93215C379.221 4.80688 380.275 7.34873 380.278 10V129.179C380.275 131.83 379.221 134.372 377.346 136.247C375.471 138.122 372.929 139.176 370.278 139.179H204.3C204.293 137.431 203.924 135.704 203.215 134.107C202.506 132.509 201.474 131.076 200.183 129.898C197.485 127.399 193.936 126.022 190.259 126.048C182.517 126.048 176.218 131.939 176.218 139.179L176.223 139.18Z" fill="white"/>
</g>
<defs>
<clipPath id="clip0_865_795">
<rect width="380.28" height="139.18" fill="white"/>
</clipPath>
</defs>
</svg>
