<svg xmlns="http://www.w3.org/2000/svg" width="28.186" height="28.343" viewBox="0 0 28.186 28.343">
  <g id="PREDICTED_WINNER" data-name="PREDICTED WINNER" transform="translate(-239.51 -194.755)">
    <path id="Subtraction_11" data-name="Subtraction 11" d="M2.806,18.229A2.638,2.638,0,0,1,.331,16.693c-.078-.15-.165-.307-.223-.412l0,0L.1,16.265l0-.008L0,16.084v-1.43a3.016,3.016,0,0,1,2.834-2.131c.062,0,.13,0,.2.006h.038c.272,0,.339-.176.41-.362.008-.022.015-.041.023-.06.154-.388.312-.791.5-1.257l.022-.056.085-.215.024-.06.01-.025.008-.02.02-.052.009-.022.043-.109.006-.015C4.65,9.211,5.126,8,5.6,6.836a.583.583,0,0,0-.161-.766A2.672,2.672,0,0,1,4.7,2.984,2.718,2.718,0,0,1,7.193,1.132c.056,0,.121-.005.193-.005A2.725,2.725,0,0,1,9.924,2.762l.015.031,0,.006,0,.01.007.014v0c.079.166.153.322.4.322a.58.58,0,0,0,.065,0c2.816-.26,5.131-.458,7.284-.622.351-.026.412-.217.482-.437l0-.009v0c.013-.04.026-.083.043-.127A2.8,2.8,0,0,1,20.846,0h.072a2.845,2.845,0,0,1,2.627,1.681,2.73,2.73,0,0,1,.2,1.687,3.136,3.136,0,0,1-.891,1.573.641.641,0,0,0-.2.832c.43,1.048.773,1.971,1.049,2.821a.692.692,0,0,0,.767.54,2.887,2.887,0,0,1,1.8.736,2.7,2.7,0,0,1,.878,1.662,2.872,2.872,0,0,1-2,3.181,2.738,2.738,0,0,1-3.339-1.5.973.973,0,0,0-1.017-.678l-.1,0H20.67c-.345.015-.717.022-1.171.022-.272,0-.538,0-.854-.005h-.266l-.594,0h-.062c-.339,0-.729-.065-.736-.569a.542.542,0,0,1,.135-.408.8.8,0,0,1,.589-.173h1l.824,0c.531,0,.972,0,1.388.013h.049c.363,0,.628-.087.738-.513a1.076,1.076,0,0,1,.34-.609c.918-.581.612-1.285.287-2.03l0-.009c-.1-.222-.175-.451-.245-.654l-.005-.015c-.037-.107-.076-.218-.117-.33-.565-1.53-.628-1.581-2.231-1.8a.655.655,0,0,0-.09-.006.481.481,0,0,0-.42.278l0,0a1.252,1.252,0,0,1-.094.126c-.506.574-1,1.142-1.681,1.93l-.011.013-.039.046-.01.011-.085.1-.1.11-.033.038c-.355.41-.722.833-1.09,1.253l-.029.034-.014.015-.014.016c-.18.208-.366.423-.608.423a.582.582,0,0,1-.368-.159.6.6,0,0,1-.251-.4c-.019-.238.172-.457.357-.668l.008-.009.013-.015.009-.011.021-.025c1.062-1.225,2.088-2.4,3.05-3.5l.034-.038c.206-.231.369-.413.162-.8-.191-.355-.371-.48-.689-.48-.034,0-.075,0-.125.006-1.952.17-4.513.387-7.021.558-.384.026-.445.257-.5.48a.761.761,0,0,1-.14.324c-.589.653-.375,1.182.161,1.823a13.658,13.658,0,0,1,.837,1.161l0,0,0,0,.023.035c.1.151.21.313.319.469.266.384.245.7-.063.941a.552.552,0,0,1-.334.136c-.227,0-.406-.2-.551-.4-.563-.771-1.067-1.468-1.54-2.182a.72.72,0,0,0-.649-.325H8.175l-.1-.011a2.4,2.4,0,0,0-.289-.019c-.887,0-1.16.582-1.449,1.4C5.783,9.7,5.22,11.1,4.616,12.406a.707.707,0,0,0,.218.93l0,0a1.311,1.311,0,0,1,.255.315c.088.174.193.258.318.258a.71.71,0,0,0,.309-.108l.005,0,0,0a1.071,1.071,0,0,1,.185-.084c.773-.234,1.537-.491,2.268-.764A.914.914,0,0,1,8.5,12.89a.575.575,0,0,1,.546.431c.126.323-.024.575-.446.748a7.076,7.076,0,0,1-1.09.375c-1.045.241-1.86.536-2.058,1.919A2.343,2.343,0,0,1,3.1,18.217C3.007,18.224,2.907,18.229,2.806,18.229Zm.033-4.509a1.589,1.589,0,0,0-1.658,1.623,1.735,1.735,0,0,0,.483,1.248,1.623,1.623,0,0,0,1.148.5h.024a1.711,1.711,0,0,0,1.208-2.865,1.619,1.619,0,0,0-1.153-.507Zm21.495-3.448a1.678,1.678,0,0,0-1.655,1.684,1.614,1.614,0,0,0,1.659,1.667h.015a1.676,1.676,0,0,0,.017-3.351ZM7.368,2.31A1.658,1.658,0,0,0,5.7,3.939a1.731,1.731,0,0,0,.481,1.249A1.625,1.625,0,0,0,7.328,5.7h.029a1.73,1.73,0,0,0,1.667-1.7,1.661,1.661,0,0,0-1.6-1.681h-.06ZM20.933,1.193A1.664,1.664,0,0,0,20.9,4.52h.039A1.629,1.629,0,0,0,22.6,2.865a1.66,1.66,0,0,0-.466-1.2,1.665,1.665,0,0,0-1.2-.476Z" transform="translate(240.01 195.255)" fill="#050605" stroke="rgba(0,0,0,0)" stroke-miterlimit="10" stroke-width="1"/>
    <path id="Subtraction_7" data-name="Subtraction 7" d="M10.178,15.939H5.711a5.283,5.283,0,0,1-2.3-1.665,7.956,7.956,0,0,1-1.3-2.531A5.566,5.566,0,0,0,.546,9.2a1.285,1.285,0,0,1-.482-1.43,1.519,1.519,0,0,1,1.39-.942,2.594,2.594,0,0,1,.438-.038A3.125,3.125,0,0,1,3.95,7.7c0-.609,0-1.2,0-1.8V5.865c0-1.38,0-2.684.007-4A1.713,1.713,0,0,1,5.4.022,2.171,2.171,0,0,1,5.706,0,1.616,1.616,0,0,1,7.354,1.4a3.75,3.75,0,0,1,.053,1.064c-.07.665.187.774.809,1.037A20.4,20.4,0,0,1,11.4,5.111c.083.055.162.11.238.163l.006,0a1.943,1.943,0,0,0,1.136.468A1.33,1.33,0,0,1,14.1,6.974l.007.08a13.982,13.982,0,0,1-.223,5.492c-.493,1.569-1.671,2.647-3.708,3.393ZM1.895,8.066a4,4,0,0,0-.752.083A8.157,8.157,0,0,1,3.4,11.843a8.028,8.028,0,0,0,.68,1.342,2.939,2.939,0,0,0,2.63,1.58h.065c.17,0,.354,0,.582,0H8.1c.428,0,.887,0,1.349-.033A3.755,3.755,0,0,0,12.815,12.1a10.7,10.7,0,0,0,.229-3.352V8.736c-.016-.441-.033-.9-.027-1.344a.567.567,0,0,0-.159-.4.514.514,0,0,0-.375-.153l-.045,0c-.314.023-.488.246-.492.63,0,.024,0,.049,0,.073v.025c0,.081,0,.172,0,.26a.751.751,0,0,1-.181.56.565.565,0,0,1-.42.17h-.008a.559.559,0,0,1-.406-.165.8.8,0,0,1-.191-.579c.011-.513,0-1.032,0-1.517a.5.5,0,0,0-.549-.551h-.018c-.288,0-.452.161-.5.494a4.628,4.628,0,0,0-.025.8l0,.092a.939.939,0,0,1-.15.671.539.539,0,0,1-.405.136H9.075c-.538-.008-.584-.408-.586-.817,0-.543,0-1.091,0-1.621V5.417a.969.969,0,0,0-.165-.69A.512.512,0,0,0,7.941,4.6H7.923c-.5.009-.5.437-.505.781,0,.1,0,.21,0,.313V5.7c0,.214,0,.435-.006.654,0,.063,0,.129,0,.192,0,.383,0,.78-.579.8h-.05a.548.548,0,0,1-.414-.135.862.862,0,0,1-.123-.633c0-.063,0-.126,0-.185-.011-1.54-.007-3.1,0-4.285,0-.432,0-.922-.56-.931H5.674a.5.5,0,0,0-.374.127A.975.975,0,0,0,5.152,2v.022c0,.028,0,.056,0,.083V2.87c0,2.032,0,4.134,0,6.2,0,.075,0,.157.008.224.02.38.041.772-.434.919a.763.763,0,0,1-.222.037c-.328,0-.467-.287-.6-.564-.035-.073-.071-.147-.11-.214C3.193,8.434,2.7,8.066,1.895,8.066Z" transform="translate(247.345 206.659)" fill="#050606" stroke="rgba(0,0,0,0)" stroke-miterlimit="10" stroke-width="1"/>
  </g>
</svg>
